<mxfile host="app.diagrams.net" modified="2021-12-01T02:22:44.568Z" agent="5.0 (Windows NT 10.0; Win64; x64) AppleWebKit/537.36 (KHTML, like Gecko) Chrome/96.0.4664.45 Safari/537.36" etag="27HJtC2sL7wb3_2nejOw" version="15.8.7" type="github">
  <diagram id="ri0OXqWi1-3-LjkgG3EU" name="Page-1">
    <mxGraphModel dx="2207" dy="547" grid="1" gridSize="10" guides="1" tooltips="1" connect="1" arrows="1" fold="1" page="1" pageScale="1" pageWidth="1169" pageHeight="827" math="0" shadow="0">
      <root>
        <mxCell id="0" />
        <mxCell id="1" parent="0" />
        <mxCell id="E2hqsEqv0XKlIa9BZqip-3" value="" style="shape=image;verticalLabelPosition=bottom;labelBackgroundColor=#ffffff;verticalAlign=top;aspect=fixed;imageAspect=0;image=data:image/png,iVBORw0KGgoAAAANSUhEUgAABosAAANVCAYAAACgcMd+AAAAAXNSR0IArs4c6QAAAARnQU1BAACxjwv8YQUAAAAJcEhZcwAADsMAAA7DAcdvqGQAAM36SURBVHhe7P390yXZXRh46v9wDJjFDKBuwhHDhAYYe/Ea4fnBL0wPhlmBJMRsCCEMIkKysI29YBtPqz3qVnsXWoEkIiaEw8AvVGurmx0RwEhay7vTpSqmcThotULdT7RH3ar9wTFRVTDsYEzuPSdf7jknT2berHqep+5z83MiPlH3Zp58u7f7e16+T+Z90zc/+m0NAAAAAAAA2yRZBAAAAAAAsGGSRQAAAAAAABsmWQQAAAAAALBhkkUAAAAAAAAbJlkEAAAAAACwYZJFAAAAAAAAGyZZBAAAAAAAsGGSRQAAAAAAABsmWQQAAAAAALBhkkUAAAAAAAAbJlkEAAAAAACwYZJFAAAAAAAAGyZZBAAAAAAAsGGSRQAAAAAAwArfUVnGw/XtlWWHkywCAAAAAADmfct/3rz5rf/35tG3fal59O1vNN/yf2k4Io/84BvNo//nl3ff0f9t93395+Pvb4FkEQAAAAAAMO1b/vPm0R/4t9UkBcfn0R94bfe9rbv7a/PJom965D+rLoeL4L+3Y+JW2ePzYLfKHs53f3S+xXcCAAAAx+zN3/V0NSnBcXr0h/998+a//E+r3+WUTSaLwoT913/DtzRf+7Vf33zN13xd82f+zJ+BSxH+e/vaP/v18b+/Y0wchXOsLT8ZbpU9ag96q+ysb/kLzZv/0j9uHvmvPt88+n2/Wz0+D88j33crfjdv/s5/1HzTeX/3AAAAwAN79L/+/eqYnuMVvrPadzllc8miMEH/H33N1zV/9uu+oflz3/jnq3XgIv25//jPx//+QuLo2BJGJ50scqvslXI/t8pO+pa/0Dz6ff9z88jf+I3mzX/hA/U6PHThu3nkb/w/YzLP3V8AAABwTL6jeeQHvlKdw+F4PfKD/0v87urf6djmkkXhjo4wUV9bB5fpa//sN+z+e3y0uu5hOeVkkVtlr5b7uVV2Sryj6G/8RnUdx+fNf+N/aN78nT9bXQcAAAA8HLX5G45f7bucsrlk0dd87de7o4ijEO4wCv891tY9LKecLHKr7NWz9lbZKfHxZu4oujLiHUb/1b+srgMAAAAejtrcDcev9l1O2VSyqH8EXW0dPAzhv8djehTd6SaL3Cp7Fa29VbZu993Hx5rV1nGs2u/Mo+gAAADgWNTmbjh+te9yyubuLDr5H/DnSjm2/x5P+f+PWrDk+NW+y7XOaz9cHt8ZAAAAHJd0voaro/ZdTpEsgodIsujy1IIlx6/2Xa51Xvvh8vjOAAAA4Lik8zVcHbXvcopkETxEkkWXpxYsOX6173Kt89oPl8d3BgAAAMclna/h6qh9l1Mki+Ahkiy6PLVgyfGrfZdrndd+uDy+MwAAADgu6XwNV0ftu5wiWQQPkWTR5akFS45f7btc67z2w+XxnQEAAMBxSedrLtMjbz9rvvH75z1S2a71R803vv2PKssPsdv2+w/b9pG3/6+Vc9ht/0PlsstX+y6nSBbBQyRZdHlqwZLjV/su1zqv/XB5fGcAAABwXNL5mst04w+axfLK5+vbfstuefOH/775b+8naRO2bf6kuba47R83L/zBnzY3frV9/0ifYPr8f2iaN9J6D0ftu5wiWQQPkWTR5akFy6P3Q/9r8+ZVjdkfjev/0NnKfRyX2ne51nnth8vjOwMAAIDjks7XXKYbSSKm5lNvzCSLdp74YtM0b9ybufto+u6l//bf/Iem+cq98br0bqV/8e+bO3+4O058/yfNK7vDfSq8liw6B0/cau40d5sXnqisOwf3NRn+F36k+emf/L7quu/44X/Q/PQP/5Xqum9+9Pua9z3+/uavVpc/3jw+sc/WX2ne9dOPN+/767V15609n8s5FinJostTC5bHpNYohQbpzr/5d6Plk7fA7hrGOy/9u31y6IfOmmtf2S2r7qN2e+zxqX2Xa53Xfi7Ud99tHvmLleWPPr/7ns4qyw/wn97abXu3efN/Wll35K7EdwYAAAAbks7XXKYbf/Afmhf++3Jeay/MfYVkUf1RcK2YUPrc9CPlbvxhuItoRRmSQ03zoTB/98VuX//yj/fJpc8kr4P7fhzeg6l9l1MuIVn0fPNKs/vSqutKoW7T3LnxdGXd+bjfyfA+KRT+fTwkemYMSZdakikse/wfNO/6C9/W/NWffHwm0RSEJE5bt75+Wtj3YcmfNik1n7jiokgWXZ5asDwmaxul+BcKFaHxu/P7bXLo2u71dJn/q4xjUfsu1zqv/VyskBTqEjuP1T+LwQ/cqmw/YbevR7774trUixKus7YcAAAAeDhG8xOX5JDH0L36+fk7kJ79yq7SH/xR86HKukx49Nzrf1Jd96Hf/9N4nGz5D/3vMZ/R3tn0R+1xpkqSYLpMte9yyvkmi5496678sPLKs+n2baJotty51TyeHu8+3P9keEiqjO8Sqt9Z1CVg0iTST/9I81djoilN/hxwh1FILu22/Y7auqjbx6GyY1XOc6R2ZxTnRbLo8tSC5bEKdxl96KVdyPvDP23uvLFr8F7631b99cGQeJq51XXpFt5jUfsu1zqv/Vy4cCfQY88Xyw+9syjUq3+GNceeQArnWFsOAAAAPBzl3MJlufGHfzp7Z1Hr3v7xbyPh0XB/Gh8VN3d3Ue/VP6wllf64eWG3fb7/Xb1/86dxCi4mi8Lj6NJz8Bi6mgPuLOqTTJPJoLCP+qPprr06t93Yg0+GLyVn9smVv/qT+8RQuNPn8Z/8kXFypl82lRCKdyKtf0Tc4p1F3X6nk0GX+Ri87ZIsujy1YHl0fig0bv9bTPaE21efeGnXkL3UPVv1D/9D86Fd4zf3+0OPdA3kvs4fJY1mq08oSBYdkZAkSu8W+otno88hM0ooBSseVxceeSdZBAAAAKwwmp+4JHFe7IAyPAqu8Mjn/ri9q+dXwx9mL99dFB9Z95k8qfTIZ/5knPj51f8Qk0Ovhvqfb88zu/NIsujp5oXwCR1S+gRP/I2i/i6jSmIpJpKmk02XkSwakkOVO4Cmf7Po+5r3dXcTPUjCJT727qd3x5i5u+iQR+O1+uRVm/BqzzskhYpH3SWPykuPw/mTLLo8tWB5PP6oefP3nzXP7hqQptk/hzX7zaL//o9irGzf15/BGsJhKCHBFJeFRqko/Q/+SRYdkf/0+eaRHwjXW0v2rEgCpb777v5xdfG3i47/bqLU0X9nAAAAsDHpfM3lGP8R9Mhn/jj7re7xfNkfNy/8wT6Js/TbRVFIKjV/0lzr/hj7kbe3dy2N5tF2+wz7jfsM+49/BJ6fW/abRQ/p98Nr3+WUI/vNop0hedQ9lu7V2l9Q37/7ngz/6++v3xlU85PfNySRwr8xWTTcydPaJ5AqyZrB/u6ew3+DqLWufp88+r72+mYfe8d5kiy6PLVgeTRiI7QLd2+MkztTZSrR09+NFN+HZFHSKIXk0z5Z9B8mf/fomNS+y7XOaz8XLv6+UJvYKT+HXPfbRrV9hCTRrk41MTS37siE86wtBwAAAB6O/bzEJfl8Nwm2opS/KRTvCAp3FfXLwhxcuLto5sk9Qbyb6Y3/vfnG7/938fFzo98qSvTJovDvUnkYf7hd+y6nnGuyKN7ls6ZUE0H93UkrEkwrPFiyqL2zaOpuonR5fOxckhz66Z98/3B3UJ9AahM6M8micMw+cTP120WhTnKcZfXHzrXn626iyyZZdHlqwfLofD65k6giTfZMGSWLiiJZdAWEx9BVHzW389hEoqh7dN1BiaD0rqMjdeW+MwAAADhx/VzNw/DES/++uVa7MyfMpfXzYIWpO4JCUifMv83/se4fxXm4UELduZ+FGO4sKteFebndutHyS1b7Lqdc7J1F4S6hO7eaazfudo+Za8WkUpko6u4omi0rHjc35bySRfVETP9ot/12c3cWzSeL9ncV9csOu1uo299f3x0vfWxeTCqViaKl318Kpn7TiPMgWXR5asHy6FSSO2VZnSxKGqWwrt/+lUay6Lg83bz5B7pE0OxvFs3cVRQ8Vtsm98hfrGx3ZMJ51pYDAAAAD0c5v3CZ2t8t+tPmhX9RrPuXf1JNFj3S3RE09TtGIT3xymcqj63rHyX3L8PxdvW6u4XuvNT9cXclaSRZdIDHb9xNkjv5bxmliaP2N4l25c7d5s7c3URd4qlMFl3GbxZFK+8sSpfFpMtP79atuLMobpcme4KYcJpJ3hS/NTQcO0j3NSSuwjnN3U0UkkmSRRdJsujy1ILl0Ql/DXFedxb90B+1jdLEY+gki45M+F2h/m6f+7mzaEp4tN0VSA6VrsR3BgAAABuSztc8FJ9vuuRL+9vf7VzXn44SQv0dRbOJmu4nIfqE0SNvb/fX/p74rhTbDo+Ye+NP2nm2t+9/90iyaE53h9CdV89GyZ35xM7CbxsdSbLor/7kP2jet7O/8yZXewzd6juLqncBtWICaPQ4uvYupMd/+v3N+6r7mkoI1RNVe5JFF02y6PLUguXRCY3eQpl7RmoQk0X/5t/Fxu1ToVEqSrv9n0gWHZvvvrt/hNyD3FlUkiwCAAAAzsF4juIh6RI9fSkfM3dj5o6iUnwA2ufbbUJZmncb5u6S30EKyaLqdqHulpNFWeKmT+70j5dLl4f3oWSPogvJooWyIik05YGSRY+3yaCQsFlzZ9GQLCruLGrr5AmbmAxa+O2gmIjqE0ZZMqjfV5c8ypb3iao0+ZMunyJZdJEkiy5PLVgej/1fRBym8ozWzhMvtQmi2ChmjVJyjM/8cf7jfkes9l2udV77uTjP777PJAnkzqIr8J0BAADAtqTzNVwdte9yysX9ZtHweLlDEzz3d2fRWvc7GZ7+XlCeFMoTLvsk0L5umix6V3fHUVi2v/uoS8jM3FFUikml0R1G/W8QzSeb9vrkUm1d4M6iiyZZdHlqwfJoFH8RcUgp/2qiN/nXDMUxFv9S4kjUvsu1zms/l6ZMFmV3Gp3ldQch4ZR/drOmklFHIpxjbTkAAADwcIzmFrgSat/llItLFh2pU54M5+qRLLo8tWDJ8at9l2ud1364PL4zAAAAOC7pfA1XR+27nCJZBA+RZNHlqQVLjl/tu1zrvPbD5fGdAQAAwHFJ52u4Omrf5RTJIniIJIsuTy1Ycvxq3+Va57UfLo/vDAAAAI5LOl/D1VH7LqdIFsFDJFl0eWrBkuNX+y7XOq/9cHl8ZwAAAHBc0vkaro7adzlFsggeIsmiy1MLlhy/2ne51nnth8vjOwMAAIDjks7XcHXUvsspkkXwEEkWXZ5asOT41b7Ltc5rP1we3xkAAAAcl3S+hquj9l1OkSyCh0iy6PLUgiXHr/ZdrnVe++Hy+M4AAADgmHx788gP/C/ZnA3HL3xn3/zodxTf5TTJIniIJIsuTy1gcvxq3+Va57UfLo/vDAAAAI7LI//172dzNhy/R77/31S/yymbShZ90yP/WfM1X/t11XXwMIT/HsN/l7V1D8PpJov89cNVtPavH6q+5TuaN3/frfo6jlb7nT3gdw8AAACcn7/84ebRH/7j6hwOx+fRH/73zTf/n56of5cTNndn0dd87dc3f+4//vPVdXCZwn+H4b/H2rqH5ZTvLPLXD1fP2r9+mPLIY/+yefNf+EB1HcfnzX/xg7vv7HPVdQAAAMDD8Y1v/vbmkbedNY/+8P+vOo/D8Xj0XX/UPPoDZ7vvbN1NCptLFn39N3xL87V/9huq6+Ayhf8O/9zuv8fauoflpB/T6K8frpT7+euHSd/5j5pH/sZv1NdxdB75G59u3vx//JnqOgAAAODhCE9H+sY3717vxuyPfP/vNY/84OvVOR0envCdPPJ9L+6+o/9rTBStfaLV5pJF/aPo/uzXfYM7jHgown93X/t1f675j77muB5BF5xysshfP1wd9/vXD1O+8ZHv2HVifrd55Hv+B3cYHbF4R9H3fLp55G/ear7p0W+v1gEAAAAenm9881sS5Xsevvw7qX2HczaXLArCBH28w+hrv775mq/5ujhBDpfha772/xD/uwt3FB1boigI51hbfgrC5+2vH47bg/71w5xveuTbmzd/5882j/xX/7J59Pv+5+rxeXhCguiRx/5fu+/oZySKAAAA4Ih9U5KM4Dh90yPrE0XBJpNFqWOcsOd0+e/t4coDp79+OD4P9tcPs3b/74X//1rfnrzmOOy/k/BdVb9DAAAAAC7M5pNFwLb464fjd79//bBoSExwrCSKAAAAAB4OySIAAAAAAIANkywCAAAAAADYMMkiAAAAAACADZMsAgAAAAAA2DDJIgAAAAAAgA2TLAIAAAAAANgwySIAAAAAAIANkywCAAAAAADYMMkiAAAAAACADZMsAgAAAAAA2DDJIgAAAAAAgA2TLAIAAAAAANgwySIAAAAAAIANkywCAAAAAADYMMkiAAAAAACADZMsAgAAAAAA2DDJIgAAAAAAgA2TLAIAAAAAANiwN33d139LAwAAAAAAwDa5swgAAAAAAGDDJIsAAAAAAAA2TLIIAAAAAABgwySLAAAAAAAANkyyCAAAAAAAYMMkiwAAAAAAADZMsggAAAAAAGDDJIsAAAAAAAA2TLIIAAAAAABgwySLAAAAAAAANkyyCAAAAAAAYMMkiwAAAAAAADZMsggAAAAAAGDDJIsAAAAAAAA2TLIIAAAAAABgwySLAAAAAAAANuxN3/BN/0kDAAAAAABwWUKCorach0OyCAAAAAAAuFSSRcdFsggAAAAAALhUkkXHRbIIAAAAAAC4VJJFx0WyCAAAAAAAuFSSRcdFsggAAAAAALhUkkXHRbIIAAAAAAC4VJJFx0WyCAAAAAAAuFSSRcdFsggAAAAAALhUkkXHRbIIAAAAAAC4VJJFx0WyCAAAAAAAuFSSRcdlc8mif/LC3aZp7jb/0+P19Zlrr+7q7sqdLzT/pLYegCN3vflyDOSvNr9eXb/Xtg9N8+Vr6fJu+9l2oD/GgW0LAOfv8S80d2Isrsf7X39let1eF89fuV5Zd5j2OGV7kO63bzMqxZgD4L60sbfsxy/o53seIOYD8OCuWrIotjl9v71vSyrlzgsfzrbL5pz6scsRtkEnnSzqv4TDSjGom/myh6JTAXD0+sFj2VDn+sm7MJH44eZ/iq12eN0tn5zAm5n0G8pyogqAB9PH+lj6PnrXnw8DsnZ9G4+zumHZkGiqlCH+921DWsZ/JNDuu1j++K6tiNtO/VHBUlsDwJxq7F0iWQRwFE4hWZT9sUI3tsjnoNJ5pqk/Vj4O7iyq6L+w6sTiMJhc2REB4ILVJvLmyxDnuwa+fZ9O2s1M4PXtQXVyb38u80kqAB5YEsOzfvxEsihuU43hXczvJg6zgWAf17v3/Zjiy6+0xxuXMFZIBoVZO9MfrzhutT0BYIlkEcDVdXWSReWc076PXytZvz9rcxbmrh7ymODEk0ULH35S+i8wTya1A7chyydRBHAltAPG8V9pHLR8prEPJbYXxV+KxO2Hgea+7alPCgJwfspESx+Dd/31F9p4XksWte/ThM5MSQd1RbKoHBPs95ueS5KkqpIsAjhU328/tOz7412s7WNyNnEnDgM8LFf6zqKDFHNEsf3ZjReudXmGI/ujBXcWzej/MjErOg8Axy8b/PXLiwFib/hDgDChWE7sHTBwTLbfl8PaGQAeTJ6c6ezagP1ArJIs6uP2aGDWxfxueT4QnEgWxUHevl3JzydtU/aDxKzE/ZmkBLh/fR9/F0bn/lCrHx/0sTYbL+xjdPlHZQBcrKubLCr697tlv57lEtoxQZpfuPPC9Xab0PZMjkkerhNOFk0MyGZKtWPRdyB2RacB4KroB437CcS+gS5jfTux15aQLPr18EihobE+dAJvP0g9toYe4HQlsbcos8mipH8fl1WT/l0Z4n9tbLF/DF3ftiwmi4Y2onsf939oWwPASBrDZ/rhfZ9/GAtkyaLKewAuxZVMFsX24guxPx/alTjf1CeLQp8+tk3tmCCdc7rzyqv7PzSrjkG6dQ/Rdu4s6hv+O3fjF7FP/ISB2n4ysVe9q6gsBnQAR2uI43HANz0Rlzbc4z8KWJjAm5tgHMq4jQHgvHRxup/c6+LybLKo07YT6bJiX5k0udNvG+J7mhDqjzOTLCpL3J9kEcD96uNxm7yfmmTr4my6fpQc6uvouwNcpquaLNo/maYru758/c6iV4fHYw9/sBD080lH9kcK20gWDZN5ySCuG4wNk4TdFzO8j2Wqk2BAB3D8+gFfX+oxPW24v3yt3KZSQuzvB5ddyRr8RD5pCMD56+J2kSyKyf+JZFF8vasf/63E9KwM/f2pZNH+OMM+h7hfSRYNg8F0f8YWAPcnjZ/t61q/PP8jsm75KFk0nh8C4OJdnWRRMl806rfnY4V8u52uzZEsOgZDoiiU/q9Iuk7EnT7bl/x1SScf6JUM6ACuhGICcHznUKert/rOolqDn5hvSwB4cF2c7h4D0Zaub5/E9jYet8uHScNQssFZv6/agG0mWRTXta8Xk0VlifsztgC4H2VfO4/Ne+GPAkIIzvr6/Tghjflx2Xh7AC7Olf3Nor4dmSnDXFFXV7LoYRsa/37w2A4Q2y+1fRzd1BdSdjpyBnQAR29ouMOdQ/uJwWpip6srWQRw1YwTPH0yKI3pbTzu/0Bsn7gZPT6iUtr9dPW69mBqQjKP+5VkUXXsYWwBsFYf6/N+eBp38/ojw3zRcU3SAWzNlU0W9cuyG1VCqbRBtbmj0XZtGc9LXa4TTha1nYRscJeW0CEYvpTxl9gO9BaKAR3A8Uka3Hzw2E3GxVLE/QdMFs0XySKAizNOFtUS9VmyKIvdaXsw3tdeZTwxiu/lJOWhk5ZzxwUgt4/H9T/Y6tfP98HrySYALttVThbt/0ita3vC8jjWKNqguWTRkY0BtvGbRcMEYb2zUOsk1AaZewuThwA8BEsDx17fJiT1HjBZNHW8+bYEgPPQ9+Wz0g262jjclj5Wx2Xd+uq2ZYl1kwHgsF0b38t97NuEvl2qJ4vSc9NWABxi399f+svrPsbm/fT99m1ZSuYDcNGuTrIon3NKxwPlWKGfSxraIMkiAAAAAACAuqt2Z9GpkywCAAAAAAAulWTRcZEsAgAAAAAALpVk0XGRLAIAAAAAAC6VZNFxkSwCAAAAAAAulWTRcZEsAgAAAAAALpVk0XGRLAIAAAAAAC6VZNFxkSwCAAAAAAAulWTRcZEsAgAAAAAALpVk0XGRLAIAAAAAAC6VZNFxkSwCAAAAAAAulWTRcZEsAgAAAAAALpVk0XF507e+5a0NAAAAAAAA2yRZBAAAAAAAsGGSRQAAAAAAABsmWQQAAAAAALBhkkUAAAAAAAAbJlkEAAAAAACwYZJFAAAAAAAAGyZZBAAAAAAAsGGSRQAAAAAAABsmWQQAAAAAALBhkkUAAAAAAAAbJlkEAAAAAACwYZJFAAAAAAAAGyZZBAAAAAAAsGGSRQAAAAAAABsmWQQAAAAAAPCQfezjn6yq1T1vkkUAnLanXmzuNq8112vrjt1zrzXN3RebJ2vrAGiFWJmUuzefmVl/r7n5VLLuLc80N+92q2KZaC9CW7ImHs8esxeOPbVuRtj32adHy5+8ea87XigHtnuT1/Xp5qzbUyijz7Sq+ywr+zv03K5nBy33cz/nBJymNfFgoe5MvM5jV1vOnku2BeAk/ch7P9B85rOfb15/43YUXodltbpzbt++HdXWld729vc07/7R90fhmGWiKCzr14e6tX2cB8kiAE7bqmRRO5g8mkFgGLxKFgHM2MXtNE7GmJ/E8fh+P/nXTvzt24TwPo35MVlRxN1hsvDQeLxwzH2dUNYli4ZkSpks2u3vLJkAjfUqCaXU9HW1SZ9hQrX8TKf0E67F/mqfadVu+/0xinPo2ufy/dG018AlWhOjFurG9/NtRBa/YpxbF7cBuDr+0nf9lzExdOvW7zUf+ODPDsvD67Ds+nO/Geuk28xZkywK+7937w/iv3P6OrV9nAfJIgBOWxwEShYBbEVITvQTg+OkyUKcL9qMYfsV8XjxmHGyMRwjLD900nE/4RknLw9JBM2c7+x1DedXqZ8sy4Xzu9ecnRXHXdUG57JjVs7pkM8BOEFrYtRC3fF2ebwex9I1cRuAqyQkgV5++cvNUx/5aHz/17/n7cNdPeF1WPaxT/xyrHNowmhNsigcI00Chff9cdI7iUKd/nwuwukni7q/HOlL3+jXOhP7Ze1g7Oy5tqOw71y0y/dFJwHg+PSxuy1nN8cTVTHe96UfABbtRTqwjAPFoeRtwv6vnLv9pgPKYhIu30++bV/3elcnriu2b8+7/OvHtmT7AtisNDb3ffqp9enyTmVicViexvdJa455f5OOy0mS2jlMqFxXbf9xWVdv1Nb163fbpPXS5X29XHue9fXFZ1P7Xg7+ToBTshSjRssn6y7H63K/U8cB4OoLSaB/+I8/HF+Hf9/46u2YOArC63RdqJtuO2VNsigIj5rrX4fEVP/ouzSJlNa5CCeeLNo19GdFw94PMsoBR5wk7Ack3cAlG5BUBjNxHxJGAMejTRTtJ+Qq8XwXu/eDwrJ++z4bNO7ah/2jffK2IB+AhnX3mrvJ70+ECbVssJm1K8WxY5uSnku3rBuQVhNRyf6evPlism+AbcpjbSWm76SxOVe2CYkkHo/WZdYcM9Q9v2RRe+2hrNhn5bpie1Puf649Su4eiueQrGuv+9NdW9yW/ecwHl/FfceStpdB+d102x70nQCnZClGpcvn6y7H631c7Yv5H4BT9Cu/+utReB3u5gmPekvvHiqXPff8bw7156xNFoWkVP96KlmU1rkI23oMXTKQKQdy+cCmHXxkA7rQoRgNWvKOBAAPWW2gmMX+sTyO1weNqWySLt13eL1bHvbXbt8mj9oB5cR+0/OttTPd+vZuo8o6A1aAQZwUzOLi8kTgIMbzULmYVOzV2peqFceMddfH8awdqhonYSZVrit+juW2k9ffHqu/3lqyKPtOus951B6OtJ9j9pn131Esu33ePPQ7AU7Jmhg1X3c5Xpcx7fAYBsBVEkqfCAoJmtpvAoVlffImPAYulLJOaW2yKH3EXC1ZVD6q7iKc/p1F+xFFV/aDlf1AKx/kjN/vrOl8APBQVCfQ4qAuSbSEeF6WYZvKoDGbnOrK0B7s64djx+3C/sP+suNOTAjGc+nq1NqZ5Fyzc+rE6+1KbT3ANrSxeNxXr/Tpu2VpEqKPpbNxtBajy/ahOq4Ixsds1dqG7lr6Uhl/VNu6Ujy3SrtTqlxXbf9xWeVcyrFQWS+ddO3VllWlbWTFQZ8DcHLWxKj5usvxurbf2j4BuNrCXULXn/vN+DokjcLdO+WdReEpMv2yUPci7iz67Of+1ZAgqiWLwvtwV1Nf/yKcdLJo1LCXg6Z+Ii+b0AsqnYaJwcrBgx0ALlxtQJfH731yp1+fT3SV68cTfOUx+nbg+lnfvuz2EdaH407ut5NO0qWvy/XxGmYm/ZbWA5ysqURMK4/xQYjHSbyM8XM6ITGoxegJi8dcXD7voInK0fhmQu26Kp9JfczTtm1TJbR5tXOt76ti9jOvTfICm3BwjNpZqLsUr2tji/E2AJyCl7+U/2ZR+G2gJz/y0Si8zn6zaFc33XbK2mRRSBB94IM/O7wuk0VhXVje178Im0oWxUY9G5B1g8u75SCmNvhol2X1Kh0PAB6iODmWxu9+IquP1e37YX1Xfx/bi/WjSchuf+mgMU5mhd8q6peFbcL7dD9dm5S1GcWxapNiybJ2+3Tw+lrSnoV9rZ9wBLjylvrjcf3UxF8Z42fUYvSU2WOm7i92x/0VE5V5m1AZt0ypXlfbPg2fS2wr9+cZx1QTn8XoWott888mP8/rZ+M2cuq7mf5MgdO3JkbN112K1/WYlvfxATgN4a6hkAT62Mc/Gd+HR76FxEwwPBputy7USe86mrM2WfTURz46JINqyaKwLNTp61+ETT2G7uxm0THYiY1/sazfbtwByPcnUQRwhOKgry+7+P5ciP1JvE7X7wZ/N8MIMplQa9uFULptukFhW15rbo4mqMYTWu0+xm3Eft9tydqZ2oRdsazfvt2uPW5fpibUAE5aFvOTUomdsWRxtuzb78toHFCL0TOmj5kKcbwchyyL+x4lgoprOSRRFExdV9b25ee4KlkUTO6rO+fhXOfateL6VnwXwAlaE6Nm6gZz8Tpb1xWJIoDTFZJA4TFvN2+92Lz/b//MsDy8DsvCukMTRcHaZFFIDvWPt3vb298zHKtPGoV1/euLcuLJIgAAAAAAgGUhIRMSQ+G3i4Lw+n6SNGuTReEOppdf/nLz7h99f1VY19/ldFEkiwAAAAAAAM7J2mRR0P8uUU3/e0YXSbIIAAAAAABgwySLAAAAAAAANkyyCAAAAAAAYMMkiwAAAAAAADZMsggAAAAAAGDDJIsAAAAAAAA2TLIIAAAAAABgwySLAAAAAAAANkyyCAAAAAAAYMMkiwAAAAAAADZMsggAAAAAAGDDJIsAAAAAAAA2TLIIAAAAAABgwySLAAAAAAAANkyyCAAAAAAAYMMkiwAAAAAAADbsTd/86Lc1AAAAAAAAbJNkEQAAAAAAwIZJFgEAAAAAAGyYZBEAAAAAAMCGSRYBAAAAAABsmGQRAAAAAADAhkkWAQAAAAAAbJhkEQAAAAAAwIZJFgEAAAAAAGyYZBEAAAAAAMCGSRYBAAAAAABsmGQRAAAAAADAhkkWAQAAAAAAbJhkEQAAAAAAwIZJFgEAAAAAAGyYZBEAAAAAAMBD9gvPfKKqVve8nXiy6PnmleZu88ITtXWta682TfPq89V1F+nxG3cXjrt87plnz3YXsi93bjxdrwewNU/cau40Z8212rpjF2L7nVvN47V1ALSW+sHZ+rJ//XTzwp1uVSwT7UVoS9bE49lj9sKxV/T3e2HflXFEHF8MZaHdi21jUkb7C2ORfZkdWzzQ558oz2lX8n0V39VDGMMBR6KIF688O65TjYmVONOX2j6COGfUl2o7MBUv++XT8bjddxIXi3gaymz8BeBC/NAP/1jz27/zueYrr78RhddhWa3unNu3b0e1daXH/uY7m3e+671ROGaZKArL+vWhbm0f50Gy6JySRbEjsmIAeb7Jol3d9NhdB2iqswOwKTEmHposagd1RxM/w4BRsghgxkI/OL7f96nbycN9mxDepzE/jg2KuDtMOB4ajxeOua8TyqH9/dYwaVmOI3b7eyWZUJwf44SkS3o+bdu3n5BskzLD+/IzzTzY55+Jdafb6/yainMENmT3//+rSdyJCZY8dtRi+aS5/vZu3T72VeLOUnzcrQulHqtC/LybxcjRtczuH4Dz9pZvf2vzW7/92ebGF363+fH3/dSwPLwOy649+3ysk24zZ02yKOz/7t178d85fZ3aPs7D5pNF5yUOfA7tjOzE+ueWLBoLnSODJ4CdhcmnXDuoO5oBmWQRwGppP3icNFmI80WbMWy/Ih4vHnOYDFzT399PUi6PIx5wbFJOVu6Mr2nafX/+s+31eLtDPgdgA2LsSGLp6r7/4fMuZUxL491YF7derbcfIYbduXErP/4o/rax/2jGJgAnLCSBfv+ll5sPPdHG9e/6K481P//MJ6LwOiz7hY/+UvPSF790cMJoTbIoHCNNAoX3/XEe+953DMtDnf58LsJGkkVtI92XtKEdDWBix6Ivu22fXe5oxH0kZd9ZyI+bdiL6wU38ty9ZB2Lcacnqzp6Tv7QDtqyI+btBWBnHs7jdx94s/oey36Yef8exNu43jeXF5GK+nyJOd3WvdXXiumL79rz3bUO6PzEfIEhjc22SbaGfXEmUDMvT+D5pzTHH/f1DxNg/mySpncO8dExU239c1l3/qK3LpNe69Fm0r4djLXzG6Tn2bf3k9whsRhmzlmPk3pq645i9FMPbOPXKs7VY2G9b7KNsg6baJADOXUgC/b2//3Pxdfj39de/GhNHQXidrgt1022nrEkWBeE4/euQmHpn9+i7NImU1rkIG0gWhVI2tvvGeH7Q0Q1gDmic0wFUv+zaq9PHjfV3ZXSs7FzK+vv91Y7XK+sCbMcBcXwXj/eDtbJ++z4bzD2RPtonj9Ux3g5xO6y729xJfn8itDH9vsexuTh2bCfSc+mWTU3Oxfppu3BL3Ac2L4+1lZi+k8bmXNkmJJJ4PFqXWXPMUDeZJDxQ3vYUy2NZuc/YnuRt12j/c+1RYt3nX4x/4nkkpXKMeOyu1L9DYBOSP/IqY0EbY57vxgBtqceLw2LwPu6k/fid/g6mLHaldfYxMMbGsh8f3xfnUMbBXSljKADn75P//Nei8DrczRMe9ZbePVQue/ZTvzHUnyNZdHRqA5R2UNJ3FmLDnw5QykFJbKyLTkHFqPEfyTsB1frZsdL6levoOyb9+07bkVnu8ACcpFocn4iXvXZA2Q8ga+1GLsbvvt1I9x1e75aH/bXbt8mjyTgepOdba2+69e3dRpV14j3AYNwPrsfePO53YjzflTJJ0qu1L1Urjhnrro/jWTtUVSRhZsR9FecbP8dy2wOu/4E+/5HyGvIx3Pg9sFVtHNv3k0exqIvvZSyqzsnMamPaEHcq7UY89rDPNAam8b6NX+PlO6PxQHFMAC5EKH0iKCRoar8JFJb1yZvwGLhQyjqltcmi9BFztWRR+ai6i7DJ3yxKByixMe8a9+rAK50InFHraLSdlLz0HZTlY6Xn3nYQxiW9tq7Oqs4OwGk5KI7HQVhRhm3aWJoNJvuBYFoqg8Bw7Lhd2H/Y32RMT6QDwtpEXHKu2Tl14vV2pbYeYBum+sHphFy+LJ1462PpbBytxeiyfYhtyWHHbNXahu5a+lLp21fbulI8t0q7M2jPafSHCDu1/cdllXNpPdjnP6lsI8tzLdt3YKPyuJLO9/TGy1bEolQai2oxaNT/38fAYe5pVCeJ1bVYV2t/ADhX4S6ha8+2/d+QNAp375R3FoWnyFz0nUW//TufGxJEtWRReB+O3de/CBtMFuWDllGyqGyEa411xWjb0XZ5R6E6yMs6Aem559uO3WdHB+DELMfxcTxN24Hx+nF8LY/RDz6vvZrE7LA+HHdyv5007mdtQLE+XsPMpN/SeoCTNd8PzmN8EOJxEi9j/Fzu61dj9ITFYy4un1cdR5QWEinjc0xUPpO+rcvqRQ/4+c9Jz6P2PUkWAVE+x1OLkaMYdr/xI2sLKvFsJlnUr3slO5diH5VYVx3fAHDuar9Z9PiHPhJ95StvXMpvFoUE0Y+/76eG12WyKKwLy/v6F2Ebv1mUNKyxoU0a32wAExvvdDKv2/6ATsSoAS8a+fa4RQcmed8fa6rTEM8z3X841/68a4MngC1ajOPt+3zQtivDgLJYP5oE6/ZXxvv4W0X9srBNeJ/uZ9z+jI6VDT7Hy9rt9+3C4zfOksFp2NeBk28Ap2SpHxzXp7Ez7bPPJzoytRg9ZfaYqfuL3XF/xURo3ia011XWGcS2b+64bfs0fC5F/Wxccg6ff3+ejz+Rfg9de1u0z/vvauEagdO1i0n73xPt4koah8oYV8ShYZtaXO7GBn3/PPsd6lEcKuaTRnGprV+OK/JzCXXKc50/JgAXI9w1FJJAP//MJ+L78Mi3kJgJ0kfDhTrpXUdz1iaLPrTrD/fJoPBvmSwKy0Kdvv5F2MadRc92k4Gx5J2EvHHfiY1zX3aNdOwszAyABm0jHkrfkMd9d+XOjV2HZvdv31HoB3lpnXywU3Qaiv1lHZvsnJNSHZQCnLgsJvZtQBLH0/W7OPlC0Q60A85Qum26QWNbzpoXRoPL8SBuNGjNlu9LmkyK51XG7WJZv3273b7dCcUgEtikA/rBWezN4mw/cTcuWXwOajF6xvQxU+P+/iHivrNxQ1Bcy2h9ImvX0pK0W1mdypikv6bz+Pz7cy32NW7X8nZvzfcBnJYsrlT63HMxLBjNA/W67fZtwHJ/e35Op9LfH9VJzq8SU/XxAS5PSAKFx7y9cONW87d+4oPD8nBHT1gW1h2aKArWJotCcqh/vN1j3/uO4Vh90iis619flBNPFp2DlQNDAAAAAADg6gkJmZAYCo+iC8Lr+0nSrE0WhTuYwp1L73jXe6t+/6WXh7ucLopkUeb59ncm0vf+kgMAAAAAADjQ2mRR0P8uUU3/e0YXSbKoNPP4g+z24qGsf3QEAAAAAADAsZAsAgAAAAAA2DDJIgAAAAAAgA2TLAIAAAAAANgwySIAAAAAAIANkywCAAAAAADYMMkiAAAAAACADZMsAgAAAAAA2DDJIgAAAAAAgA2TLAIAAAAAANgwySIAAAAAAIANkywCAAAAAADYMMkiAAAAAACADZMsAgAAAAAA2DDJIgAAAAAAgA2TLAIAAAAAANiwN/0n3/ZXGwAAAAAAgMvyrW95a3U5D4dkEQAAAAAAcKkki46LZBEAAAAAAHCpJIuOi2QRAAAAAABwqSSLjotkEQAAAAAAcKkki46LZBEAAAAAAHCpJIuOi2QRAAAAAABwqSSLjotkEQAAAAAAcKkki46LZBEAAAAAAHCpJIuOi2QRAAAAAABwqSSLjotkEQAAAAAAcKkki46LZBEAAAAAAHCpJIuOi2QRAAAAAABwqSSLjotkEQAAAAAAcKkki46LZBEAAAAAAHCpJIuOi2QRAAAAAABwqSSLxn7xE/+iqlb3vJ14sui3mlebe80Xnq6ta10/a5rm7Leq6y7Sh2/dWzju8rlnnv7Xzd3dpfTl1ecrdQC2KMbHf9tcr607ds//26a5+6+bD9fWAdAKsTIpd299bGZ92b/+WPOFtBM91V6EtmRNPJ49Zi8ce0V/vxf2XRlHxPHFUBbavWLsMN5fGIvsy+gzTS19/r3umHP7imOzvow+7xXnBGzDRDys6+J9EVsOip1FnMv3UbYjoVzRsQfAQ3CMyaIf+bG/23zmc//v5vU3bkfhdVhWqzvn9u3bUW1d6W3v/Inm3e/9u1E4ZpkoCsv69aFubR/nQbLonJJFsYOxYgB5vsmiXefkLDl27MjonABEq5JF7UTU0STcQzxfMzkJsDm7uJ3GyS4hMcTx+H7fp24nBfdtQnifxvw4NpiaSDw0Hi8cc18nlHXJoiGZUo4jdvt7NUmezI9xwsRmej5t27dPvrQTn8P78jPNLHz+if7cJ5M8uzZvv11xDjvXz5JzLj5jYHsm4+GUPuFTxKyl2NkepxLDh/3U4lVxHAAmHVOy6Du/+/tjYujm7/7r5v1/558My8PrsOz6878V66TbzFmTLAr7v3fvD+K/c/o6tX2ch80ni85LHASu6AzE+ueWLCoYPAHsxZhYDPAmtRNm9Qmxh0CyCGC1MEnXT9qNJ/4W4nzRZgzbr4jHi8eME5bhGGv6+/vJyOVxxAOOTYbz268fX9O09PMfxInVf9u8Wkyozpk/5pG118AlWhcPW2Gbe82rZ/OxcRQ7K/FwbJws0ocHONyxJItCEuiLX3qlefKffTy+/2uP/TfDXT3hdVj2sV/6F7HOoQmjNcmicIw0CRTe98dJ7yQKdfrzuQgbSRa1g4m+pIOK0SAkDhD7stv2+eVJxriPpOw7Cflx085D36mJ//Yl60yMB49Z3ZlzOrzDBHCKiph/axzHs7jdx94s/oey36Yefw/4K8JioJjvJ9+2r3u9qxPXFdu3571vG9L9ZfsC2Kw0Nrev84RCZVIvNTUxePDE35pjjvv7h1ju69fOYV46JqrtPy7rrn/U1mVq19qfT7mufV+/loXP5uDvAzhly/Gw1ddLY9m4Xhk7a/Gsph7blrcDIDiWZFFIAv3szz0dX4d/3/jq/zcmjoLwOl0X6qbbTlmTLArCo+b61yEx1T/6Lk0ipXUuwgaSRaEkA744ANwPPNKBUV9/NICpDRgLtU5H9qiE4rix/q5MD5byAVJbf7+/0fGSSU6dEmC7Dojju3i8HwSW9dv32QTbLr7uH0+Rx+oYi4e4Hdbda+4mvz8R2ph+32UcHx07thNFDE8mw0aTc7F+2i7862TfANuUx9pKTN9JY3OubBMSSTwercusOWaoO5MQmZC3PcXyWFbuM7Yneds12v9ce5QYt3Xp+bZt6P5zKMc/3b5jyffRaj/bWCrXD2zPVDzMxLmSNqbE+kX8mo6dh8bofryRlIPaCwCCY0gW/cqv/T+i8DrczRMe9ZbePVQue+43fnuoP2dtsigkpfrXU8mitM5F2ESyKB+s5YOUbDBUGwQWk3FTap2OXN7RqNbPjpXWr1xH0uEZlnXazs7yOQOcnFocn4mXQT6BV2s3cjHG9u1Guu/werc87K/dvk0eTcbxID3fWnvTrW/vNqqsO2gAC7ANbaIhjYv12JvH/U6M57syNelYa1+qVhwz1l0fx7N2qGqchJnSjhvy842fY7ntAdc//vx3sjY4H4fNaz/HybraQGDn0HjYx7hYfzKWlbFzHKP7mNmW6djW1iv67gBUHUOyKJQ+ERQSNLXfBArL+uRNeAxcKGWd0tpkUfqIuVqyqHxU3UXY5G8WpYO1dDBU7WgsTDL2ap2OdsCUl6yTMnus9NzbwdK4TA2Q1gzEAE7HQXE8TjAVJRsUFpN8/QRiWoZ4v68fjh23C/sP+5uM6Yl4Ll2d2kRccq7ZOXXi9Xalth5gG7q+8mgCMJ8kTJeNJ/UW4mgtRpftQ2xLDjtmq9Y2dNfSl9E1TbR1pXhuU2OFoD2n2mRmbf9xWeVcWlOff7t8/1lMfQ4T0jayoprUAjZlKR6WcWI+lu1ksbMWzztZP78W22a2BSBzLHcWXX++bS9C0ijcvVPeWXQ3ubMo1L2IO4s+87n/z5AgqiWLwvtwV1Nf/yJsMFmUN9qjZFHZcVgYpPRG2462ywdL1U5NNghNz70caC3RMQG2aTmOj+NpPogs148Hf+UxwvZh/fWzJGaH9eG4k/vtpHE/awOK9fEaZib9ltYDnKzaJN3eOKEQ4nESL2P8XO7rV2P0hMVjLi6fVx1HlLKJzLHxOSYqn0nf1mX1opnPP+5nqjz4Zz59TsBWzMfDtv89VarzJUXsrI4tgsVk0UTfH4CRY/nNope/9Gr2u0Tht4E+/PTHovA6XRfqpttOWZssCgmi9/+dfzK8LpNFYV1Y3te/CNv4zaKkcY+NfdL4ZwOl2OCnDXrfuVgezIw6EcUgqz3uft/l+/5Y+w5GeL8fPMbzTPcfzjU57/3vaYyvEWAzFuN4+35Y39XfDzKL9aPBX7e/Mt7H3yrql4Vtwvt0P7XYXByrNimWLGu337cLH771b5MJxrCv9ROOAFde0eeur09j5y6WZvF69/aQhEMtRk+ZPWbq/mJ33F8xOZq3Ce11TU6gxrZv7rht+zR8LkX9bFyy9Plnys87P8/s917Lcwjv0+spPmNgm2rxcDR3kijj8XLs7JaV+4txsY9ZZWzrjnNwbATYtmNJFoW7hkIS6Bc/0SZjwiPfQmIm6B8NF9aFOuldR3PWJoue/GcfH5JBtWRRWBbq9PUvwjbuLHq+mwyMJR9UZMmiIA48+rJr3LNOwJx2QBNK30mI++7K3Vv/Oq7vJwX7Tk1aJ++UdOdenmtfis5K2xnpi04JsGFZHO/bgCQuput3sfQLRTuwj6fdNn1CKZbdgLIYZI4ntKYHiHmszpNJ8bzKgWixrN++3W7f7oSSHh9gM7KYn5RK7Iwli7PdJGClZPE5qMXoGdPHTI37+4eI+87GDUFxLaP1iaxdS0vSbmV1KmOS/poO+Pz3ygnV7pyHc11o17Jjrf/cgNNTi4dZjCrE+tm6w2JnNhfTlVEsy4o5GYBDHUuyKAhJoPCYt5u3/nXz/p/6uWF5eB2WhXWHJoqCtcmikBzqH2/3tnf+xHCsPmkU1vWvL8qJJ4vOwcqBIQAAAAAAMO+YkkW9kJAJiaHw20VBeH0/SZq1yaJwB9MXv/RK8+73/t2qsK6/y+miSBZlfqv9nYn0fVP5qzYAAAAAAOC+HWOy6LysTRYF/e8S1fS/Z3SRJItKxaMU0kRR7dZjj0AAAAAAAIB1TjlZdBVJFgEAAAAAAJdKsui4SBYBAAAAAACXSrLouEgWAQAAAAAAl0qy6LhIFgEAAAAAAJdKsui4SBYBAAAAAACXSrLouEgWAQAAAAAAl0qy6LhIFgEAAAAAAJdKsui4SBYBAAAAAACXSrLouEgWAQAAAAAAl0qy6LhIFgEAAAAAAJdKsui4SBYBAAAAAACXSrLouEgWAQAAAAAAl0qy6LhIFgEAAAAAAJdKsui4SBYBAAAAAACXSrLouEgWAQAAAAAAl0qy6Li86Zsf/bYGAAAAAACAbZIsAgAAAAAA2DDJIgAAAAAAgA2TLAIAAAAAANgwySIAAAAAAIANkywCAAAAAADYMMkiAAAAAACADZMsAgAAAAAA2DDJIgAAAAAAgA2TLAIAAAAAANgwySIAAAAAAIANkywCAAAAAADYMMkiAAAAAACADZMsAgAAAAAA2DDJIgAAAAAAgA2TLAIAAAAAAHjIfuGZT1TV6p63E08WPd+80txtXniitq517dWmaV59vrruIj1+4+7CcZfP/bg83bxwp2leeba2DuAheuJWc6c5a67V1h27Z8+a5s6t5vHaOgBaIVYm5c6Np2fWl/3rtg+7LxPtRWhL1sTj2WP2wrHvo78f9l0ZR8TxxVAObPcq1xXHR7WyeP3dZ1nWO+izaB10DWu/C+D0xP79vtTmIarxpNguLVNzGVlMrMaeMHezL/s2qF8+HY/bfSdxsWjPQhm1aQBcuB/64R9rfvt3Ptd85fU3ovA6LKvVnXP79u2otq702N98Z/POd703CscsE0VhWb8+1K3t4zxIFp1Tsih2RFYMWiSLAC5JHBQeOGnWDeqOJpaFAaMJMYAZu7idxsluInCI4/H9vk/dTh7u24TwPo35cWxQxN1hwvHQeLxwzH2dUNb194dJy3IcsdvfK8mE4iFjnMOv68B+fj/JOfo+kmuMdSba5GLduXwXwAnaxaRXkxhQiSu1+DFprr+9W7ePfW0szJI3XSyvx8c+WVRsk66/c3c+Rs7uH4Dz9pZv/+6YGLrxhd9tfvx9f2dYHl6HZdc+9Xysk24zZ02yKOz/7r178d85fZ3aPs7D5pNF5yUOXFYMWmJ9ySKAixcHWRMTUyPtoO5oYtnc4BWAqjBJ2E/MjZMmC3G+aDOG7VfE48VjDpOBa/r7+0nK5XHE8thkzXUdcrz2/O42r7yaH3d8HlPXPDUJu697P98FsAFFrFjf9z983qWM7+F9PREUdLH/1XrMCvHxzo1b+fGH9qGvZ54F4LKEJNBLL32p+dA//Wfx/Vv/i8eGu3rC67DsFz76S7HOoQmjNcmicIw0CRTe98dJ7yQKdfrzuQgbSRa1jXRf0oZ2NJiLHYu+7LZ9drmjEfeRlH1nIT9u2onoB13x374sDKSyuqs6P2mpdTz6Ov266fOOss+o36bSiYkdnb4c3gEDeDB5DHtlNwgr43gWt/vYm8W2UPbb1OPveGIr7jeN5cWEVr6fIr52da91deK6Yvv2vPfxNN3fKFYDbFIam2uTbOPYnRlN1CXL0/g+ac0xx/39Q8TYP5u8qZ3DhMXrGp/jqK3b6c8p/puuKyZx23Yrb0fba6l9Fm17PrqOg78LYAvKmLgcI/fW1B3HqaUY3sewWkzuty32UbZBU20SAOcuJIF++h/8XHwd/n399a/GxFEQXqfrQt102ylrkkVBeNRc/zokpvpH36VJpLTORdhAsiiUsrHdN8ZxsDN0Dtr6+4FcN4A5oHEeDYx2rr06fdx2oFQ5VnYuZf39/mrHGyuvp9xP/frmzrt9n3Z0nm9eiPsvOkDV7fLjAJy/A+L4Lh6lMSyv377PBnNPpI/2yWN1jKlD3A7r7jZ3kt+fCG1Mv+8yjo+O3cXXNGbHZV2sryaikv09fuOWGAtsXh5rKzF9J43NubJNSCTxeLQus+aYoW7SXz5Q3vYUy2NZsc+F66oda9QexYRQ+5nH+uX+qn9oFiRtapFUSteXn+Xh3wVwspK4UsbWNt4+340B2jId85fjZYx5saTxa6ePfbFP3pe0zr49GMXGIY4V55Dtqy2jGAjAufvlf/5rUXgd7uYJj3pL7x4qlz37qd8Y6s9ZmywKSan+9VSyKK1zETaRLMob13bQ0XcWYsPfD4BqA4/YWBedgorqwCiTdwKq9bNjpfUr15EMyoZlhfo5pYOu/LOoy8+7PtANlvab7wfgQtTi+EK8zONaJd4WYmzt24103+H1bnnY3z4WzsTxID3fWnvTrW/vNqqsE1cBBu2EXhoX67G32p+N8XxXisTIoNa+VK045n32j7N2qKrti8/X6cxe13KbmI8BKuOPsm0r3/fi519+Fvm+Bwd/F8AWxLiTxJVRW9DF9zKW1OdL5rQxcYjllXYjHnvYZxpD03ifxraiHRjFyOKYAFyIUPpEUEjQ1H4TKCzrkzfhMXChlHVKa5NF6SPmasmi8lF1F2GTv1mUDtZiY9417tWBV+wAVAY0hVpHo+2k5CUbSM0eKz33toMwLuNrS1WP0XVM2uuvD8Cmz3tiwBal69rXtVLfFuB8HBTH4yCsKMM2bbzNYlU/EExLZRAYjh23C/sP+5uM6Yl0QFib/ErOtRY/4/V2RXwFtqvrK48m/Wp913ZZOvHWx9LZOFqL0WX7ENuSw47ZqrUN3bX0ZXRNU338Qjy3+bFCVLuudN3COCgdSwXx3Ib91a87HYvtTX8Wo+9l7pyBDcpjTS3GjJdNxeUFaVwsxxijZXkMG+Ll3BihFnfFPIALF+4Suvaptk8bkkbh7p3RnUV393cWhboXcWfR7/yPnxsSRLVkUXgf7mrq61+EDSaL8gFcOsDJBzedAwZJwWjb0XZ5R6E6yMs6Aem559seqno92fXnn0U0e95zHarxfld3vAAe0HIcH8fTtB0Yrx/Hs/IY/eDz2qtJzA7rw3En99tJ437WBhTr4zWU7VliaT3AyZrvd+YxPgjxOImXMX4u9/WrMXrC4jEXl8+rjiNKtUnMmpnr6tu3cvle27ZNlf53Osp91PdbqTt1DSu+C2AL2vjR97NrMXIUdw6NkaUs/lRi+EyyqF/3SnYuxT4qbVJ9XgeA8/bFL+a/WRR+G+jxJ56Owut0XaibbjtlbbIoJIh+/H1/Z3hdJovCurC8r38RtvGbRUnDGhvapPHNBnOx8U4n8/oB0HInYtSAF418e9yiA5O874811WmI55nuP5zr0iBxtM/yPPNOVbRw3u36tENU/82idrv0c9udiw4OcNEW43j7fljf1d8PKIv1o8mrbn9lvI+/VZTG1vA+3c9EXEyPFfdTxMlkWbv9Pv4+fuMsi8X3M+EIcOUVfdf6+jR2jvvC2QTilFqMnjJ7zNT9xe64v2IckLcJ7XUtJpSCyesq28O90bgkUV5r23Yl30/22eTnWdbNxmmpNd8FcHp2/ff974lW4kzs3yextYjJwza1OFKMJbLfc+7iYtpm5HGqjL1lHO3WZ+dStAPxXOePCcDFCHcNhSTQLzzzifg+PPItJGaC4dFwu3WhTnrX0Zy1yaIP/dN/NiSDasmisCzU6etfhG3cWfRsNxkYS95JGA1CYuPcl10jHTsLaWM9pW3EQ+kb8rjvrty5sevQ7P7tOwqxc7I7blonHwwVnYZif4cPkPbnFUu2XdtZKQeBc+cdlZ9RXD7eV9tp68shnyHAOchiVN8GJDEoXb+LiS8U7cA+dnXb9AmlWM6aF0aDy/EgbjRozZbvyyi2lrG9WNZv326Xx3eDSGCTspiflErsjCWLs/3E3biU/eNqjJ4xfczUuL9/iLjvbNwQFNcyWj9h6rrKydZEHCtMXFM8t2Jd9lnsyv6z7c45OdfpsVFi5XcBnJ48rlTmGrL++ziWxVhTizFFsuiQ/vZ03Gq3HfX3R3WS86u0afr4AJcnJIHCY95euHGr+Vs/8VPD8vA6LAvrDk0UBWuTRSE51D/e7rG/+c7hWH3SKKzrX1+UE08WnQODEQAAAAAAOHkhIRMSQ+G3i4Lw+n6SNGuTReEOppde+lLzzne9tyqs6+9yuiiSRZnni0eltX8J4i85AAAAAACAQ6xNFgX97xLV9L9ndJEki0rFbb9poii7vXgo6x8dca6y26uTMvXYBgAAAAAAgIRkEQAAAAAAwIZJFgEAAAAAAGyYZBEAAAAAAMCGSRYBAAAAAABsmGQRAAAAAADAhkkWAQAAAAAAbJhkEQAAAAAAwIZJFgEAAAAAAGyYZBEAAAAAAMCGSRYBAAAAAABsmGQRAAAAAADAhkkWAQAAAAAAbJhkEQAAAAAAwIZJFgEAAAAAAGyYZBEAAAAAAMCGvelb3/LWBgAAAAAAgG2SLAIAAAAAANgwySIAAAAAAIANkywCAAAAAADYMMkiAAAAAACADZMsAgAAAAAA2DDJIgAAAAAAgA2TLAIAAAAAANgwySIAAAAAAIANkywCAAAAAADYMMkiAAAAAACADZMsAgAAAAAA2DDJIgAAAAAAgA2TLAIAAAAAANgwySIAAAAAAIANkywCAAAAAAB4yD728U9W1eqet00ni66fNUm519x8ql4PgCvsqRebu81rzfXaumP33GtNc/fF5snaOgBaIVYm5e7NZ2bWl33+Z5qbd7tVsUy0F6EtWROPZ4/ZC8e+jzFI2PfZp+vLh3LgfqeuK7ad+3L2XLE+kY+pQkk/w083o9W1cy9115Ift/iuDtkPcKLy2DKK+5mFujOx88mb97rl+zIXDwE4DT/y3g80n/ns55vX37gdhddhWa3unNu3b0e1daW3vf09zbt/9P1ROGaZKArL+vWhbm0f52G7yaJdhyDtJLSdgCs6mQjAtFXJonYweTSDwDB4lSwCmLGL22mc7JIcQxyP7/eTf2WfP7xPY35MfBRxd5gsPDQeLxxzXyeUdcmiITFTJkqKY7aTn/Nt3/R1PdPcPEuWLewrnNP0RG1oV9ddY5oUGn03w3W3deYniIHTVPz/X8b9NXUX4nV8n8bIGA/XxjQAroq/9F3/ZUwM3br1e80HPvizw/LwOiy7/txvxjrpNnPWJIvC/u/d+4P475y+Tm0f58Fj6Ab3M5AB4OjFQeD8hNmeZBHAVZcmL/IEQ7AQ54s2Y9h+RTxePOaQfFkz/thPeMbJyyJZNJrQXNj3qusqJlNL6ec9tuYaO+Gczl4rvqfx91b7HIANGGLoftk47nYW6i7F67WxFYCrKySBXn75y81TH/lofP/Xv+ftw1094XVY9rFP/HKsc2jCaE2yKBwjTQKF9/1x0juJQp3+fC7CBpJF+79MC2V+YKjRB7j62kFeX85ujpNFcWDYl34AGNuBtOy3iQPFofTLx3/VHPebDiiLSbh8P/m2fd3rXZ24rti+Pe99W5Xub3qiDmBL0tjcvs77/+PYnalMLA7L0/g+ac0x72/SsZokKcYybftQuY7SAddVHi9v62rXmyiSb7l22/FEbbiOfMI2yCd12/XaPtieWgyMyyqxbL7ucrwu9zt1HACuvpAE+of/+MPxdfj3ja/ejomjILxO14W66bZT1iSLgvCouf51SEz1j75Lk0hpnYtw4smibsIwHdzcrDXstYEKAFdPOXnUxfd0ouq515JBYVl/PDkVJrrOyv117UU+AA3r7jV3k9+fCBNb2WAzmzArjh0nKNNz6ZZ1A9JqIirZ35O79m1xUhDgxOWxthLTd9LYnCvbhMQBSZXWmmOGuueULAqyP3qYStAUpq4r2Vd53nl71Lez+1K2ofnq9LzGY7D95zT9Ofal/h0Cpy7GgTIGTsSy+brL8bptU9KyPmYDcPx+5Vd/PQqvw9084VFv6d1D5bLnnv/Nof6ctcmikJTqX08li9I6F+G0k0UHDeraDsJyPQCOXi3uz/5Vcz4gnJqcSmWTdOm+w+vd8rC/dvs2edQOKCf2m55veF2eZ7e+vduoss6AFWAQJwWzuLg8ETjokxrlpGKv1r5UrThmrHtOyaKyDam1KTUHXFeegFuw0DbF72jqeNm5lJ9jm1jaf4ble2ArYhyZTAAly3bm6y7H6xj/0v12bcWoTw/AlRZKnwgKCZrabwKFZX3yJjwGLpSyTmltsih9xFwtWVQ+qu4inHSyqDqQSsXBjEEGwKmoxv0yWdTF/qwM21QGjf0EYloqk1nh2HG7sP+wv+y4ExOC8Vy6OsPAtVzfltqgtJ3Aa4tBK7BdbSweTxS2CYU8Po6TDH0snY2jtRhdtg+xLTnsmK1a29BdS19G11Rr6+r7ryeoCrXrGpk6/5qFuvEzq7SHo+X79jW+T9vLbJsDk1jAyaj19+Oyg+JlWnc5Xtf2W9snAFdbuEvo+nO/GV+HpFG4e6e8syg8RaZfFupexJ1Fn/3cvxoSRLVkUXgf7mrq61+E008WTQ1+pgYqAFxZ1bifTTAVk087+V8cluvHk17lMfrJuOtnfZuy20dYH447ud9OOklXm7Drl8VrmGmzltYDnKz55MT4r8pDPE7iZYyfByQcajF6wuIxF5fPG09U1j+D804WjdqwqvnvY2oMFq9pqgztoGQRsFOJB5PxbqHuUryujS3G2wBwCl7+Uv6bReG3gZ78yEej8Dr7zaJd3XTbKWuTRSFB9IEP/uzwukwWhXVheV//ImziN4vSTkP/m0UaeIATFCeO0gmtth2YTBZ19fftQbF+NOnV7S8dNMaJtvBbRf2ysE14n+6nnwhLB6vFsWoTdsmydvt08PpaMtkW9rV+whHgyqtMBI7XT038LSQ2UrUYPWX2mKn7i91xf8U4ZtTGFOcwqXZdu7Zx/1t9433HcVTyGT6ZHKOtmxz3qd36bl3/eZeff31MVrbH7fv9dzW3LXDainhQJKHzGDVfdylel+/HYw0ATkW4aygkgT728U/G9+GRbyExEwyPhtutC3XSu47mrE0WPfWRjw7JoFqyKCwLdfr6F+HEk0VB2znoS9+oxw5EpRw0WATgeMVBX192g7/nwqCunEDrym7wdzO0B8lkUzvRFUq3TZ9QiuW15mY5aBxNYI0n1vLl+5INNGsTdsWyfvt2u7x9034Bm5TF/KRUYmcsWZztEg6VMpoIrMXoGdPHTIU4nkxaHijuu5IkmW1jpkxcV76vvD0rk0X5Z1i0fVkbuivZea9JFu2XDWXF9wGcmCy25HE0j1HzdYO5eF3G1VAOiq0AXEkhCRQe83bz1ovN+//2zwzLw+uwLKw7NFEUrE0WheRQ/3i7t739PcOx+qRRWNe/vigbSBYBAAAAAADMCwmZkBgKv10UhNf3k6RZmywKdzC9/PKXm3f/6Purwrr+LqeLIlkEAAAAAABwTtYmi4L+d4lq+t8zukiSRQAAAAAAABsmWQQAAAAAALBhkkUAAAAAAAAbJlkEAAAAAACwYZJFAAAAAAAAGyZZBAAAAAAAsGGSRQAAAAAAABsmWQQAAAAAALBhkkUAAAAAAAAbJlkEAAAAAACwYZJFAAAAAAAAGyZZBAAAAAAAsGGSRQAAAAAAABsmWQQAAAAAALBhkkUAAAAAAAAbJlkEAAAAAACwYW/65ke/rQEAAAAAAGCbJIsAAAAAAAA2TLIIAAAAAABgwySLAAAAAAAANkyyCAAAAAAAYMMkiwAAAAAAADZMsggAAAAAAGDDJIsAAAAAAAA2TLIIAAAAAABgwySLAAAAAAAANkyyCAAAAAAAYMMkiwAAAAAAADZMsggAAAAAAGDDJIsAAAAAAAA2TLIIAAAAAABgwySLAAAAAAAAHrJfeOYTVbW6523TyaLHb9xt9uWsuVapA8AV98St5s5VjfHPnjXNnVvN47V1ALRCrEzKnRtPz6y/27zwRLLu0aebF+50q2KZaC9CW7ImHs8esxeOPbVuRtj3q8/Xlw/lwP1OXVdsO/fllWeL9Ylrr3aVhjL+DA8bdx3yXTzfvNKtDWX0XQMbsSYWLNSdiZ157GrLXDwE4DT80A//WPPbv/O55iuvvxGF12FZre6c27dvR7V1pcf+5jubd77rvVE4ZpkoCsv69aFubR/nYbvJot0A6JWkkxAHObVBFwBX26pkUTuYPJpBYBi8ShYBzNjF7TROdkmOIY7H9/vJv3bib98mhPdpzI9jgiLuDpOFh8bjhWPu64SyLlk0JGbKcUtxzHbyc77tm76up5sXXk2WLewrnNPcRG3tM61Z/C7K7xbYqDaxPMSd2diwULeInWW8ju/TOBTj4bq4DcDV8ZZv/+6YGLrxhd9tfvx9f2dYHl6HZdc+9Xysk24zZ02yKOz/7r178d85fZ3aPs6Dx9B1Rp0AAE5DHATOT5jtSRYBXHVp8iImHLLEykKcL9qMYfsV8XjxmEPyJSw/dNJxP+EZxy1Fsmg8lpnf96rrKiZTS+nnPbKqDS5UvovJ4wDbMcTQ/bJx3O0s1B1vl8frtbEVgKsrJIFeeulLzYf+6T+L79/6Xzw23NUTXodlv/DRX4p1Dk0YrUkWhWOkSaDwvj9OeidRqNOfz0XYQLIof5xBfWDY1jmayUEAHkA7yOvLKzfGE1VxYNiXfgAYJ6XSst8mDhSH0i8v/lJxJ+43HVAWk3D5fvJt+7rXujpxXbF9e977AWq6PxNoAEEam2t9/HHszlQmFoflaXyftOaY9zfpGGN/OSlaJHTa9qFyHaUDrqs8Xt7W1a53r3qug3bbyfXZd2GCFmjV4kpcVoll83WX43W536njAHD1hSTQT/+Dn4uvw7+vv/7VmDgKwut0XaibbjtlTbIoCI+a61+HxFT/6Ls0iZTWuQgnnizqJgzTwc2NoqGPxcAD4DS0cX8/IddNRKUTZs+eJYPCsn77Phs0PpE+tjSf2MoHoGHd3eZO8vsTYUItG2xmE3fFseOkWHou3bJuQFpNRCX7e3zXvi1OCgKcuDzWVmL6Thqbc2WbkEji8WhdZs0xQ91zShYF2R89pO3NjKnrSvZVnnctWZSW9Nrb634+q7PfX96m5orvIp7P7pq6trItB14jcFJiDCrjxkQsm6+7HK/3c0Z9MXcEcIp++Z//WhReh7t5wqPe0ruHymXPfuo3hvpz1iaLQlKqfz2VLErrXITTThYdPKibG6gAcGXU4n4/wZQuS6QDwqlJvlQ2SZfuO7zeLQ/7a7dvk0ftgHJiv+n5htfleXbr27uNKusMWAEGcVIwi4vLE4GDPjkyNR6otS9VK44Z655TsqhsQ2ptSs0B15Un4BYUbdPoO+k+57l2tvpdVJbFfR/0nQCnJP6/X4uBlXgwX3c5Xsf4l+73kBgGwJUTSp8ICgma2m8ChWV98iY8Bi6Usk5pbbIofcRcLVlUPqruIpx0sqg6kJoSG32TbgBXWTXux/heTqAVZdimMmjsJ6jSMgwa9/XDseN2Yf9hf9lxJyYE47l0dWqD3ORca4PSdgKvLQatwHa1sXg8Udj+QVgeH9tlaeKmj6WzcbQWo8v2IbYlhx2zVWsbumvpy+iaam1dff/phOek2nWNTJ1/TV63dg5z5zX5XZRt+dQy4OSNY2C37KB4mdZdjte1/db2CcDVFu4SuvapNraHpFG4e2d0Z9Hd/Z1Foe5F3Fn0O//j54YEUS1ZFN6Hu5r6+hfh9JNFi4OfjsEGwJVXjftpQiZJ7vTr8784LNePJ8jKY/STXtde7Sf8dvsI68NxJ/fbSSfpahN2/bJ4DTN/0LC0HuBkzScy8hgfhHicxMsYPw8YA9Ri9ITFYy4unzeeqKx/BnNJmcFB11WbUJ1SmWjNznXmvGa/i8pnZfwG21SJFWviSlp3KV7XxhbjbQA4BV/8Yv6bReG3gR5/4ukovE7XhbrptlPWJotCgujH3/d3htdlsiisC8v7+hdhE79ZlHYa+t8sevzGWTLYaAc1GnyAK677K+/9hFbbDkwmi7r6+/hfrB9NwHX7SweNcaIt/FZRvyxsE97nE2txsJkNVotj1SbskmXt9ungNW3Hwr7WTzgCXHmVicDx+qmJvzLGz6jF6Cmzx0zdX+yO+yvGLaM2pjiHSbXr2rWN+9/qG+87TpQmn+HjyTHauslxYzubvM/OKx2DLX8X+QRtuu24LnDK2j70EC+KOJPHqPm6S/G6fN+PHdI+PgCnIdw1FJJAv/DMJ+L78Mi3kJgJhkfD7daFOuldR3PWJos+9E//2ZAMqiWLwrJQp69/EU48WRS0nYO+lBOAQzHQADgNcdDXl93g79kwqCsn0LqyG/y9UPx1YDvRFUq3TTcobMtZ80I5aCwHocM+xpOX+323JRto1ibsimX99u12eft20GQnwKnJYn5SKrEzlizOFuOBpIwmAmsxesb0MVMhjieTlgeK+66MXWbbmCkT15XvK2/PymRR/hmO2768HU2vN034HPZdxGP3xfgNtmsyrpQxar5uMBevy7gaykGxFYArKSSBwmPeXrhxq/lbP/FTw/LwOiwL6w5NFAVrk0UhOdQ/3u6xv/nO4Vh90iis619flA0kiwAAAAAAAOaFhExIDIXfLgrC6/tJ0qxNFoU7mF566UvNO9/13qqwrr/L6aJIFgEAAAAAAJyTtcmioP9dopr+94wukmQRAAAAAADAhkkWAQAAAAAAbJhkEQAAAAAAwIZJFgEAAAAAAGyYZBEAAAAAAMCGSRYBAAAAAABsmGQRAAAAAADAhkkWAQAAAAAAbJhkEQAAAAAAwIZJFgEAAAAAAGyYZBEAAAAAAMCGSRYBAAAAAABsmGQRAAAAAADAhkkWAQAAAAAAbJhkEQAAAAAAwIZJFgEAAAAAAGzYm771LW9tAAAAAAAA2CbJIgAAAAAAgA2TLAIAAAAAANgwySIAAAAAAIANkywCAAAAAADYMMkiAAAAAACADZMsAgAAAAAA2DDJIgAAAAAAgA2TLAIAAAAAANgwySIAAAAAAIANkywCAAAAAADYMMkiAAAAAACADZMsAgAAAAAA2DDJIgAAAAAAgA2TLAIAAAAAANgwySIAAAAAAICH7GMf/2RVre55kywC4LQ99WJzt3mtuV5bd+yee61p7r7YPFlbB0ArxMqk3L35zMz6e83Np5J1b3mmuXm3WxXLRHsR2pI18Xj2mL1w7Kl1M8K+zz5dXz6UA/e7eF3d53PItU+d186TN++1pxXLzGfc1ehL/l1+ujnrlocy+p6BDVkTDxbqzsTOPHa15ey5ZFsATtKPvPcDzWc++/nm9TduR+F1WFarO+f27dtRbV3pbW9/T/PuH31/FI5ZJorCsn59qFvbx3mQLALgtK1KFrWDyaMZBIbBq2QRwIxd3E7jZJdwGOJ4fL+f/Gsn/vZtQnifxvzroREo4u4wWXhoPF445r5OKOuSRfH8QimTMsUx28nP+bbvoOvqJ1EXrn3yvPp1h3x28Rqmz/n6WbKuvF5gQ9ok9pD06eJpvf++ULeIJbU2IotfMSaKPQCn6i99138ZE0O3bv1e84EP/uywPLwOy64/95uxTrrNnDXJorD/e/f+IP47p69T28d5kCwC4LQtTD7lJIsArrqQnOgnBmOiIktgLMT5os0Ytl8RjxePOSRywvJDJx33E55x8rJIyowmNBf2fdh1tXc+nZ2V+y7rTJ/Xqjb4KrfXwOUZYuh+2TjudhbqLsXrtbEVgKsrJIFefvnLzVMf+Wh8/9e/5+3DXT3hdVj2sU/8cqxzaMJoTbIoHCNNAoX3/XHSO4lCnf58LsIGkkXtAKYv2YAidhz6osEHOA3tIK8vZzfHk09xYNiXfgAYJ6nSst8mDhSH0i8v/lJxJ+43HVAWk3D5fvJt+7rXuzpxXbF9e9779irdX7YvgM1KY3P7Ok8ojGN3pjKxOCxP4/ukNce8v0nH6aRM2T5UrqM0c139ceK/ZVtU2aZ2XtVzHbSfy7D+4M94Z01d4KRMxpo1cSnWXY7X5X6njgPA1ReSQP/wH384vg7/vvHV2zFxFITX6bpQN912yppkURAeNde/Domp/tF3aRIprXMRTjxZ1E0YJp2D6ze7hj0OBJPBWXx/wIAKgCPWxv39hFw3EZXG91283w8Ky/rt+2zQ+NSLzVm5v65dyQegYd295m7y+xNhQi0bbGbtTHHs2A6l59It6wak1URUsr8nd+2bNgzYujzWVmL6Thqbc2WbkEji8WhdZs0xQ91zShYF2R89HDiumbqu5C6fcnJ0TbKove5Pd21xW/afQ96m9u3gUEbHaD/bWGrXD2xCjEFlDJiIZfN1l+N126akZX3MBuD4/cqv/noUXoe7ecKj3tK7h8plzz3/m0P9OWuTRSEp1b+eShaldS7CaSeLJgd1+V+LtO5vsAbAEanF/WTCK6vbSQeEU5N8qWwyLN13eL1bHvbXbt8mj9p2ZWK/6fmG1+V5duvbu40q67RbAIM4KZjFxeWJwEGfaJlKQtTal6oVx7zP8Uc1WVS2IbU2paZ6Xe1Yqb+GMlk0ZSpZlH0n3ec8ag9HikRSSRsImxXjSi0GVuLUfN3leD2KfwfHMACuklD6RFBI0NR+Eygs65M34TFwoZR1SmuTRekj5mrJovJRdRfhpJNF1YFU1A0+KkWjD3B1VeN+mtAJ4gRTUYZtKoPGfgIxLcOgcV8/HDtuF/Yf9pcdd2JCMJ5LV6c2yE3OtdY+xevtivYL2K42Fo8nCvOkR7osTdz0sXQ2jtZidNk+xLbksGO2am1Ddy19GV1Tra2r77+eoCpUrqucXI3Hq5xHaXxe9XM46LyCtI2sKM8T2IZarJmKU/N1l+N1bb+1fQJwtYW7hK4/95vxdUgahbt3yjuLwlNk+mWh7kXcWfTZz/2rIUFUSxaF9+Gupr7+RTj9ZFF1YDM1YAPgKqvG/WyyaZ/c6dfnk03l+nF7UR6jn/S6ftZP+O32EdaH407ut5NO0lUm7IZl8Rpm/oJ6aT3AyZrv148TCiEeJ/Eyxs/phMSgFqMnLB5zcfm88URl/TPo26d02cjoutr2aqqM2rFEbQK1tuyg8woWvpuD9wOclkpsmIwHC3XD67l4XRtbjLcB4BS8/KX8N4vCbwM9+ZGPRuF19ptFu7rptlPWJotCgugDH/zZ4XWZLArrwvK+/kXYxG8WpZ2G/jeLYqOfdRp2dQ8cAAJwpEaPhugnvfp4374f1vd/FT4M+Ir1owm4bn9pexEn2sJvFfXLwjbhfbqfiXYnPdZowi5f1m6fDl5fSyYYw77WTzgCXHmVicDx+qmJv/lEU6YWo6fMHjN1f7E77q+WlEk/h+IcJh1wXeX5x4nSyja182rb2eQ8svNqP/9+myefSr+Hrr1N2+d034deH3CC2vgwxO4izuQxar7uUrwu34/HGgCcinDXUEgCfezjn4zvwyPfQmImGB4Nt1sX6qR3Hc1Zmyx66iMfHZJBtWRRWBbq9PUvwokni4JuoNGV8cRdX2YGmQBcHXHQ15fd4O+5MKgrJ9C6shv83QyNRDIBtW8bum36hFIsrzU3y0FjOQgd9jFuV/J2pxhohvPK9jte1m/fbpe3bwdNdgKcmizmJ6USO2PJ4myXrKiU0URgLUbPmD5mKsTx9QmPuO8yKdMvT8pBk5kHXFfcb1JnVbIoyNrR9HrzZFH5XY7atWz9+s8NOCGTcaUSo2bqBnPxuoyroRwUWwG4kkISKDzm7eatF5v3/+2fGZaH12FZWHdooihYmywKyaH+8XZve/t7hmP1SaOwrn99UTaQLAIAAAAAAJgXEjIhMRR+uygIr+8nSbM2WRTuYHr55S837/7R91eFdf1dThdFsggAAAAAAOCcrE0WBf3vEtX0v2d0kSSLAAAAAAAANkyyCAAAAAAAYMMkiwAAAAAAADZMsggAAAAAAGDDJIsAAAAAAAA2TLIIAAAAAABgwySLAAAAAAAANkyyCAAAAAAAYMMkiwAAAAAAADZMsggAAAAAAGDDJIsAAAAAAAA2TLIIAAAAAABgwySLAAAAAAAANkyyCAAAAAAAYMMkiwAAAAAAADZMsggAAAAAAGDD3vTNj35bAwAAAAAAwDZJFgEAAAAAAGyYZBEAAAAAAMCGSRYBAAAAAABsmGQRAAAAAADAhkkWAQAAAAAAbJhkEQAAAAAAwIZJFgEAAAAAAGyYZBEAAAAAAMCGSRYBAAAAAABsmGQRAAAAAADAhkkWAQAAAAAAbJhkEQAAAAAAwIZJFgEAAAAAAGyYZBEAAAAAAMCGSRYBAAAAAAA8ZL/w0V9qfv6ZT4zU6p43yaJDPHvWNK8+X18HwHF74lZzpzlrrtXWHbvQ/ty51TxeWwdAK8TKpNy58fTM+rvNC08k6x59unnhTrcqlon2IrQla+Lx7DF74dhT62ZMjU0OOmZh8bq6z2e2zvPNK+1BY9l//vnytIy+o87jN+52NULJv4t8XSj38dkBJ2Iq7tQs1J2JneO40zSvPJtsC8BJeucP/1jzW7/92eYrX3kjCq/DslrdObdv345q60qPfe87mne8671ROGaZKArL+vWhbm0f50GyaMG1V7segWQRwNW0KlnUDiaPZhAYBq+SRQAzdnE7jZMx5idxPL7fT/61E3/7NiG8T2N+7PsXcXeYLDw0Hi8cc18nlHUJj8mxSXHMdvJzvu076Lr6SdTJOm0yaZh8LT//Ulw/cV7FOZffRTxfYzJgVdxZqFvEzjJex/dp/Itxal3cBuDqeMu3vzUmhm584XebH3/fTw3Lw+uw7Nqzz8c66TZz1iSLwv7v3r0X/53T16nt4zxIFk3adyoMTACusLmJqRHJIoCrLiQZ+onBmHDI+vELcb5oM4btV8TjxWMOSZGw/NBJx/mxyWhCc2Hfh11XOObd5pVXy30nhmvZLxtff6+9hoMmdIPaJG51v8CmrIk7C3WX4vXa2ArA1RWSQL//0svNh55o+6Pf9VceG+7qCa/DsvB4uJe++KWDE0ZrkkXhGGkSKLzvj5PeSRTq9OdzETaQLGoHHn3JBmmh0Y+dh77knYiegQnAVdIO8vryyo1xsigODPvSDwC7vzTcl/02sR0YSr98PLEV95sOKPu2pnuf7yfftq97rasT1xXbt+ddTJx1JdsXwGalsbmWnKgkJVJxbFAZExTxeNqaY97fpGN1bLLw1/GTZq6rP078t2yLuve1cynrD0bHaj+XdvvaZ5FP2objauuANXFnvu5yvC73O3UcAK6+kAT6e3//5+Lr8O/rr381Jo6C8DpdF+qm205ZkywKwnH61yEx1T/6Lk0ipXUuwokni7oJw6RzcO1G17DHgWCxrpzk69Q6GAAcozbu7yeTuomodMJsF//3g8Kyfj4xFT1xq3ml3F/XJuTtQ1h3t7mT/P5EOrEV62YTd8Wxu3Zpfy7dsq5dGrVRsf5+f4/v2rfFSUGAE5fH2kpM35lOOpRtQiKJx6N1mTXHDHXPKVkUZH/0cECiKJi6rrivdh/xeEmdtD2Kr8tzqe5zelI2bl8ku2rbxGMlpf4dAqfu8LizVHc5XrdtSlrWx2wAjt8n//mvReF1uJsnPOotvXuoXPbsp35jqD9HsujYzA3qwrpyEFUdpMwMyAA4LrW4n0x4ZXU76YBwapIvlbUJ6b7D693ysL92+zZ51LYpE/tNz7fWLnXr27uNKusMWAEGcVIwi4srEjcxnu/KVJ+/1r5UrThmrLs+jlfHJmUbUmtTaqrXlSdpymRRKn7mtXMp6y+dT3UcVkswdbrvq7oOOGkHx52d+brL8XoU/8QegJMUSp8ICgma2m8ChWV98iY8Bi6Usk5pbbIofcRcLVlUPqruIpx0smg2yVPtTNQHbLP7AeBoVON1HNSVE2hFGbapDBr7CcS0DO3Hvn44dtwu7D/sLzvuxIRgPJeuTq1dSs61NiiN19sVg1Zgu9pYPO7b15IN7bI0cdPH0tk4WovRZfsQ25LDjtmqtQ3dtfRldE21tq6+/3qCqlC5rnJyNR6vch7Duuxc6vWrE7aZ6c9i6ntZ3idwig6NO8PyybrL8bq239o+Abjawl1C155tY3tIGoW7d8o7i8JTZC76zqLf/p3PDQmiWrIovA/H7utfhNNPFk0MbKYHfOO/eNMZALgaqnE/JlzSpE0+KMwnm8r14wm48hj9ZNy1V/tJrt0+wvpw3Mn9dtK2qNYu9cviNVSSTWm9ufUAJ2sqEdMaJxRCPE7iZYyf4/7/SC1GT1g85uLyeeOxyXkmi9r2aqpU27Hi8xsf95DrrFzDxNisN/6cgU04KO50FuqO40ger2pjC7EH4DTVfrPo8Q99JPrKV964lN8sCgmiH3/fTw2vy2RRWBeW9/UvwiZ+syjtNJS/WbRf1w5Qao2+ZBHAFdH9lfd+Mquf9OoHie37YX3/V+FDjC/Wjyavuv2lg8Y40RZ+q6hfFrYJ7/NJtdiWZIPV4lhxP/lgNF3Wbp8OXs+Sibewr/UTjgBXXmUicLx+auKvnmSpqsXoKbPHTN1f7K6NTUZtTHEOkw64rvL840Tp8L5ty4bPMLarxXHjudS+o3z8VV5DPiH7dPP4aJ95OwtsxXzcWRWjFuJ1+X481gDgVIS7hkIS6Oef+UR8Hx75FhIzQfpouFAnvetoztpk0YeeeHpIBoV/y2RRWBbq9PUvwokni4K2c9CXclKu/R2IrkwkhGIHYWIdAEemm0Bqy27w92wY1JUTaF3ZtQMvFH8d2E5WhdJt0yeUYjlrXigHjeUgdNjHeGJsv++2ZAPNrl3a73e8rN++3S5v3w6a7AQ4NVnMT0oldsaSxdkuWVEpo4nAWoyeMX3MVIjjRWLlAHHflbHJbBsz5YDrivtN6uQTsTtZOzm+nnL7vTxZFMR996W4xmzdfXxuwAmZiTv3FaP6UsSqMq6GclBsBeBKCkmg8Ji3F27cav7WT3xwWB7u6AnLwrpDE0XB2mRRSA71j7d77HvfMRyrTxqFdf3ri7KBZNGElQM+AAAAAADgdIWETEgMhUfRBeH1/SRp1iaLwh1M4c6ld7zrvVW//9LLw11OF0WyqLYOAAAAAADgPqxNFgX97xLV9L9ndJEki2rrAAAAAAAANmK7ySIAAAAAAAAkiwAAAAAAALZMsggAAAAAAGDDJIsAAAAAAAA2TLIIAAAAAABgwySLAAAAAAAANkyyCAAAAAAAYMMkiwAAAAAAADZMsggAAAAAAGDDJIsAAAAAAAA2TLIIAAAAAABgwySLAAAAAAAANkyyCAAAAAAAYMMkiwAAAAAAADZMsggAAAAAAGDD3vStb3lrAwAAAAAAwDZJFgEAAAAAAGyYZBEAAAAAAMCGSRYBAAAAAABsmGQRAAAAAADAhkkWAQAAAAAAbJhkEQAAAAAAwIZJFgEAAAAAAGyYZBEAAAAAAMCGSRYBAAAAAABsmGQRAAAAAADAhkkWAQAAAAAAbJhkEQAAAAAAwIZJFgEAAAAAAGyYZBEAAAAAAMCGSRYBAAAAAAA8ZB/7xC83v/jxT47U6p43yaI5z73WpOXuzWfq9QA4Xk+92NxtXmuu19Ydu9AO3X2xebK2DoDWUp89W3+vuflUsu4tzzQ373arYploL0JbsiYezx6zF449tW5G2PfZp+vLh3Lgfhevq/t8Zut8ujlrDxrL/vPPl6dlalx1PdtRecziu6p9BsBGTMWdmoW6M7HzyZv3uuX7cvZcsi0AJ+lHfvQDzWc++/nm9de/GoXXYVmt7pzbt29HtXWlt/3ge5p3v+f9UThmmSgKy/r1oW5tH+dBsmjSrkORDlDiZKOOAcCVsypZ1A4mjybWh8HrmslJgM1Z6LPH9/vJv3bib98mhPdpzI/JiiLuDpOFh8bjhWPu64SyLlk0JFPKRElxzHbyc77tO+i6+knUyTptAmeYfC0//1JcP3Feu2Pttyv2uxOvfbju8XpgK9bEnYW6ReystRFZ/IsxcV3cBuDq+M6//D0xMXTz1u81H/jgzwzLw+uw7Ppzn4510m3mrEkWhf3fu/cH8d85fZ3aPs6DZNEKYYBiQAJwxcxNTI1IFgFcdWmfPU8wBAtxvmgzhu1XxOPFY8bJxnCMsPzQScf9hGecvCySRaMJzYV9H3Zd4Zj3mrOzct+J4Vr2y8bX32uv4dA2Nt/P+HurfQ7ABqyJOwt1x9vlsWZtbAXg6gpJoC++/OXmyY98NL7/a9/zg8NdPeF1WBYeD/fyl758cMJoTbIoHCNNAoX3/XHSO4lCnf58LsIGkkXtoKQv2SAtNPqx89CXvBORK/4iBYAj1Q7y+nJ2c5wsigPDvvQDwO4vDfdlv00cKA6lXz5uF+J+0wFl39Z07/P9FG1KV/d6VyeuK7Zvz7v868e2aJ8AgjQ215ITC336ODaojAmKeDxtzTHvb9KxmiRZ+Ov4STPX1R8n/lu2Rd372rmU9QejY7Wfy+haovFnk0/qtm29tg+2Z03cma+7HK/L/U4dB4CrLySBfvYf/Xfxdfj3jTdux8RREF6n60LddNspa5JFQThO/zokpvpH36VJpLTORTjxZFE3YZh0Dq7f7Br2OBAs1iUDn35ZL3YKDhlwAfAQlZNH3URUGr938X8/KCzrt++zQeNTLzZn5f66tiMfgIZ195q7ye9PhHYlG2xm7Uhx7K5d2p9Lt6xrl0ZtVKy/39+Tu/ZNGwVsXR5rKzF9J43NubJNSCTxeLQus+aYoe45JYuC7I8eDhy3TF1XcodVPF5SJ22P4uvyXKr7nJ6UHY3HYqmf/3597fMEtuDwuLNUdzlet21KWtbHbACO36/86q9H4XW4myc86i29e6hc9tzzvznUnyNZdGzmBnVhXTkIKf4ir9cOSnQKAI5eLe4nE15Z3U46IJya5Etlk3TpvsPr3fKwv3b7NnnUth0T+03Pt9Yudevbu40q67RNAINxn31F4ibG81C5mFTs1dqXqhXHjHXXx/FqsqhsQ2ptSk31uvLETpksSsXPfHIitlh2yPkM2s9x/5m15zT9HtiKg+POznzd5Xg9in9dWzHq0wNwpYXSJ4JCgqb2m0BhWZ+8CY+BC6WsU1qbLEofMVdLFpWPqrsIJ50sqg6ketXORDlgazsPtU4HAMenGvfLZFGcsCrKsE1l0NhPIKZlaBf29cOx43Zh/2F/2XHL9qUTz6WrU2uXknOtDUrj9XbFoBXYrqk+e570SJelSYY+ls7G0VqMLtuH2JYcdsxWrW3orqUvlXHIuK2r77+eoCpUrqucXI3Hq5zHsC47l3r96oTtkrKNLJNNZfsObMKhcWdYPll3OV7X9lvbJwBXW7hL6PpzbWwPSaNw9055Z1F4isxF31n0mc/+qyFBVEsWhffh2H39i3D6yaKJgc30gK8fcEwN6gA4VtW4n00w7ZM7/fp8AqtcP24LymP0k3HXz/oJv90+wvpw3Mn9dtK2qNYu9cviNcz89fnSeoCTNd9nHycpQjxO4mWMnwckHGoxesLiMReXzxtPVNY/g759SpeNjK6rba+mSrUdKz6/8XHv7zqzc6t9T5JFsE0HxZ3OQt2leF0bW4y3AeAU1H6z6MNPPRO9/vpXL+U3i0KC6AMf/JnhdZksCuvC8r7+RdjEbxalnYbyN4v269pB1tDo1wYkABy37q+895NZ/aRXH8/b98P6/q/ChwFfsX40AdftLx00hvYi/lZRvyxsE96n++kGm1m7Uhwr7icfjKbL2u3TwetrycRb2Nd9TMQBXHVLffa4fmribz7RlKnF6Cmzx0zdX+yO+ysmKkdtTHEOkw64rvL840Tp8L5ty4bPMLarxXHjudS+o3z8df1s3EaW7e/k2A3YkPm4sypGLcTrUfwejTUAOBXhrqGQBPrFj38yvg+PfAuJmSB9NFyok951NGdtsujJj3x0SAaFf8tkUVgW6vT1L8KJJ4uCtnPQl3JSrv0diK6kg43YaaiUtKMAwPHJ4vdu8PdcGNSVE2hd2cX0m6GRSOJ/O+EWSrdNn1CK5bXmZjloHE1g9fsYT4zt992WbKDZtUtZG1Ms67dvt8vbt/T4AJtxQJ89i71ZnO0SDpUymgisxegZ08dMhTheJFYOEPddSZLMtjFTDriuuN+kTj4Ru5O1k+PrKbffKxM+S+1avn7pvIETNhN37itG9aWIK2VcDeWg2ArAlRSSQOExb1+4+WLz/r/d3uEThDt6wrKw7tBEUbA2WRSSQ/3j7d72g+8ZjtUnjcK6/vVF2UCyaMLKAR8AAAAAAHC6QkImJIbCo+iC8Pp+kjRrk0XhDqZw59K73/P+qi++/OXhLqeLIllUWwcAAAAAAHAf1iaLgv53iWr63zO6SJJFtXUAAAAAAAAbsd1kEQAAAAAAAJJFAAAAAAAAWyZZBAAAAAAAsGGSRQAAAAAAABsmWQQAAAAAALBhkkUAAAAAAAAbJlkEAAAAAACwYZJFAAAAAAAAGyZZBAAAAAAAsGGSRQAAAAAAABsmWQQAAAAAALBhkkUAAAAAAAAbJlkEAAAAAACwYZJFAAAAAAAAGyZZBAAAAAAAsGFv+uZHv60BAAAAAABgmySLAAAAAAAANkyyCAAAAAAAYMMkiwAAAAAAADZMsggAAAAAAGDDJIsAAAAAAAA2TLIIAAAAAABgwySLAAAAAAAANkyyCAAAAAAAYMMkiwAAAAAAADZMsggAAAAAAGDDJIsAAAAAAAA2TLIIAAAAAABgwySLAAAAAAAANkyyCAAAAAAAYMMkiwAAAAAAAB6yX/joLzU//8wnRmp1z9v2kkVP3GruNGfNtdq6I3Tt1aZpXn2+um5K3CaUO7eaxyvrJ4XPZm6bZ8/q5xKWD+Vu88ITxfqi3ivPVtYBXJQrFvczIW6ujeUAW5P1RXdh88bTM+vLvurTzQt3ulWxTLQXS/3k0kH943Dsmb7zlLDvmfFBGAsc3N+uXNcwlijL0vVXz+v55pVu86FMnvv8d/H4jbvd8r7cx2cHnIbYv9+XWszLY8ZcPJkfJ8zXLeJWFt8q8U+/HuBKeOcP/1jzW7/92eYrX3kjCq/DslrdObdv345q60qPfe87mne8671ROGaZKArL+vWhbm0f50Gy6MitThbFgen66xs6QBOdl2HQWJ5L/Dz3A7V2P7Xj7ztRkkXApVoV99tB3dHEqRDTDSoBZuzidhonuwnEIY4v9FXD+zTmxz5vEXeX+skjh/SPu/Ncm/CY7JNH+4nJQ9qxw6+r7cfP7XP6vMI5HXaNS99FPN814yLgNC3E+aAWywfFnMmD1I3vh7jUxuD9HyyU44puTkQcAzhab/n2t8bE0I0v/G7z4+/7qWF5eB2WXXv2+Vgn3WbOmmRR2P/du/fiv3P6OrV9nAfJohMTB1GLA77c0MGpTkq2HZrQ4akN0PLOUVB2iDph36+e1dcBXKRVcX8ihj0skkUAq4X+aT9Zd3BftVe0GfP95LrFYw6Tj2H5ocmi+T75frJ0ObETrLmu+STNwnmtusZC8V3MnwewFTEWFHErjfvzff99zBqWDfEzrRcs1K1sl5/buL0RxwCOV0gC/f5LLzcf2vWnw/vv+iuPDXf1hNdhWXg83Etf/NLBCaM1yaJwjDQJFN73x0nvJAp1+vO5CBtIFrUNdF9euTHuOMTBUl/STkc3eLoWGvSuxI5C7BT0peiExMFfV4ZOQD9oa//tS9bpmJAPNvvBVnpN++Nn17Erw/7TcwplqnOyMFgcd2z660rrVTpUxXkvDV4BHsx9xv0stoey3ybGv6H0y8fxLu630o707/P9FLGyaHPiumL79rz3g9J0f3ncBdiqNDYf2ldNxH5z0b/vl6fxfdKaY/Z95HTZsvnJxtrxZyxe1/gcR21dp3pesW2tfJ5Re66zY5Nk23BcbR0QY00Rg9L4Mx8ja3F3ap5ioW4tfmZxq9zv1HEAOAYhCfT3/v7Pxdfh39df/2pMHAXhdbou1E23nbImWRSE4/SvQ2Kqf/RdmkRK61yEE08WtY3xflDRDUjSAcuuMS8b76F+bOjH7/cdgmKAU/5lybO3utf9cZN13aTkUkchDsaGjk57fuVEZdoRGnWc4jmnHZyZQVmoWxn49cadrnpnpxzI7d/rHAEX7QHjfi1O7eL1K+X+uliYx8Ww7m5zJ/n9iTQexrrpeZTHLtucflkXl2N7MIrv+/09fuNWsm+Abcpjbb3vWfZV98o2IbHQT95bc8xQt5yIXDbuk6fadurg/vbCddWONWqPOtXzmvlDjNlxSeW7iMdNSv07BE7eaC6ljRd9LGnj7fPdGKAtQ7wo52yiibi5UDfGvDIWxm3yNigrk7EbgIfpk//816LwOtzNEx71lt49VC579lO/MdSfI1l0bGqDn6zxHssGcsVEXG3wlw2KRp2WXtuhKAc0ccCz0FnI64yPX15j3mGpH3fyM1g9WKycz87oMxz2Wa8PcG4eNO4fEKfGcb/bd3i9Wx72124fYnA/wJzYb3q+4XV5nt369m6jyrr7mGQEOFWx35zFxQP6qr2uHz/ZN6+1L1Urjhnrro/j4z55amLSc8rsdS23ian582rF72jpc1z6LoKuzsHXCZyW2A/uy1nzQhJ/Rm1BGi/i6zLuTsTNhbr53EsnbtP32ccx9KAYCMClC6VPBIUETe03gcKyPnkTHgMXSlmntDZZlD5irpYsKh9VdxFOOllUHbBkjfdO1snoSr/NaPA0buxHHYRkf/sBYb3zcfCAaqhTGVAW55ifz5pOz87oenPj863tv10Wr310nHUDToC1Hjju1+JU3L4oQ6zc1w/HjtuF/Yf9ZcetxO8gnktXpxaDk3Otxc54vV0RW4HtamPxuB+70FftlvWxdDaO1mJ02T7EtuSwY7ZqbUN3LX2p9M2rbd2gdvwZtetK16Xt54L58+qMxge5g76LTj5OArYsxIM+xqavx+un4+447izUney7p/3/cr+1fQLwsIW7hK492/YrQ9Io3L1T3lkUniJz0XcW/fbvfG5IENWSReF9OHZf/yKcfrJoZeOdDTpGjf+4fvUYQTd4bOvWB221TkwpO59ax6I4x/x8Jgam2QRmotbZSdQGgPn5Bftz7Ad71TJzHID79cBxf7R+HEfLY/Sx/NqrfXze7SOsD8ed3G8njbu1GNwvi9cwM7BcWg9wsqYSMa25vmp8H+PnAQmRWoyesHjMxeXzan3yvfNLFvXtW7l8yvx5deaSRYd+F53x5wxsUx5La7FoH88qbcbU/MhS3Uo8y49d6f/PxUAAHqrabxY9/qGPRF/5yhuX8ptFIUH04+/7qeF1mSwK68Lyvv5FOO3H0MWGOG2c28Z6ctKwqz807qPB07ixzyYNd/X369KBWvs6G/zEwdByJyEfBOWdoKg4x+x8+vXZNpUOT1p3YrAYVAeAxf5Hx89UOksA5+lB4/4oTpUxs9tfGWfjbxX1y8I24X0e72J8zAaixbFqMThZ1m6fxtuzJLaHfS23KQAnJ/ZF09hamO2rzvSLS7UYPWX2mKn7i91xf2WffNBeU9r+zJq8rrI93Ivjk8o21fN64umkXntu5effbrP0Xez2k35O8TNecZ3AyRoljsuETC0mJ+1Gtn0xlpitm8Ww8L6Mm+M4OhU/AXj4wl1DIQn08898Ir4Pj3wLiZkgfTRcqJPedTRnbbLoQ7u+c58MCv+WyaKwLNTp61+E004WBd1Aoi27DsKzofFPBpTp+l2j/ULa+I8GT+PGPh/8dZ2FvhSdiFeebbdvy2EDw7wzErYvtivOMT+fpE5SJgdho+vNVQeA/fK+zGw/N+gEODdZzFsZ93f2Ma3bpk8oxdI9Ez2LdW1sS2Nru4/kmNnyfcniYS0GF8v67dvt0jYlPz7AZmQxPymV2BlLFmeLvntSRv3VWoyeMX3MVKVvf4C470qfvNWPO2rrKqauq5xsTUxNdlbPK2tDdyVbn060Ln8X8bhDWf+5Aaci7wNX42EWe8bxIosn6fZFsmi2bpSfSx57i/MMZUU7AsDlC0mg8Ji3F27cav7WT3xwWB7u6AnLwrpDE0XB2mRRSA71j7d77HvfMRyrTxqFdf3ri3L6yaKjsHLQBgAAAAAAXKqQkAmJofAouiC8vp8kzdpkUbiDKdy59I53vbfq9196ebjL6aJIFl0KySIAAAAAANiCtcmioP9dopr+94wukmTRpZhPFmWPqUiK5BIAAAAAAHDRJIsAAAAAAAA2TLIIAAAAAABgwySLAAAAAAAANkyyCAAAAAAAYMMkiwAAAAAAADZMsggAAAAAAGDDJIsAAAAAAAA2TLIIAAAAAABgwySLAAAAAAAANkyyCAAAAAAAYMMkiwAAAAAAADZMsggAAAAAAGDDJIsAAAAAAAA2TLIIAAAAAABgwySLAAAAAAAANuxN3/qWtzYAAAAAAABsk2QRAAAAAADAhkkWAQAAAAAAbJhkEQAAAAAAwIZJFgEAAAAAAGyYZBEAAAAAAMCGSRYBAAAAAABsmGQRAAAAAADAhkkWAQAAAAAAbJhkEQAAAAAAwIZJFgEAAAAAAGyYZBEAAAAAAMCGSRYBAAAAAABsmGQRAAAAAADAhkkWAQAAAAAAbJhkEQAAAAAAwEP2sU/8cvOLH//kSK3uedtesuipF5u7zWvN9do6AE7PVY77z73WNHdfbJ6srQOgFWJlUu7efGZm/b3m5lPJurc809y8262KZaK9CG3Jmnh8HscszV7np5uzbvlQzj6drJ8wcV3XRzubOccH+vxTC59LbM+Tcsj1AScqj3mjuJNZqDsTo568ea9bvi9nzyXbAnCSfuRHP9B85rOfb15//atReB2W1erOuX37dlRbV3rbD76nefd73h+FY5aJorCsXx/q1vZxHiSLjkbbgTmPjkfs0JhcBGitivvnF4vPRRi8iucAM3ZxO42TXUJhiOPx/X7yr53427cJ4X0a82OSpIi7w2ThofH4HI45tnCdsf2aS8SMzV1XOKf5ydfeus+/nZStt8nzn0tIJKXbte31YecInJY2sTz8/z+Kh6mFukWMqsXrLEbGGLYu1gJwdXznX/6emBi6eev3mg988GeG5eF1WHb9uU/HOuk2c9Yki8L+7937g/jvnL5ObR/nQbLoaLQDnnoHZ51RhwZgy1bF/fOLxedCsghgtTTRERMO2R0oC3G+aDOG7VfE4wc95qHS62yPcfgE5tJ15fteJ912PC5ZcZ4Ln0vct7uLYHsqSedx3O0s1B1vl8frB4phAFwpIQn0xZe/3Dz5kY/G93/te35wuKsnvA7LwuPhXv7Slw9OGK1JFoVjpEmg8L4/TnonUajTn89F2ECyqG3s+3J2czzoiB2EvqQdgW7wdD10ELoSBz5x4NKXYgATOyNdGTod7V+znD2XP1phGIBl+wtlv8/YORlKfqx0Xb+v7Fp25X4HeQBX133G/dWxuPhLxZ2430o70r/P91PE6KLNieuK7dvzLv/6sS3iPUCQxua+Dz61Pl3eiX35vM0YlqfxfdI5HnNWsc/7TDjVr6t2DXujti5TO6+y3crb0cmEz8LnEs9jalvgZMU4Uvy/H5dV4tJ83Vqsy2NYud+p4wBw9YUk0M/+o/8uvg7/vvHG7Zg4CsLrdF2om247ZU2yKAjH6V+HxFT/6Ls0iZTWuQgnnixqJwz3A7NuQJIOOnaDkH3noKgfByjj9/vOQTHAKQZD3/rci93r/rjJum5Ssjx22lGJHZHkXLOOSTF4evLmi/V6AJvygHG/EotDvD4r99fF/RhvhwFoWHevubvTx/owkdXvu4zpi21Ov6yL59VE1EQ7ALBVeaytxPSdNDbnyjYhkcTj0brMOR5zxqhN6cYW+5K2NzOq19W3nfuSXs+oPUqM27qd7NzSdXmbmlv4XGIbmIytgM2IMaiMGxMxer7ucrxuY1paxB2AU/Qrv/rrUXgd7uYJj3pL7x4qlz33/G8O9edIFh2bWochDlamB0/ZQC4OQtK6485E7Dz0nY9RAqjXDoTKwU7ecSn3Xem4pOc+M0CK5zQxgAM4aQ8a9ycGjalx3O/2HV7vlof9tdu3yaM2Tk/sNz3fUZuzX9/ebVRZZ8AKMIh96ywu1mNvHvc7XT9+NKnYq7UvVed4zAnj6xyLdQ4530Ou68D2pnpecduk/Srf1yx8Lv3k7VxbDZyuGGvK+DARy+brLsfr0dxKF5/EH4DTEkqfCAoJmtpvAoVlffImPAYulLJOaW2yKH3EXC1ZVD6q7iKcdLIom9Drxca9HLAUpd9m1OEYdyZGnYdkf/sBYZssKjsU+fmV+27fj8t+ANYPlEKZPSeAjXjguF8bNPaTVmkZYuy+fjh23C7sP+wvO26oV5loi+fS1Rm1Of36tmTn1JlqBwC2pes3j/q/tT74+I+4+lg6G0drMbpsH2Jb8qDHLMYA2TGnrrMinttygqd6XSPj88/Nf/7ldulEbGn+u2j3t5hsAk5ajBNFfz8uq8Sy+brL8bq239o+Abjawl1C159rY3tIGoW7d8o7i8JTZC76zqLPfPZfDQmiWrIovA/H7utfhNNPFpUdhnRirhvYpJ2D7C9PRoOncf3qMYJu8NjWrXVCyoFSue/xsSbFayqSSLVzAjhxDxz3R+vHE13lMfpYfv2sj8O7fYT14biT++2k7cyozUmWxWuYmfRbWg9wssZxOpXH+CDE4yRexvh5QPKhFqMnnNsxM/PXOXJpyaL16/IxUGLhcxl/rsAmVWLFmriS1l2K17WxhVgEcJpqv1n04aeeiV5//auX8ptFIUH0gQ/+zPC6TBaFdWF5X/8inPZj6LKETdBO1u07C8XkXf/XgX3DPxo8FfV3ss7Drn45wdi+b19nnZTYaUkHcON9x05Ievxwft25PXnztWLb+Q4NwCY8aNwfxeJyoqvbXxpjY1sRfquoXxa2Ce/zmB5jczZYLY41anPyZe32aayfbgcANiP2qfOJwPH6qX5yPZlRVYvRU87rmKml69wNYvfn1o09Djnf6nXt9pW0J2X7k41RFs5r1PZln013nrENXvhcYnutnQOCtg89xIsiPuTzKPN15+P1+P14rAHAqQh3DYUk0C9+/JPxfXjkW0jMBOmj4UKd9K6jOWuTRU9+5KNDMij8WyaLwrJQp69/EU47WRTExr8vu07Ac6FxLwcsXdl1Am7Gmbv7TBb1A56+DJOP7fKz59rt2zIe7LSDqVD25xc7On2pnEtf8oHVft3qgSjAVfcgcX9nFIv7hFIsrzU3y0FjOQgd9pEcM1u+L9lAc9TmjJf127fbzbUDABuRxfykVGJnLFmcLfruSRlNBNZi9IxzOWZq6TqztmpXknZtVvW6ynPM27NxsqhSkn1Ot33dcZJkUa3E+uX1DWXc1gIbkMWEfG6l+ke3bcVdmZuH2ZUiHpbxK5TZWA3AlRaSQOExb1+4+WLz/r/d3uEThDt6wrKw7tBEUbA2WRSSQ/3j7d72g+8ZjtUnjcK6/vVFOf1k0VFoBz86FQAAAAAAcJxCQiYkhsKj6ILw+n6SNGuTReEOpnDn0rvf8/6qL7785eEup4siWXQpJIsAAAAAAGAL1iaLgv53iWr63zO6SJJFl0KyCAAAAAAAOE6SRQAAAAAAABsmWQQAAAAAALBhkkUAAAAAAAAbJlkEAAAAAACwYZJFAAAAAAAAGyZZBAAAAAAAsGGSRQAAAAAAABsmWQQAAAAAALBhkkUAAAAAAAAbJlkEAAAAAACwYZJFAAAAAAAAGyZZBAAAAAAAsGGSRQAAAAAAABsmWQQAAAAAALBhkkUAAAAAAAAb9qZvfvTbGgAAAAAAALZJsggAAAAAAGDDJIsAAAAAAAA2TLIIAAAAAABgwySLAAAAAAAANkyyCAAAAAAAYMMkiwAAAAAAADZMsggAAAAAAGDDJIsAAAAAAAA2TLIIAAAAAABgwySLAAAAAAAANkyyCAAAAAAAYMMkiwAAAAAAADZMsggAAAAAAGDDJIsAAAAAAAA2TLIIAAAAAADgIfuFj/5S8/PPfGKkVve8bS9Z9MSt5k5z1lyrrQPg9FzluP/sWdPcudU8XlsHQCvEyqTcufH0zPq7zQtPJOsefbp54U63KpaJ9iK0JWvi8ewxe+HYU+sqHug6J0xe1/PNK92eQhkdK7V0Xp1rrzbNK8+Ol6cev3G320so5Xex4pyAkxViSbVMxOhx/SK2zMTOGJOK/bb76+oV8S8UsQng6nvnD/9Y81u//dnmK195Iwqvw7Ja3Tm3b9+OautKj33vO5p3vOu9UThmmSgKy/r1oW5tH+dBsmhWOyBZGtQAcMSuctwPA1DJIoAZu7idxskY85M4Ht/vJ//aZMS+TQjv05gfJwGLuDskMA6NxwvH3NcJ5cCkzsrrbCcw59u+6etqE2jDhGd5rMzCefV14oEW2tfinMvv4tqryfWU1wtsWBuzpuJLiCWTCZwiltTaiDQOjeJ5GWtn4yUAx+4t3/7WmBi68YXfbX78fT81LA+vw7Jrzz4f66TbzFmTLAr7v3v3Xvx3Tl+nto/zIFk068gmDQFY7yrHfckigNXSicGYcHj1+WT9Qpwv2oxh+xXxePGYw+RiWH7/CY/0OssJzfaY0/ueva5y8nNnfE3T0vPaT8TOT+aOElTBsG1ar3dk7TXw0MT4NxOfsphUWTcXr7PYGmNjEZNG8XIp1gFwrEIS6Pdfern50K7fGt5/1195bLirJ7wOy8Lj4V764pcOThitSRaFY6RJoPC+P056J1Go05/PRdhAsqht7Pvyyo3xpGHsIPSl7wjEwUla9tu0f03Sl3xfU9Jt8o5Kfn7LA7NK52W3vr+GoVMSOy1dyQaAbedlKAcO+gCujsuK++OJrbjfNOYWk3D5fvJt+7rXujpxXbF9e977Qep02wKwVWlsrk3ajWN3ZjTxlyxP4/ukNccM7dV0Qmdesc8isdK2D5XrKFWuqx9fpPXisq7eqK3LTF3r9OfSHqv2WeTjnszB3wdw2pbiaC32zK3LY9gQ+7pxwmg/ZZsx1YYAcPRCEujv/f2fi6/Dv6+//tWYOArC63RdqJtuO2VNsigIx+lfh8RU/+i7NImU1rkIJ54sagcY+8FKNyApGvN9g1/WrwxQdp2EV8r9LSVcig7D4zduda/L440HdnEwlu0/P6e2fn6O7bKkw7Q75xfi+vJ8844QwNV3uXE/xtsspt5t7iS/PxFieL/vMr6Pjh3biiImh2VTk3OTbQvAduWxthLTd9LYnCvbhEQSj0frMmuOGerOTXJOG7cpO91kZluKdVMq1zUef+T1Ru1RonpeUdt+5p9L0qbGcy8/i3Kb9rONpTw/YJPyvnhNF2eSUsaUuXgd9x/695V6UeyP56VaD4Cj9sl//mtReB3u5gmPekvvHiqXPfup3xjqz5EsOja1QV0ciEwPnvKBXL3zkFrunOzEDsR4INh2PMqBVj4oGg/W8nMa76M2EOvE88iv/aDzB7gqLjvup/sOr3fLw/7a7UM87mP/xH7T863E6H59e7dRZd19TjICnKLYb87i4vJE4CDG812Z6hfX2peqFceMddfH8fF17pRtSK1NqalcV9x/+TkccP3V8xrMjFGC+PmX2y6Na9Z/dsApWe63j2SxYzlex37/rv6d0EDUYuAo1rb7HMd7AI5ZKH0iKCRoar8JFJb1yZvwGLhQyjqltcmi9BFztWRR+ai6i3DSyaJqIqScNIyNe1GGbSqdh34gmZYDBo5tJ6Mt/f7qiZp2UNR3LsaDtfycxvsI6ycGTrVrDeWggS/A8bv8uL+vH44dtwv7D/vLjjsRm9MBZnhdxuPkXLNz6tTaFoDtaWPxuE9bSzbkfe2gj6WzcbQWo8v2IbYlhx2zVWsbumvpS3bM+ess959OeE6qXFetLY3LRsftTZ1Xqva5pKY/i6ltqkktYDvSfvTB0ni5HK/3sa+Lc2XMqZ1Drb0A4KiFu4SuPdvG+JA0CnfvlHcWhafIXPSdRb/9O58bEkS1ZFF4H47d178Ip58sKhvprDEfD0DyQUe5fjwQmx84VcTjtwOh+rZ5h+X+kkVlh6dzX50pgKvjYcT9fjLu2qv9JNduH2F9OO7kfjuhTr+v9HW5Pl5DJdmU1ptbD3CyxnE6Ve9LJ/Eyxs8D+se1GD1h8ZiLy2vmrrO+rm+f0mUjteuqfCbT+5r//PfaetUxSrI+20/5xx6Fg64POFn3FwPyWLMUr7N+f/cHAtkxK/GyPs8DwLGr/WbR4x/6SPSVr7xxKb9ZFBJEP/6+nxpel8misC4s7+tfhNN+DF3XmO8HJe1k3eSkYf/XgQdPGnb7W+gIPH7jLBkEpp2Pdvu0s1F2LOL7pPPRvt+fU3yfdW7G24Tran+zqH686UEbwBXzMOJ+nGgLj6fol4Vt2sdVpPF1FJvLY01N2HXL2u3TwetU2wKwIZWJuvH6iYm/WoJiSi1GT5k9ZmpF7F64zlEbU5zDpOp1te3T8LnEtnK/rzi52m+zcF577Wedtov9sr4NLq8hn8TdnVM65jn0+oATVfSjE1mM2sWZx5M4Ufany1hSxutR/I71i/57FgOL+AnAlRHuGgpJoJ9/5hPxfXjkW0jMBOmj4UKd9K6jOWuTRR964ukhGRT+LZNFYVmo09e/CKedLAq6xrwtu07As2GwUw6kurLrBLxQ/GVJ25kIpdumn1iM5ax5oew8VLUdhr7kHYd83Xhf3SCqK3du3Mo6RfH80oFTZ3/eu5Ltc+5cAE7Apcf98aCw3Uc6cEyX70s2wA3nVbYBxbJ++3Y78Rwgj/lJqcTOWLI4m/ez0zKagKzF6BnTx0yFOH5gwmPtde7K6Bpqpq4ra/vycxwniypltM/lZFEQ992XcoyTHevAzw04TUUSO1Umi/I4v9A/L2JXXFdbFqqGvnclBuqTA1xdIQkUHvP2wo1bzd/6iQ8Oy8MdPWFZWHdooihYmywKyaH+8XaPfe87hmP1SaOwrn99UU4/WQQAAAAAALAgJGRCYig8ii4Ir+8nSbM2WRTuYAp3Lr3jXe+t+v2XXh7ucrookkUAAAAAAADnZG2yKOh/l6im/z2jiyRZdF6yRzUkpfKIOAAAAAAAgGMhWQQAAAAAALBhkkUAAAAAAAAbJlkEAAAAAACwYZJFAAAAAAAAGyZZBAAAAAAAsGGSRQAAAAAAABsmWQQAAAAAALBhkkUAAAAAAAAbJlkEAAAAAACwYZJFAAAAAAAAGyZZBAAAAAAAsGGSRQAAAAAAABsmWQQAAAAAALBhkkUAAAAAAAAbJlkEAAAAAACwYW/61re8tQEAAAAAAGCbJIsAAAAAAAA2TLIIAAAAAABgwySLAAAAAAAANkyyCAAAAAAAYMMkiwAAAAAAADZMsggAAAAAAGDDJIsAAAAAAAA2TLIIAAAAAABgwySLAAAAAAAANkyyCAAAAAAAYMMkiwAAAAAAADZMsggAAAAAAGDDJIsAAAAAAAA2TLIIAAAAAABgwySLAAAAAAAAHrKPfeKXm1/8+CdHanXP2waSRc80N+82bTn7dGX9gqdebO42rzXXa+tKz73WHehec/Opyvo1+wLgfFzl2BvalbsvNk/W1gHQGvrgbbl785mZ9WU/PRkrxDLRXoS2ZE08nj1mLxx7at2MsO/KuObJm/e644VyYLs3dV2x7dyXs+eK9YnrZ12locx8hru1o+9ncEHfBXCCPt2koWc6rgQLdWfidR5X2zIXDwE4DT/yox9oPvPZzzevv/7VKLwOy2p159y+fTuqrSu97Qff07z7Pe+PwjHLRFFY1q8PdWv7OA8nnyyKjfuDDCbioOaQwVbbAZntOBy8LwDOzarYe0Asv0xh8GpCDGDGLm6ncbJLSAxxPL7fT/61E3/7NiG8T2N+THwUcXeYLDw0Hi8cc18nlHXJoiExUySLate1dL7T1/VMc/MsWRYnUqfb0XBO8xO1rf7cp+qG8zn37wI4QW1ieYglZdxfU/eANiKLNzEerovbAFwd3/mXvycmhm7e+r3mAx/8mWF5eB2WXX/u07FOus2cNcmisP979/4g/junr1Pbx3k4+WRRHGTczx1Fvdh5mB4cDYpORtWh+wLg/KyKvZJFAFddmrwYjwUW4nzRZgzbr4jHi8ccki9h+aGTjvsJzzh5me2/mAyN5ve96roWxjnp5z0p7OPua83Z6DxnnMN3AZygIYbul43jbmeh7ni7PF6PkkWr4jYAV0lIAn3x5S83T37ko/H9X/ueHxzu6gmvw7LweLiXv/TlgxNGa5JF4RhpEii874+T3kkU6vTncxFOOFnUDprS0jf4sUPQl9FAo+0c9OXsZjHJGDsbXek7FemyUIZ9LuxrZ/pc0vPXGQE43H3G3jgplZb9NsNfMsfSLx9PzsX9prG8mNDK95Nv29e93tWJ64rt2/Petwnp/g6efAM4aWlsbl/niaFx7M7Efn3eZgzL0/g+ac0x72/S8bBkUe08Kg64rvJ4eVt3yHH6OuV5tu/za0k88HcBnKJxDOyWVeLCfN1a/MrjVLnfqeMAcPWFJNDP/qP/Lr4O/77xxu2YOArC63RdqJtuO2VNsigIx+lfh8RU/+i7NImU1rkI27uzaDe42HcG2gnF/YClfN8NYPpBSvlXdc+9uH89+ou7hX3F7afPJT/v3bY3JwZRACQeLPb277NB4y6+n5X76+JzPgAN6+41d5PfnwixvN93rJtNehXHjpNi6bl0y7oBaT4519ff7+/Jmy8m+wbYpjzWVmL6Thqbc2WbkEji8WhdZs0xQ93zSBZV2piuTSnPY2TqupI/oCjPO2+P+nZ2X8pj7s+3rbvfX96m5s7juwBOUYxBZdyYiAvzdZfjdRtb07I+ZgNw/H7lV389Cq/D3TzhUW/p3UPlsuee/82h/hzJoiNU7Rwk0o5AtYMRB0rdwKsbNFUHXWWyaGlfFem5xPM2CAJY5wFj79QkXyqbpCvbiN3ysL92+zZ51LYLE/tNzze8Ls+zW9/ebVRZZ8AKMIj958ofb81NBA5iPA+VJ8YNtfalasUxY931cbyWLAra6+/K2YsxETPXnkUHXNcoETWnbJuyNrhMFk04t+8COEUx1pXxYSIuzNddjtcx/qX77eLTYmwF4EoJpU8EhQRN7TeBwrI+eRMeAxdKWae0NlmUPmKuliwqH1V3ETZ5Z9GodOurA69sgJNvnw10Yr39wGjtvoYybJP+ld6BgzOAjXvw2FsZNHaDwqwMg8Z9/XDsuF3Yf9hfdtyJCcF4Ll2d8Loc5CbnWhuUxuvtikErsF1tLB5PFLb96Tw+jhMWfSydjaO1GF22D7EtOeyYrVrb0F1LX0bXNNHWjUy0O6XadY1MnX9NWre9lv1nsbyf+/4ugM2oxcC47MB4ua+7HK9r+63tE4CrLdwldP25NraHpFG4e6e8syg8Reai7yz6zGf/1ZAgqiWLwvtw7L7+RdhYsqgcsOTrqx2MOFFXSdZ0g8NhX/F9kSya3df8uaTi8krHB4Dcg8fe5Ymt8hhh+7D++lnfBuz2EdaH4860P1E64ZW+LtfHa5iZ9FtaD3Cy5hMQ4/51iMdJvIzxs9LXL9Vi9ITFYy4un3fQROWh53tQvdqE6pTk+4if7VSpfOYX8F0AJ6gSK/r+eFYvWKi7FK9rY4vxNgCcgtpvFn34qWei11//6qX8ZlFIEH3ggz8zvC6TRWFdWN7XvwjbThb1fw3Yry8TQF39oXOx62iUE4j5vpLB3tK+Zs9lt++zpENiQATw/2/v3p9mu+o6AfvHqORyuBQHAomAKHeDIAJRwp0JuZAAIRAg3AKBOQQJyThcalCnRnTU0ZIEE1QURahC5YSEwqkaIBbJMdxMlVVaOXF+Gana09/Vvfpde/Xau7vf877nnPfdz6566u3el7XW3t1n7cvn7N2bOaW+tzF95SLkoryyT059dPxWUR4Xy8T7spzFyWbvZLWqq9XXF+Pmy5cnrw8WFxijrO0vOAIceNFPVhcCV6cPXfir+/gRrT56yGidpd313am80QuV9b5sRGu9ZvvGnd/qy/ufnW2czq+KbXhL0f56X9VXb+/5++X5z358FsAhNO/jlv1FOp7f6Xf6fdT4vOv665X+e+VcA4DDIu4aihDov/3GZ9L7eORbBDOhfDRczFPedTRm27Dolls/tQyD4m8dFsW4mCfPvx+m/Ri62U7/nrHpcdBwVxwM5JOjxQlNHsrl6oOOtWVV0+u21Ms2T7gAWHEqfe/M/EJXDItlFieF8+HB7p76pLE+CV2WUdTZG78z9E40o129clfH5eXny83rzcNGF9gADpten18Mjb4zDb1+tjq2L4aVC4GtPnrEcJ2l6Me3P85PZZfnIaHaDhtfyBxYr/7+qr8/q8Oi/jZc3fftqAOhxbJpXfbvswAOod7xeb8f7fdR4/OGsf663xfOh437VwAOnAiB4jFvX7/nm911b5vf4RPijp4YF9M2DYrCtmFRhEP58XYve/kVy7pyaBTT8uv9cujDIgAAAAAAgHUikIlgKB5FF+L1bkKabcOiuIMp7lx6/RXXNX3nvu8u73LaL8IiAAAAAACAPbJtWBTy7xK15N8z2k/CIgAAAAAAgAkTFgEAAAAAAEyYsAgAAAAAAGDChEUAAAAAAAATJiwCAAAAAACYMGERAAAAAADAhAmLAAAAAAAAJkxYBAAAAAAAMGHCIgAAAAAAgAkTFgEAAAAAAEyYsAgAAAAAAGDChEUAAAAAAAATJiwCAAAAAACYMGERAAAAAADAhAmLAAAAAAAAJkxYBAAAAAAAMGE/ce6RJ3cAAAAAAABMk7AIAAAAAABgwoRFAAAAAAAAEyYsAgAAAAAAmDBhEQAAAAAAwIQJiwAAAAAAACZMWAQAAAAAADBhwiIAAAAAAIAJExYBAAAAAABMmLAIAAAAAABgwoRFAAAAAAAAEyYsAgAAAAAAmDBhEQAAAAAAwIQJiwAAAAAAACZMWAQAAAAAADBhwiIAAAAAAIAz7BOf+q3u45/8zRWteffaBMKi27rjD3fz4YHPN6Y/ubv9ga57+O7bmtO2cseJRUUnu+M3N6Zvaq/KAaA79+Z7u4e7E93trWlnu9gfPHxvd6w1DYC55bHzfFg5ru9Nr4+vi3OFNAzsL2Jfsk1/PFpnFnXv4ng/ym6c1xy7++Sivhg23O8NrVfad+4M999RTS/EuVR/GNmGs6mD511VnTGszvv57v7FtBj25BwOOIC26QvWzDvSX/f71fkw1h8CcDi86rVv6L74V1/ufvCDHyXxOsa15h3z0EMPJa1ptRe9+JXdK19zVRJ11kFRjMvTY95WGXvh0IdFaee+5sRub8Ki+QHIqR847FU5ACTp4tOmYdFZ1gfHyauwCGDErN8u+8lF4LDsx9P7nYt/8wt/O/uEeF/2+Sn4qPrd5cXCTfvjNXXuzBPDdmHRMpipwqLWeq1r7/B63dYdf6AYly6kDu9HNz2Xym0fnHfd/rr+bIGJmof8y75ktG9YM296P76P6PWRqT/crt8G4OC44MJnpmDo7q9/o7vmTW9fjo/XMe72Oz6f5imXGbNNWBTlnzz5SPo7Js/TKmMvHPqwKJ2UDNxRlG16gjOqOsjYtb0qB4C51K+OXHzqERYBHHTlsf3qucCafr7aZyyX36I/XlvnMnyJ8Zse9+9c8EwXL3vlVxdDk/Gyt1qvNecn5fYeFGU8fKK7f6Wd1Twj++uN6gEOv2UfujNutd9dWDPv6nL9/no1eN+m3wbgIIkQ6Fvfvq/78M3z481nPPtFy7t64nWMi8fDffs7/7hxYLRNWBR1lCFQvM/1lHcSxTy5PfvhEIdF85Omcujt8PMw2/Efr0880onKztA7mUwHG4shH1SU42LIBxN7VE7Z3tWTwJ3ByRNA6PeN99+9evEpnRjmYaDPXvlfhcshj1+9OJfKLU8oo18v3vfLqfrtxby3L+ZJ06rl5+3eOUEd3j8ATFXZN89f947Bm8FKIR2P9/cZy/Fl/z5omzp3d9Ex9f29i5ut8lvtaNhgver6+vu6TerJ89TtnL/vnQsNtsUFWmButQ9cjGv0H+Pztvqvfj9VlztUDwAHX4RAN7z7g+l1/P3hD/85BUchXpfTYt5y2SHbhEUh6smvI5jKj74rQ6Rynv0wuTuL0s69PAFMJ4Q7BwPp4KB47EJv/nQhsThJuePendf1tL0qpzphPXb3vcvXtz9Qr4cTKGDq5kHRyoWoqt/fOSms55+/7500zvrl+wcubKW+fbmPiWknu4eL35+IfVDvZLNsR133yv5oMW5xQtoMogb2DwBT1e9rG336TNk399X7hELRH69M69mmzph3++P3/r6nGFft62Ko27FiaL3SOcl8qNvd3x/l/ezOUNe50975vDvl9fepuc3LoWxXas9s/XrzlPtUYCpSH1T1gUN92fi86/vred9aDq65ABxGn/nd/5XE67ibJx71Vt49VI+743N/upx/jLDoLNQ/OJifkGx+wjiTT0yWrwdOutK0kQOH3ZaTTog2OSDZ3ckmwKHSOlEs+9+G/j6gfdJY6l2kq/v22fgob778PDya98sD5ZbtTf191c7F9PndRo1p+n2ApXTc3+sX118IXFocn69cVMxa+5emLerc5fF7KywK8/VfDA/c2zzvWbHBeq0EUWPqfVNvH1yHRWOqIKnx+aT13egzAQ6T9G+/7gMH+rLxedf316n/K8td9EVr+1YADpQYchAUAU3rN4FiXA5v4jFwMdTz1LYNi8pHzLXCovpRdfthYmFR+4SsPBhYnpj0hmKZdAI0H3onOumgoSx7r8rp/2+W8qAkrVs1OGgBpqx5Aa13oWqm6H+XQ28/UfWl+QJVOSxPGnfmj7rTclF+lNerd+CCYGrLYp54XZ/kFm1t9e9D+weAaZn3xasXCufH4/3+cTWwyH3paD/a6qPr/UPal2xW51xr37BYlzysrNPAvm7FwH6n1lqvFUPtbynnna/LzrbYppyZch9Z78uHxgGHXqsPTOM27C935l3fX7fKbZUJwMEWdwndfse8b4/QKO7eqe8siqfI7PedRX/1119ZBkStsCjeR915/v0wwbBoy4OBdBLSONFanBwuy6rm26tyetIJ02JaefKUtNYNYFpaJ3T9/nK1rxzfT6xe2KrryP/h4PYHct89KyOmR72j+5+ZmCeXVb6up6d1GNg35PnGpgMcWuMBRL+PD9EfF/1l6j83CBxaffSAtXWuHT9uowuVm7Z3o/laF1SHFJ9H2rZDw4bbvLf/rrZVOm/aoBzgcOn1DXP5eLw3X1gz77r+unVusboMAIdB6zeLjn341uQHP/jRafnNogiIrnnT25ev67AopsX4PP9+mNxvFqX3xc4+7fxj1OJgoXURsAxo6guIy/drwqLdl3Ni+bp34FId9OT12OwkDuCQqgP41G/GUF5sqvvc2bDcT1TTVy5CLsorTxqjP06/VZTHxTLxvt8nz/vp8mS1qiuVU5RbjZsvv8H+IS8LMAXVMXF7etl3lsfodR8/otVHDxmts7S7vjuVN3qhst6XjWit12zfuPNbfXn/s7ON++dTt3XHivbX+6q+envP3+d1OXZz+Tks9rf1edzyfX9ZYErm/cOyL6muofT7qPF51/XXK/33yrkGAIdF3DUUIdDHP/mb6X088i2CmVA+Gi7mKe86GrNtWPTh2fFwDoPibx0WxbiYJ8+/HyYXFi1PLPIwmxbzrJy0LIb77y4PJlaXXZZbH3TsWTmLE6XFUJ7MpnVbDA/Pyt/4pBDgMEsnfXmY9ad3RL9aXEgsp89O/o5X+4n5ha4YFsssTgrnw4nueH3SWJ+ELstYvXi5U/Z86PXZrQt21bi8/Hy54f0DwGT0+vxiaPSdaej1s9UxeTGsHFO3+ugRw3WWoh8vj/s3k8rund/MVNth43OCgfXq76/6+7P+hdh6G67u+3bM510578rrUq1Da79Wnv+sbANgOnrH5/1+tN9Hjc8bxvrrfl84H1xzATi8IgSKx7wdv/ve7uo3Xr8cH3f0xLiYtmlQFLYNiyIcyo+3e9GLX7msK4dGMS2/3i+HPiwCAAAAAABYJwKZCIbiUXQhXu8mpNk2LIo7mOLOpVe+5qqmb337vuVdTvtFWAQAAAAAALBHtg2LQv5dopb8e0b7SVgEAAAAAAAwYcIiAAAAAACACRMWAQAAAAAATJiwCAAAAAAAYMKERQAAAAAAABMmLAIAAAAAAJgwYREAAAAAAMCECYsAAAAAAAAmTFgEAAAAAAAwYcIiAAAAAACACRMWAQAAAAAATJiwCAAAAAAAYMKERQAAAAAAABMmLAIAAAAAAJgwYREAAAAAAMCECYsAAAAAAAAm7CeOXvDMDgAAAAAAgGkSFgEAAAAAAEyYsAgAAAAAAGDChEUAAAAAAAATJiwCAAAAAACYMGERAAAAAADAhAmLAAAAAAAAJkxYBAAAAAAAMGHCIgAAAAAAgAkTFgEAAAAAAEyYsAgAAAAAAGDChEUAAAAAAAATJiwCAAAAAACYMGERAAAAAADAhAmLAAAAAAAAJkxYBAAAAAAAcIZ9+jc+09Sad69NICz6ZHfPyW4+nPhCY/qZc+eJWZPuak8DYI987Jvdye7B7s7WtLPdXQ923clvdre0pgEwF31lMZy855Mj0x/p7vlYMa08V0jDwP4i9iXb9MejdWZR99C0EVF247wmzi12hg3LHVqvtO/cGcbOWfr1xtDfhrtq12L79ev9QlcWtfI5A9Oxrt+fueWeRxZTYxjpl9b07WPlrOxDen1zv89Kg+N6gAPh8qve2v3Nl7/a/fBHDyXxOsa15h3z0EMPJa1ptZe94oru9Vdel0SddVAU4/L0mLdVxl449GFR2rGfdTvknYMGYRHAPtsqLJr3z2dN3xwnwk4qAUbM+u2yn1yEHMt+PL3fCSjmF/129gnxvuzz0wXEqt9dXijctD9eU+fOPDFsFxYtL3DWYdFsf1FeLG3WWRler09295woxqWLssNlRZsGg5tdtKu8+Nr/bIrlqm0MTMmafn+m1ZcPTUvvh/5jcdX/jS87P4/Y6fPq84pF3zZUFwBn3NOf8UspGLr33n/o3nr9jcvx8TrG3XnXX6R5ymXGbBMWRfmPPPLv6e+YPE+rjL1w6MOi0R3/mbA8sZkfKJQHNADsg9TvrrswlQmLAA66OP7PF+tWzwXW9PPVPmO5/Bb98do6lxcfY/ymgcf83CHWKwUua89vxsvear3WBDPl9l5vg3WONp14cPxzWvc5ApPS64dGj/0bfcfg/Dv9bn/eRR/W6BtT/7zsU1fr2qz/BuBMiBDovvu+233s1k+l97/4wlcs7+qJ1zHu07/5O2meTQOjbcKiqKMMgeJ9rqe8kyjmye3ZD4c4LNr5H2l5yDvp5f+iS0N5UJBPXuY79flQHzSU02ZDOpHZOUDoHxyExgFGMd4JDsBe6/fTJ+5ZPQFMF8nykPvsdMJXDjvLtPcbq/17KrfcB1QX4frlVPuGxbx3LuZJ06rl5+2u9jmLYXU/AzBFZd/cOt4eOjZfiH535fh/Mb7s3wdtU2c+9yjHrZf6/nUXGxsXMZs2WK+6vv6+rrW+I3rtmi/bX5f++dhguRt/HsDh1+9jx/vIVt8y1Be3xhfLt/qh3j6krqtVNwBniwiB3n/TR9Pr+Pujf34oBUchXpfTYt5y2SHbhEUhHjWXX0cwlR99V4ZI5Tz7YXJ3Fs0vrFUXAJc7+PnOu74QuLP86glN88Jd74Chf+CyYz7egQLAXpr34zt97qLfLi/8zU7i6pO2nfkbJ3Ef+2Z3oi5vsR/on4zGtEe6k8XvT8Q+onfi2rsAWdWdTi6r/UVxEtq/OJfnL/dn3yzKBpimfl/b6NNnyr65r94nFIr+eGVazzZ1xrytC5Tj+vuelv6+atTQehX/gaJud39/lPezO8Pw+U3drtV27myn1nacj0vDJusGTEJ9jD3vR77Q65vKfqzfh+XlG31xM3Sf91vRN6Xl6v4zLdPfB/UGfRfAWen3/+CzSbyOu3niUW/l3UP1uLs+/xfL+cdsGxZFKJVfD4VF5Tz7YWJhUeOko7Ez700vT6CqC3M7ywuLAM4KrYtevX5+1c6FqXjfujjV17tIV5Ydr2fjo7z58tHP5/3DQLnr9jGL6fO7jRrTdnGREeCwSsf9vX6x3ff2+/2F1J/HzAMX8lr7l6Yt6kzzbt+P9/ZDK+b1b9bWmQ3Wa34hdXg/2jO4b9qgXb22tLdjb177QJi81X6/MW7Rv+/0J4ugejGcvOeb7b44LVeP3z4sKvux1LZN+2cATpsYchAUAU3rN4FiXA5v4jFwMdTz1LYNi8pHzLXCovpRdfthkmHR6pAPAGJ6dTBQnrQ0T6b6ywiLAM6c5gW03knbTLrAVA3VfqLXN+cLiOWw7Od35o+603JRfpS3crLYOAlNbVnM09rHFG1t7S/mF/Dmg/0JMF3zvnj1OL11vL16bJ770tF+tNVH1/uHtC/ZrM651r5hsS55WFmngX1dWOwzVusZ0VqvFUPtb2nMu0m70rYst8XO/nVl3oX+eR4wLUP9/rxvqPub1ril+lxhabiPTn1Tq/9M/d1wWNQuE4AzLe4SuvOuv0ivIzSKu3fqO4viKTJ5XMy7H3cWffkrf7sMiFphUbyPu5ry/PvBnUU9jR13eQDQ2/EvVCc26eStd8AwdHLVOpEE4FSs9sEza07axvcTq314XUc++bzzRN4XzMqI6VHvuv1PvY9ptT2XNXZiuW46wKE1HmT0+/hQHe+n/rN1kbDS6qMHrK1z7fhxzbBoJWzZ0Ebrtc15S/V5bNiutE5Dw0D78v63Hg8cduP9fquPHOsvmn1q0qinDJYa/Vu/rMbx/277agD23X3/2P/NovhtoFtu/VQSr3u/WTSbt1x2yLZhUQREb73+xuXrOiyKaTE+z78fJvebRel9ecIRO+vezrzacfdOoOY7+/JgIZVXLlNfsEvvWwcm25x0AbCRdAJW9q3zfnswLFrMP3xSV58kLsor9yNpPxG/VZTHxTLxvt/Hzy+ElRckq7paF+yKcfPld/Yvt9zzYLG/irKceAITlI61R8KeNL3sO2d9aa+/nr0duIDY0+qjh4zWWdpd392/GDlXn/NsrLVes33jzm/15f3Pzjbun099srulaH+9rxpv13z7t6fX++PZ+3K+ahsDE5L+/Y/0+3UgM9Zf1PNW5xLN/m/ZF9V9WKPf6r2v+08AziZx11CEQJ/+jc+k9/HItwhmwvLRcLNpMU9519GYbcOij936qWUY1AqLYlzMk+ffD5MLi5bj8tDbUTdO2OoTqHxhcTGcuGt1mV75J745cBI6P7AoDxwA2APphDAPs/75rui3ixPKcvqsf7+n2k/MTwpjWCzT6/cf7O6J6Sv7jn4/X59Y9sfvDL19QL2/aYzLy8+Xm9ebh40udgIcNr0+vxgafWcaev3s4kJfY1g5Rm/10SOG6yw1zj02kMoeO78phrX7hoH16u+v+vuz/sXOehs25m0M83ZtExbN9D7r7bcbcEhs0O/3j9/7/UW/f6v6kiosCv3rO3V/1T8e7+87+tPSsMV+BIDTL0KgeMzbPfd+s7vube9bjo/XMS6mbRoUhW3DogiH8uPtXvaKK5Z15dAopuXX++XQh0X7b3cneQAAAAAAwNkjApkIhuK3i0K83k1Is21YFHcw3Xffd7vXX3ldU0zLdzntF2HRKRMWAQAAAAAAc9uGRSH/LlFL/j2j/SQsOmXCIgAAAAAA4OASFgEAAAAAAEyYsAgAAAAAAGDChEUAAAAAAAATJiwCAAAAAACYMGERAAAAAADAhAmLAAAAAAAAJkxYBAAAAABwwLzhDW/tXv6Ky1fGP+NZv9wdO/bR7hdfeOnKtJj/pptu7i58yvNWpsX817/9Pd0FT372yrQh0YaPfvS2paGy91OsU9Td2hZ7Ja9na5vCYSEsAgAAAAA4QCKQee3rrm4GNBFsDIU+MS3U42PeWCbKi6ApAqcYn4OYIduGJzl0GQp2ynYMlZ3blNdDWAR7Q1gEAAAAAHAARUgUYVEER/E3Ao1aDn9yEDMWeMS0vNzQfGN3Lq2Tyx8Ks3LZMU8r1ApnIrgRFjEFwiIAAAAAgAMsh0b13TURbuSwKM8ToUepDmVi3muvfUczzMnTdxsW5TbkNtXT811CoRUo5eVDvC6n7SdhEVMgLAIAAAAAOMCGgqCQg5kIOnLIku8yGrp7Z8yphEVhLHjJ08p2l9Nz3UN3Ju0XYRFTICwCAAAAADhA4g6cMjDJYdHYnUUReNRhUZ4/ptd3E8WyObjZxrogJ989VAdVeR1i+Te+8fo0Tx3O5GXL9WyNy22PcXld433I2yDPW8phVJ633HbxvhUW5XbnZcrlyvmGysjLt5bJ7Sm3Vd3GsfWBbQiLAAAAAAAOkGc/9yXLgCLCh1ZgkUWw8LyLf6UXSOT5c8CSg4zQCkRKOaxYN9+QvHwdKkV5UX+0Kb+uA6V4n9chjxsLi1716it7QVHWClhyObWo7z3vuSm9rtd5aJmsbP/QOpXhz1D5efxQfXWZsBvCIgAAAACAAyhCgjp0iXFlcBJyUJGDllbgU4YWY+FDa9lt5Dt9clvy+DIYyWFWuW55XB305OXKdc7rG8oyynUcWveynNzWXNYmy4Sy/rzMWPujnAikyu2e687zl20p2xHTXvu6q5fvYbeERQAAAAAAh0SEGB/4wLGVIObFL311Ch4iaGjNEyKQiMfR1eNLMS3CjTKw2FaEImXoMRSMRD25LbneOsiKdasDmyg3xkUZUVZr/rKc3J6yjCyHPGV7w9gyIbehrqdcp7yeMT6UQVKuNy/f2iawl37i3CNP7gAAAAAAOHgueupzups++OHu5o/cMiimP/Xpv9Bd+5Z3dC+55FXJje//YPe4o09rljkm1/es57yoOX0TsWy067LLr0nvc5n5fYg2xjy5nvp9PV/8zePq8kv1tCOPuShtl6g/2lHPH2Lesu5NloltG9s45ov5Y1yuO7e13JZ5Wq6jfh/yuobdfn4wRFgEAAAAAHDA5DAihwn5fRma1CL0iPDiiqve3AxSarnMHFCMGQtOarncHHi0gpE6QIq/rTrGwqLWtsjTcrl1W+r5Q8xbtm+TZVrz5HXKAVKUl9cpz5/bPLS+uYxoTxhrA2xDWAQAAAAAcMDk0CCHCzlsKAOXWg5KyuCjFGXc8K4blwFFHWAMKUOP1vSWMgxpBSO57nDBRc9Mf8u7dLJoW6xP2ca8nq1252mnEhblO4vGlsnllm2ul4ty8/Q8LTz28U9dvs7LtuR2jbUDNiUsAgAAAAA4YOqAJv7G+wgPSmXgUIcVZXlhKEjZj7Aohzwvf8VlK6FKFu2Ici/+xUvS31Y7cjnltLwerfnrdczbJMbFtHr+vA3q6TmoadUR6nqy3N7nv+BXVrZtvF63vqXc9m23PbQIiwAAAAAADpgIEsrQJ8KJOjSIoKIMYXLwMRQu5AAkhyL7GRbFvLHMO294b/rbqiMHLte97YZeu0qxXEwrl8/LjZVZhji5jLqOMiiqp+VyQl1PntbaJnm9Y53q6Xnaay97w8q0aMvlV76pF6it+zxhG8IiAAAAAIADJN9RUgYedTCUx9XzvO36dyXl+JCDh1a41ApdShGObBtY5HUYClVCDk9inmhHtKeeJwc9ZRtzWNNqd55Wrn/ZllrUe/Ub35pex7JlWbnuIa36y7rqdcrbO6bVn2U5rVZ/lrAbwiIAAAAAgAOkDnFyqFKGE/U88TeHMnn+MvxoBSx1GUNi2aHAZ0yEHFFn1BF11dPLYGUoEIm21e1urUs9rVVebk+WA5s8vtxeWSvEGVqfLJc31obWtDI8y1ptgt0QFgEAAAAAHCBl2JPDihxs5PAk5NAijyuDhRiXA54cytSBTysIGbKbsAg4ewiLAAAAAAAOkAh9cjgToc/YnSxlsFRPi2XjDpYIi171misGH30W85XL1cr2tKYDZz9hEQAAAAAAwIQJiwAAAAAAACZMWAQAAAAAADBhwiIAAAAAAIAJExYBAAAAAABMmLAIAAAAAABgwoRFAAAAAAAAEyYsAgAAAAAAmDBhEQAAAADAAXTRU5/T3fCuG7vHHX1ac9obrnlLd+QxF62Mv+mDH+5u/sgtTTe+/4O98uJ11BHLxfvLLr+me9ZzXrRSfoyLaXm5PK5Vx0sueVVvvnjfmm9IWU/UEW0+esHPdde+5R0rZWexTGtajCvHx3q99303Ldc3RB1RdrktY3q97ettNSSm588g/q6bfzdifes270YsH+XUny2Hj7AIAAAAAOAscM75T+p++twnzjyh+6lzHr/Wzz3z4u51l13VGxfLPuq8J3YvvuSVay/wDwUo8yDkpu5xv/SH3dFXfbd710f/unvqNY90T7j8/3XvuOXu9PeSd30vefR/6pLHXvbj7i0f+UZ3+U3fSu+PXPr97jlX/+/usut/vzv3MT+7LLsOZ/K43NYcTkRAE+9zKHPkcT+T1u1FL760t875/ZHHPrl75w3v6S648OeW40OeL8a/+70f6C686JlpO5d11+2J0CcCqEte9pqVYC3eP2lWxs8/6wUr2/6xj/+Z7iW/8sruwzf/Wqo76vzATf85vS+96dq3zeq5IH1OZVtKsT3q4C7koCm3OX9norwoN9p0zvlPSK9DvC7b2JK/M622bBMWbfv9bRlry4rZPI9a1nd0pSzGHJ1v6/juLLa1sAgAAAAA4Ax71HkXNC7otkUQUQcQIYKCkN/ffPNHe0FHDmBCebdMfUfMRc+7vnvXx/4uhULhXbf+fQqLnnvdv6RA6OhsXPyN9zksCuW88T6Co3Dktf/RnXvhlansVjgT78t29szWoVzHkEOaHIpEaBbBzJVveNMyHKnDojwuByixvYfak+WgKgc2j3ncU5aBVLmdQxnMRHved+MHUoBV1h/LxfL1+NyWUnw+rbuO8raKz+68R++Uk4OpqLsse1t1WzYNi7b5/m6qtV2yeX0Cor1xtDtntj2FRQAAAAAAZ9BuLrTX4Ugpwoi3Xv/O9Ld1wb0OQUIOjx79lDd2T7nyoRT61GFRBD9xN1G8ztPLsKgU833w419ZBkfnv/qR7rwLrxoNZ0qpjTe8dyVYKZXrWYdDrbAotlVss9h28T62Td2eeF3e1bS8s2gRWkUg87SnPyeFQTmkygFQ1JeDrJahsCjUn1O+u6lsWw5u4o6nettEW6Jted1ORdmWTcKi3Xx/N9X6/sadR615OTXCIgAAAACAMyQet9W6cLtODkNaAUUEBzt3uhxNdeT68sX/3t07S7d2l9zwQC8Mqu8WaokQ6SOf+usk7jYKZVCUHXndf3TPeu5Ll/VFO5578UuK+vvKO3dqdRBUy9umNW3H0e6y1/cfxRftyY95y6HaYx//1DR/hDMR9rzkklekNuSwKId2z3ruC1NgE0HSY4/+TPoM6na3zD+rC5qfU4jXMS7fAfb0Zzx/GVbldYnvQHl3U/k+xOsYF9sk19u6+ynK/HBxR9oVV725GRaVQVoub6w9Y+NCvI62RJv65fW/v+nfy6N22sveERYBAAAAAJwh8RsvrQu3Y4buZimDgFJ+HF0ZPLRc9Kt/2F1z7B+6p7/p4a3CopB/s6h+NF3tvOf9brPuWvwu0NBdOJvYJCyK0OLaa9/eezxfiCDkDde8pXvq038hBSIRnpTbMwKhyy6/OpUfgUYZgORgplX32J1FIe6YKdsRgVX5u0X57q9zjzwpfea5jhyylHWWwUxuU7S9XiZ/d8I8KJqHNLktERLFd6cMi6IdMS7+5u9vrFtsl1x+lFHe6ZTrK8fldsW8rXV4/gtfmuYpt8up/B4S44RFAAAAAABnyG4ufscF9TK8yOLCf1xcLx+1FqKOVt0hQoB8Z82RS/8pBTrb3lkUyrAov853G/V84k+XQUPZjmhDjM/qgCYrg5kxsY3K4KElAop33vDeFA6Vban9/LNe0AtVQgQcObBZV0+2LiyqP6d8907eVvFZhZgv6szbIsp993vf3/vMW2FRve2ijAhooj11WJPbUj+Grn48Xvn9bZUX2ymm5fDo7e9897KOst0hpuf5S+V28TtF+0dYBAAAAABwhrQu2m4jLryXQUZcdG/9llGuL1/sL4OZ7COf+LMU8uzFnUVDyz376v/Tu1smi/AhBxChbHsWQcJehkW5vNbdVuV2agVWFz3lmWk7X37FNb2AIwczMS6/rpcv1SFU2YYc1MR2ye2J4CjmK4OWMqTJ5bTCorqucrlWWFO2IYdFdYBVlhfLlncORX25zvw9jb+5XeXrclvlcWXZeZv85Bl7BN1Hu6893HXd/Xc2pm3g2Ne7WHzj4eGvdx9qlbOPhEUAAAAAwGl1+wNdd/8d1fg7TnTdA5/vjyvdfG/38MP3dsfqcWPL7JNjd5/suu5Ed3tj2rZaF223kS/C5/dxwb4OJEIroAnlnUU50NnmzqLP/ajrHv5O+zF0l7zre2lcTIv3Ucb7/stXm3fyRBvK4Kq1DqEVJHz2/vn19flwsvvasdWwKLZLuWwOJ2LbtdqSw5F4XW7fLC9fhzRHPvuP3Ve/+tXue9/7XvfjH/9b92efngdH5bJZ/dmFui3Rjghr4pF48XtF8RnGfOWdO1FGXU68z+ub2vpHX+6+9a2/7T5bzBP172dYFOVHG85/zJPS35ge0/LdVdHG8jMKuR31Z523RznvWhHQNEKX/vclhgd626VldZn+8N3b28v91Dl3dt8dnB7T5t/X1Wmnn7AIAAAAADjteoFRBEV1EFQ7W8KiaOvYsGV7WhdtN/Xbn/m97m3veM9okJJDhRwI1U4lLIqgKIY6LLr8pm8tQ6N4/f5f/2r3wuv/OT2GLsbXbQjRhrKN5TpkETbU6/ih4yd7d2Gk990D3R+/eB4WxTKxbepQJ4KKeCRaBBP1tim3SfzN27fexishzbGvdw/+y/e6O39rXteHvvZv3Te+8eXuj4sAprRJWBShTIQzV1z5phTaRHiT541lr7r6zcvQqCwnpuW2nnP+n3Rf+sY3RsOi/D0pw5uoP9/RlMOi/D5vnzxvXV68j+An7n5686zd//P3/iCNj/ZEu5538S+n0CgHS7X8ueX1ytujnm/I/HsQX852WPTw8Y/2xo1JQdHDJ5vBU/39WxEd3VAYlTrBXd6ptA+ERQAAAADA6RHhTrqCOz7s3HV0W3d8m2c3DQQ18zuBiqEMnao2rdzxVEpBUVw0Ptkdv7malsppjF+jddF2nWuve3t31113dX/253/e3Xrbr/cCh/Iie75LI1636g6tsKg0FBbFJfDu/87+zkRYFPNFKBSBUPyN93n5PD4HSHUbQrRht3cW9aTHfZ3svvDJq9L85Z0uIYcVOdSIaRHG5G0QYUjcwRN30OS7anKAEvPmR/zFNo2yI3DKgUaIzyJ/HuccO9597RvHuy9/bPdhUQ5nYpvUAU3+rOt1DGVYFKHV1752fDQsysuUZUVd8f2IunNYFPJnlR+JF3Jbym2Rt/Wb33J99/ep/u90T3/Gxane2G7l4xKjzue/8KW98sq2RF1RZ9neISnciRAmwphTDIt68y4eJZfuElq8XldOv67Fo+zWDNsEWS9/1eu7xz9xfrfZkJh+6Ssva04rCYsAAAAAgNOjdXdQpfmIutBaNsZtcCdPhEUP331bc9rtDxSPkxsLfHp3Py1CrFT34vWa9RrSumg75h033JjCqi/+1d+ki8B14BDj8oX7Mlxp1R1yGBDqoCeHPa2w6HNfnf+9exEW5UfM5fniEXRRXg6JytCoDB6yCCByGBLKdc5ivTYJix565KHuc/+9/0i1kLdLHdCUj1YL+Q6eaGcENTmciOVj2fibg4yQfzso5oswI9eb7iz62p93/2PxWbTUbSm3SZY/o2hbvM/zRp3RjtY2iXLT+GPHu3/91+Pdp9c8hq5cLrct6nzuxS/pPYYuy+FNnrcVWIWoI6Zf/IKXdp+948703X3vjR9K88e0ct6y7rK8aF8O8Orv+6hmWDQPbIYfG7dGulNoPqwPderHzEXd44+dizuVtgmLYptGCNealn3r2/eluxBb00rCIgAAAADg9DhDYdFgmSvmwc9m836+ixsY0rDLoCi0Ltq2RAj02dv/pDt58pEUGOXxYxfP850dIcKPqC9f5M/KECAHQfmRcjnsKX93qJbDovw+wqIPfvwrK6FTKYcfV1z15hRElO3JcmgwZCg0mj8yrB8Q5O0wdFdK3i7Rrize5995yqFM1Nt6fFqEQ1H+RU955jw4+rW/S3ed/PjHP+6+9Een9ptFLeX868T2SMFICjnW/zZPqVV3rbXcmPjuxnf4L7/4pbV3xGT7ERaVw2BwtLh7qDcUj41bPupuOfSDoNVH1K2GRcvPZ/F+27AotuFYGBTjY/om21pYBAAAAACcHunOnfXDfoRFO0NxJ9GKCIBa01uPw6vvSOoPQ3cy1VoXbWsv+KVf7b7/gx+mi77xujXPOq26a61gZ506LNpEq+5aax3WmV+8H79zo6VVf6m1zEbKx5a1pje06q+1lmtKKeki3DhLwqIQj6KL73J8pzf9PudH323yGLqlZlhUSdtly+/MbJn1gU7rDqa9D4tCbMMY4pF05fh4H8Om21hYBAAAAACcHq3Ap5Kub+9xWFRKv1/UbMM8ENo05Jn7fHf/KdxVFFoXbWsxxIX11rRNtequtYKddc6WsGi3QVFo1V9qLbOpdKdTcTfKOq36a63lVlXBxFkUFmU/+OGP4qudwqPW9NKu6tskLFqEOsMBTTxKbpOh2rYpKKy3dyss6r/fTVgUPnTslln/eHJ5B1H8jfcxvp53iLAIAAAAADgjUnAzEvak6VsNA7831BOhUDVfujNo/bLpevsGw2aPsZtrXbStxZ0BcWE9fpvEnUWr5kHRdkFIqVV/qbXMZtYFEata9dday61oPUItDZsHaq26a63l1kl3Fs2+y/Gd3vT7vKv69iQsapiVu27+dkhYh0X1bxrtPiwK8TtmXzv+9fT6+N33pPf1PGOERQAAAADAaRHXbiNIiRBoeQfPHSe6nTt9IsgZe0zcXohHzRXB0AZ3Ow07PXcWhbhTIH7MPu4WKH+zaFOtumutYGedMx4WpQRv8wCkpVV/qbVMUwpoirbsom2t+mut5dZKbTnzdxbFdze+w/Fd3uR3dLJd1Rfr3PjNog9V4cxGn1F8tsUj/eaBzvyuo9XHDK6GQKtySHVn+hvDbkOiLLZn/B5UBEbxd5vtG4RFAAAAAMD+S3fvzIOgXli0tAhx7tiZb3V6edfO4neE1j6GbrZcMU//MXSNu4zWKgOtnbBofi1+u0fihdZF2zFxsT0uBP/lF7+0q4vtY1rBzjpnOixKd3A0hr38naDWMoPSF2Fn2KYdoVV/rbXcWmc4LIrvanxn47t7KmFna9qggbAohzPzYf02Sd+xopz+3T+5vCokHLmjKX9n6+9GHn8qoVH+naL694s2ISwCAAAAAPbZPNjJQU8zLCrv8Im7jZbByyIUiiDp5tmyN/eXy4+qG/6toXnItBx6dwJV0/IwFPpEuxbtSO+ru5LWt2VV66LtOukxXt++L/2O0Sa/9xJadddawc5+aNVda63DfmnVX2ots19a9dday+2HVt211nK1+I7GdzW+s5t+X2vb1Ld3+o+oK4PJlRBw+RtF/WWWihBxXYCY6tnid65qu93GwiIAAAAA4PRKdxmtDiu/9ZPCmcb4FZveZbR7vTuSFu1Kw0qd/WBsndZF20391098euM7CFp111rBzn5o1V1rrcN+adVfai2zX1r111rL7YdW3bXWcrX4jv72Z36vOW1T29R3RtWPIjxAhEUAAAAAAGdI66LtfmjVXTv/0u83w529FHW06q611mG/tOovtZbZL636a63l9kOr7lpruf1wuuubImERAAAAAMAZ8tPnPqF54XYvRR2tumtHLv2nZsCzl45ceqJZd+10bJewybY5m9oSTkd7zta2/NQ5R1emszeERQAAAAAAZ8ijznti88LtXoo6WnXXzvuFP2oGPHvpvOd+pll37XRsl7DJtjmb2hJOR3vO1racjnBqqoRFAAAAAABnyDnnP6l54XbvHE11tOpe8Zif7Y689j+aIc9eOPK6H3fnPvop7bor+79dwmbb5mxqS9j/9py9bYnXP/mo1nycKmERAAAAAMAZ9KjzLmhevN0LUXarzkEXXtmd/+pHmmHPqTj/1f8+K/uKdp0D9nO7hG22zdnUlrCf7Tnb23I67maaImERAAAAAMAZtvcX3I9ufdE/O+/Cq7ojr9u7O4zSHUVbBkXZ/gQRu9s2Z1Nbwt635+C05ZxUn98v2hvzbS0sAgAAAAA4C8QjtuKuiVP5XZZYNsrY9DFigx79tO685/1ud+TSE92Rl3+/GQKNOX+2TCx73vN+Z+NHzw3Zi+0S9mLbnE1tCXvRngPblqjv3Fyf4Gg7R+fberb9YjvG9hQWAQAAAAAATJiwCAAAAAAAYMKERQAAAAAAABMmLAIAAAAAAJgwYREAAAAAAMCECYsAAAAAAAAmTFgEAAAAAAAwYcIiAAAAAACACRMWAQAAAAAATJiwCAAAAAAAYMKERQAAAAAAABMmLAIAAAAAAJgwYREAAAAAAMCECYsAAAAAAAAmTFgEAAAAAAAwYcIiAAAAAACACRMWAQAAAAAATJiwCAAAAAAAYMKERQAAAAAAABMmLAIAAAAAAJgwYREAAAAAAMCECYsAAAAAAAAm68nd/wcD6Djww510ggAAAABJRU5ErkJggg==;" parent="1" vertex="1">
          <mxGeometry x="-140" y="40" width="1285" height="654.39" as="geometry" />
        </mxCell>
        <mxCell id="E2hqsEqv0XKlIa9BZqip-4" value="" style="endArrow=classic;html=1;rounded=0;" parent="1" edge="1">
          <mxGeometry width="50" height="50" relative="1" as="geometry">
            <mxPoint x="1110" y="70" as="sourcePoint" />
            <mxPoint x="1310" y="70" as="targetPoint" />
            <Array as="points">
              <mxPoint x="1110" y="70" />
            </Array>
          </mxGeometry>
        </mxCell>
        <mxCell id="E2hqsEqv0XKlIa9BZqip-48" style="edgeStyle=orthogonalEdgeStyle;rounded=0;orthogonalLoop=1;jettySize=auto;html=1;exitX=0.5;exitY=1;exitDx=0;exitDy=0;entryX=0.5;entryY=0;entryDx=0;entryDy=0;" parent="1" source="E2hqsEqv0XKlIa9BZqip-8" target="E2hqsEqv0XKlIa9BZqip-40" edge="1">
          <mxGeometry relative="1" as="geometry" />
        </mxCell>
        <mxCell id="E2hqsEqv0XKlIa9BZqip-8" value="导入文件" style="swimlane;align=left;spacingLeft=20;" parent="1" vertex="1">
          <mxGeometry x="1310" y="60" width="500" height="300" as="geometry">
            <mxRectangle x="1310" y="60" width="80" height="23" as="alternateBounds" />
          </mxGeometry>
        </mxCell>
        <mxCell id="E2hqsEqv0XKlIa9BZqip-18" value="&lt;sup&gt;&lt;span style=&quot;font-size: 11px&quot;&gt;文件名&lt;/span&gt;&lt;font color=&quot;#ff0000&quot;&gt;*&lt;/font&gt;&lt;/sup&gt;" style="fillColor=none;strokeColor=none;html=1;fontSize=11;fontStyle=0;align=left;fontColor=#596780;fontStyle=1;fontSize=11" parent="E2hqsEqv0XKlIa9BZqip-8" vertex="1">
          <mxGeometry x="40" y="66.5" width="240" height="20" as="geometry" />
        </mxCell>
        <mxCell id="E2hqsEqv0XKlIa9BZqip-19" value="Messina Cake" style="rounded=1;arcSize=9;align=left;spacingLeft=5;strokeColor=#4C9AFF;html=1;strokeWidth=2;fontSize=12" parent="E2hqsEqv0XKlIa9BZqip-8" vertex="1">
          <mxGeometry x="105" y="53.5" width="290" height="33" as="geometry" />
        </mxCell>
        <mxCell id="E2hqsEqv0XKlIa9BZqip-21" value="&lt;sup&gt;&lt;span style=&quot;font-size: 11px&quot;&gt;上传文件&lt;/span&gt;&lt;font color=&quot;#ff0000&quot;&gt;*&lt;/font&gt;&lt;/sup&gt;" style="fillColor=none;strokeColor=none;html=1;fontSize=11;fontStyle=0;align=left;fontColor=#596780;fontStyle=1;fontSize=11" parent="E2hqsEqv0XKlIa9BZqip-8" vertex="1">
          <mxGeometry x="30" y="110" width="40" height="20" as="geometry" />
        </mxCell>
        <mxCell id="E2hqsEqv0XKlIa9BZqip-24" value="上传文件" style="rounded=1;fillColor=#0057D8;align=center;strokeColor=none;html=1;fontColor=#ffffff;fontSize=12;sketch=0;" parent="E2hqsEqv0XKlIa9BZqip-8" vertex="1">
          <mxGeometry x="105" y="103.5" width="86" height="33" as="geometry" />
        </mxCell>
        <mxCell id="E2hqsEqv0XKlIa9BZqip-25" value="" style="html=1;shadow=0;dashed=0;shape=mxgraph.atlassian.checkbox;fillColor=#008465;strokeColor=none;html=1;sketch=0;align=left;" parent="E2hqsEqv0XKlIa9BZqip-8" vertex="1">
          <mxGeometry x="191" y="122.5" width="14" height="14" as="geometry" />
        </mxCell>
        <mxCell id="E2hqsEqv0XKlIa9BZqip-28" value="仅支持.csv格式文件" style="fillColor=none;strokeColor=none;html=1;fontSize=11;fontStyle=0;align=left;fontColor=#596780;fontStyle=1;fontSize=11" parent="E2hqsEqv0XKlIa9BZqip-8" vertex="1">
          <mxGeometry x="220" y="110" width="40" height="20" as="geometry" />
        </mxCell>
        <mxCell id="E2hqsEqv0XKlIa9BZqip-29" value="下一步" style="rounded=1;fillColor=#0057D8;align=center;strokeColor=none;html=1;fontColor=#ffffff;fontSize=12;sketch=0;" parent="E2hqsEqv0XKlIa9BZqip-8" vertex="1">
          <mxGeometry x="390" y="220" width="80" height="33" as="geometry" />
        </mxCell>
        <mxCell id="E2hqsEqv0XKlIa9BZqip-75" value="字段名行：" style="text;html=1;strokeColor=none;fillColor=none;align=center;verticalAlign=middle;whiteSpace=wrap;rounded=0;" parent="E2hqsEqv0XKlIa9BZqip-8" vertex="1">
          <mxGeometry x="30" y="189" width="90" height="21" as="geometry" />
        </mxCell>
        <UserObject label="1" placeholders="1" name="Variable" id="iCvSTgKMwHiJvs2i57wi-2">
          <mxCell style="text;html=1;strokeColor=none;fillColor=none;align=center;verticalAlign=middle;whiteSpace=wrap;overflow=hidden;" parent="E2hqsEqv0XKlIa9BZqip-8" vertex="1">
            <mxGeometry x="111" y="190" width="80" height="20" as="geometry" />
          </mxCell>
        </UserObject>
        <mxCell id="iCvSTgKMwHiJvs2i57wi-3" value="第一个数据行：" style="text;html=1;strokeColor=none;fillColor=none;align=center;verticalAlign=middle;whiteSpace=wrap;rounded=0;" parent="E2hqsEqv0XKlIa9BZqip-8" vertex="1">
          <mxGeometry x="30" y="220" width="100" height="30" as="geometry" />
        </mxCell>
        <UserObject label="1" placeholders="1" name="Variable" id="iCvSTgKMwHiJvs2i57wi-4">
          <mxCell style="text;html=1;strokeColor=none;fillColor=none;align=center;verticalAlign=middle;whiteSpace=wrap;overflow=hidden;" parent="E2hqsEqv0XKlIa9BZqip-8" vertex="1">
            <mxGeometry x="111" y="220" width="80" height="20" as="geometry" />
          </mxCell>
        </UserObject>
        <mxCell id="iCvSTgKMwHiJvs2i57wi-10" value="说明" style="html=1;verticalAlign=bottom;endArrow=block;rounded=0;exitX=1;exitY=1;exitDx=0;exitDy=0;" parent="E2hqsEqv0XKlIa9BZqip-8" source="iCvSTgKMwHiJvs2i57wi-4" edge="1">
          <mxGeometry width="80" relative="1" as="geometry">
            <mxPoint x="220" y="270" as="sourcePoint" />
            <mxPoint x="530" y="270.43055555555554" as="targetPoint" />
            <Array as="points" />
          </mxGeometry>
        </mxCell>
        <mxCell id="E2hqsEqv0XKlIa9BZqip-40" value="导入文件" style="swimlane;align=left;spacingLeft=20;" parent="1" vertex="1">
          <mxGeometry x="1310" y="450" width="500" height="300" as="geometry">
            <mxRectangle x="1310" y="60" width="80" height="23" as="alternateBounds" />
          </mxGeometry>
        </mxCell>
        <mxCell id="E2hqsEqv0XKlIa9BZqip-47" value="保存" style="rounded=1;fillColor=#0057D8;align=center;strokeColor=none;html=1;fontColor=#ffffff;fontSize=12;sketch=0;" parent="E2hqsEqv0XKlIa9BZqip-40" vertex="1">
          <mxGeometry x="392" y="250" width="80" height="33" as="geometry" />
        </mxCell>
        <mxCell id="E2hqsEqv0XKlIa9BZqip-52" value="" style="shape=table;html=1;whiteSpace=wrap;startSize=0;container=1;collapsible=0;childLayout=tableLayout;align=left;" parent="E2hqsEqv0XKlIa9BZqip-40" vertex="1">
          <mxGeometry x="60" y="90" width="412" height="147" as="geometry" />
        </mxCell>
        <mxCell id="E2hqsEqv0XKlIa9BZqip-53" value="" style="shape=partialRectangle;html=1;whiteSpace=wrap;collapsible=0;dropTarget=0;pointerEvents=0;fillColor=none;top=0;left=0;bottom=0;right=0;points=[[0,0.5],[1,0.5]];portConstraint=eastwest;align=left;" parent="E2hqsEqv0XKlIa9BZqip-52" vertex="1">
          <mxGeometry width="412" height="50" as="geometry" />
        </mxCell>
        <mxCell id="E2hqsEqv0XKlIa9BZqip-54" value="字段名" style="shape=partialRectangle;html=1;whiteSpace=wrap;connectable=0;fillColor=none;top=0;left=0;bottom=0;right=0;overflow=hidden;pointerEvents=1;align=left;" parent="E2hqsEqv0XKlIa9BZqip-53" vertex="1">
          <mxGeometry width="83" height="50" as="geometry">
            <mxRectangle width="83" height="50" as="alternateBounds" />
          </mxGeometry>
        </mxCell>
        <mxCell id="E2hqsEqv0XKlIa9BZqip-65" value="字段类型" style="shape=partialRectangle;html=1;whiteSpace=wrap;connectable=0;fillColor=none;top=0;left=0;bottom=0;right=0;overflow=hidden;pointerEvents=1;align=left;" parent="E2hqsEqv0XKlIa9BZqip-53" vertex="1">
          <mxGeometry x="83" width="82" height="50" as="geometry">
            <mxRectangle width="82" height="50" as="alternateBounds" />
          </mxGeometry>
        </mxCell>
        <mxCell id="E2hqsEqv0XKlIa9BZqip-55" value="字段分布类型" style="shape=partialRectangle;html=1;whiteSpace=wrap;connectable=0;fillColor=none;top=0;left=0;bottom=0;right=0;overflow=hidden;pointerEvents=1;align=left;" parent="E2hqsEqv0XKlIa9BZqip-53" vertex="1">
          <mxGeometry x="165" width="83" height="50" as="geometry">
            <mxRectangle width="83" height="50" as="alternateBounds" />
          </mxGeometry>
        </mxCell>
        <mxCell id="E2hqsEqv0XKlIa9BZqip-56" value="描述" style="shape=partialRectangle;html=1;whiteSpace=wrap;connectable=0;fillColor=none;top=0;left=0;bottom=0;right=0;overflow=hidden;pointerEvents=1;align=left;" parent="E2hqsEqv0XKlIa9BZqip-53" vertex="1">
          <mxGeometry x="248" width="82" height="50" as="geometry">
            <mxRectangle width="82" height="50" as="alternateBounds" />
          </mxGeometry>
        </mxCell>
        <mxCell id="iCvSTgKMwHiJvs2i57wi-80" value="&lt;span&gt;标签&lt;/span&gt;" style="shape=partialRectangle;html=1;whiteSpace=wrap;connectable=0;fillColor=none;top=0;left=0;bottom=0;right=0;overflow=hidden;pointerEvents=1;align=left;" parent="E2hqsEqv0XKlIa9BZqip-53" vertex="1">
          <mxGeometry x="330" width="82" height="50" as="geometry">
            <mxRectangle width="82" height="50" as="alternateBounds" />
          </mxGeometry>
        </mxCell>
        <mxCell id="E2hqsEqv0XKlIa9BZqip-57" value="" style="shape=partialRectangle;html=1;whiteSpace=wrap;collapsible=0;dropTarget=0;pointerEvents=0;fillColor=none;top=0;left=0;bottom=0;right=0;points=[[0,0.5],[1,0.5]];portConstraint=eastwest;align=left;" parent="E2hqsEqv0XKlIa9BZqip-52" vertex="1">
          <mxGeometry y="50" width="412" height="44" as="geometry" />
        </mxCell>
        <mxCell id="E2hqsEqv0XKlIa9BZqip-58" value="yxh" style="shape=partialRectangle;html=1;whiteSpace=wrap;connectable=0;fillColor=none;top=0;left=0;bottom=0;right=0;overflow=hidden;pointerEvents=1;align=left;" parent="E2hqsEqv0XKlIa9BZqip-57" vertex="1">
          <mxGeometry width="83" height="44" as="geometry">
            <mxRectangle width="83" height="44" as="alternateBounds" />
          </mxGeometry>
        </mxCell>
        <mxCell id="E2hqsEqv0XKlIa9BZqip-66" value="" style="shape=partialRectangle;html=1;whiteSpace=wrap;connectable=0;fillColor=none;top=0;left=0;bottom=0;right=0;overflow=hidden;pointerEvents=1;align=left;" parent="E2hqsEqv0XKlIa9BZqip-57" vertex="1">
          <mxGeometry x="83" width="82" height="44" as="geometry">
            <mxRectangle width="82" height="44" as="alternateBounds" />
          </mxGeometry>
        </mxCell>
        <mxCell id="E2hqsEqv0XKlIa9BZqip-59" value="" style="shape=partialRectangle;html=1;whiteSpace=wrap;connectable=0;fillColor=none;top=0;left=0;bottom=0;right=0;overflow=hidden;pointerEvents=1;align=left;" parent="E2hqsEqv0XKlIa9BZqip-57" vertex="1">
          <mxGeometry x="165" width="83" height="44" as="geometry">
            <mxRectangle width="83" height="44" as="alternateBounds" />
          </mxGeometry>
        </mxCell>
        <mxCell id="E2hqsEqv0XKlIa9BZqip-60" value="this is" style="shape=partialRectangle;html=1;whiteSpace=wrap;connectable=0;fillColor=none;top=0;left=0;bottom=0;right=0;overflow=hidden;pointerEvents=1;align=left;" parent="E2hqsEqv0XKlIa9BZqip-57" vertex="1">
          <mxGeometry x="248" width="82" height="44" as="geometry">
            <mxRectangle width="82" height="44" as="alternateBounds" />
          </mxGeometry>
        </mxCell>
        <mxCell id="iCvSTgKMwHiJvs2i57wi-81" style="shape=partialRectangle;html=1;whiteSpace=wrap;connectable=0;fillColor=none;top=0;left=0;bottom=0;right=0;overflow=hidden;pointerEvents=1;align=left;" parent="E2hqsEqv0XKlIa9BZqip-57" vertex="1">
          <mxGeometry x="330" width="82" height="44" as="geometry">
            <mxRectangle width="82" height="44" as="alternateBounds" />
          </mxGeometry>
        </mxCell>
        <mxCell id="E2hqsEqv0XKlIa9BZqip-61" value="" style="shape=partialRectangle;html=1;whiteSpace=wrap;collapsible=0;dropTarget=0;pointerEvents=0;fillColor=none;top=0;left=0;bottom=0;right=0;points=[[0,0.5],[1,0.5]];portConstraint=eastwest;align=left;" parent="E2hqsEqv0XKlIa9BZqip-52" vertex="1">
          <mxGeometry y="94" width="412" height="53" as="geometry" />
        </mxCell>
        <mxCell id="E2hqsEqv0XKlIa9BZqip-62" value="" style="shape=partialRectangle;html=1;whiteSpace=wrap;connectable=0;fillColor=none;top=0;left=0;bottom=0;right=0;overflow=hidden;pointerEvents=1;align=left;" parent="E2hqsEqv0XKlIa9BZqip-61" vertex="1">
          <mxGeometry width="83" height="53" as="geometry">
            <mxRectangle width="83" height="53" as="alternateBounds" />
          </mxGeometry>
        </mxCell>
        <mxCell id="E2hqsEqv0XKlIa9BZqip-67" style="shape=partialRectangle;html=1;whiteSpace=wrap;connectable=0;fillColor=none;top=0;left=0;bottom=0;right=0;overflow=hidden;pointerEvents=1;align=left;" parent="E2hqsEqv0XKlIa9BZqip-61" vertex="1">
          <mxGeometry x="83" width="82" height="53" as="geometry">
            <mxRectangle width="82" height="53" as="alternateBounds" />
          </mxGeometry>
        </mxCell>
        <mxCell id="E2hqsEqv0XKlIa9BZqip-63" value="" style="shape=partialRectangle;html=1;whiteSpace=wrap;connectable=0;fillColor=none;top=0;left=0;bottom=0;right=0;overflow=hidden;pointerEvents=1;align=left;" parent="E2hqsEqv0XKlIa9BZqip-61" vertex="1">
          <mxGeometry x="165" width="83" height="53" as="geometry">
            <mxRectangle width="83" height="53" as="alternateBounds" />
          </mxGeometry>
        </mxCell>
        <mxCell id="E2hqsEqv0XKlIa9BZqip-64" value="" style="shape=partialRectangle;html=1;whiteSpace=wrap;connectable=0;fillColor=none;top=0;left=0;bottom=0;right=0;overflow=hidden;pointerEvents=1;align=left;" parent="E2hqsEqv0XKlIa9BZqip-61" vertex="1">
          <mxGeometry x="248" width="82" height="53" as="geometry">
            <mxRectangle width="82" height="53" as="alternateBounds" />
          </mxGeometry>
        </mxCell>
        <mxCell id="iCvSTgKMwHiJvs2i57wi-82" style="shape=partialRectangle;html=1;whiteSpace=wrap;connectable=0;fillColor=none;top=0;left=0;bottom=0;right=0;overflow=hidden;pointerEvents=1;align=left;" parent="E2hqsEqv0XKlIa9BZqip-61" vertex="1">
          <mxGeometry x="330" width="82" height="53" as="geometry">
            <mxRectangle width="82" height="53" as="alternateBounds" />
          </mxGeometry>
        </mxCell>
        <mxCell id="0rr_-BuDZdRbgkuV8nIT-1" value="String" style="html=1;shadow=0;dashed=0;shape=mxgraph.bootstrap.rrect;rSize=5;strokeColor=#505050;strokeWidth=1;fillColor=#ffffff;fontColor=#777777;whiteSpace=wrap;align=left;verticalAlign=middle;fontStyle=0;fontSize=14;spacingRight=0;spacing=17;" parent="E2hqsEqv0XKlIa9BZqip-40" vertex="1">
          <mxGeometry x="150" y="151" width="70" height="25" as="geometry" />
        </mxCell>
        <mxCell id="0rr_-BuDZdRbgkuV8nIT-2" value="" style="shape=triangle;direction=south;fillColor=#495057;strokeColor=none;perimeter=none;" parent="0rr_-BuDZdRbgkuV8nIT-1" vertex="1">
          <mxGeometry x="1" y="0.5" width="10" height="5" relative="1" as="geometry">
            <mxPoint x="-17" y="-2.5" as="offset" />
          </mxGeometry>
        </mxCell>
        <mxCell id="0rr_-BuDZdRbgkuV8nIT-3" value="连续型" style="html=1;shadow=0;dashed=0;shape=mxgraph.bootstrap.rrect;rSize=5;strokeColor=#505050;strokeWidth=1;fillColor=#ffffff;fontColor=#777777;whiteSpace=wrap;align=left;verticalAlign=middle;fontStyle=0;fontSize=14;spacingRight=0;spacing=17;" parent="E2hqsEqv0XKlIa9BZqip-40" vertex="1">
          <mxGeometry x="226.5" y="150" width="79" height="26" as="geometry" />
        </mxCell>
        <mxCell id="0rr_-BuDZdRbgkuV8nIT-4" value="" style="shape=triangle;direction=south;fillColor=#495057;strokeColor=none;perimeter=none;" parent="0rr_-BuDZdRbgkuV8nIT-3" vertex="1">
          <mxGeometry x="1" y="0.5" width="10" height="5" relative="1" as="geometry">
            <mxPoint x="-17" y="-2.5" as="offset" />
          </mxGeometry>
        </mxCell>
        <mxCell id="0rr_-BuDZdRbgkuV8nIT-5" value="" style="html=1;shadow=0;dashed=0;shape=mxgraph.bootstrap.checkbox2;labelPosition=right;verticalLabelPosition=middle;align=left;verticalAlign=middle;gradientColor=#DEDEDE;fillColor=#EDEDED;checked=0;spacing=5;checkedFill=#0085FC;checkedStroke=#ffffff;sketch=0;fontSize=6;" parent="E2hqsEqv0XKlIa9BZqip-40" vertex="1">
          <mxGeometry x="420" y="151" width="20" height="22" as="geometry" />
        </mxCell>
        <mxCell id="E2hqsEqv0XKlIa9BZqip-70" value="&lt;h1&gt;表格说明&lt;/h1&gt;&lt;p&gt;字段名：&lt;span&gt;内容默认分别为导入csv文件第一样的值。&lt;/span&gt;&lt;span&gt;用户可在默认内容的基础上进行修改，作为新的字段名。&lt;/span&gt;&lt;/p&gt;&lt;p&gt;&lt;br&gt;字段类型：为下拉框由用户选择&lt;/p&gt;&lt;p&gt;字段分布类型：为下拉框由用户选择，分别为连续型，离散型两个值&lt;br&gt;&lt;br&gt;&lt;/p&gt;&lt;p&gt;标签： 单击一下就出现标签的图标&lt;/p&gt;" style="text;html=1;strokeColor=none;fillColor=none;spacing=5;spacingTop=-20;whiteSpace=wrap;overflow=hidden;rounded=0;align=left;" parent="1" vertex="1">
          <mxGeometry x="1880" y="480" width="190" height="270" as="geometry" />
        </mxCell>
        <mxCell id="E2hqsEqv0XKlIa9BZqip-71" value="" style="endArrow=classic;html=1;rounded=0;exitX=1.006;exitY=0.221;exitDx=0;exitDy=0;exitPerimeter=0;entryX=-0.019;entryY=0.301;entryDx=0;entryDy=0;entryPerimeter=0;" parent="1" source="E2hqsEqv0XKlIa9BZqip-57" target="E2hqsEqv0XKlIa9BZqip-70" edge="1">
          <mxGeometry width="50" height="50" relative="1" as="geometry">
            <mxPoint x="1550" y="570" as="sourcePoint" />
            <mxPoint x="1870" y="550" as="targetPoint" />
          </mxGeometry>
        </mxCell>
        <mxCell id="iCvSTgKMwHiJvs2i57wi-9" value="不可编辑，固定值为1；&lt;br&gt;不论csv是否带有标题，都将第一行作为临时标题" style="text;html=1;strokeColor=none;fillColor=none;align=center;verticalAlign=middle;whiteSpace=wrap;rounded=0;" parent="1" vertex="1">
          <mxGeometry x="1840" y="240" width="140" height="50" as="geometry" />
        </mxCell>
        <mxCell id="iCvSTgKMwHiJvs2i57wi-7" value="说明" style="html=1;verticalAlign=bottom;endArrow=block;rounded=0;" parent="1" edge="1">
          <mxGeometry width="80" relative="1" as="geometry">
            <mxPoint x="1530" y="259" as="sourcePoint" />
            <mxPoint x="1840" y="259.43055555555554" as="targetPoint" />
            <Array as="points" />
          </mxGeometry>
        </mxCell>
        <mxCell id="iCvSTgKMwHiJvs2i57wi-11" value="下拉框，1或者2" style="text;html=1;strokeColor=none;fillColor=none;align=center;verticalAlign=middle;whiteSpace=wrap;rounded=0;" parent="1" vertex="1">
          <mxGeometry x="1840" y="310" width="140" height="50" as="geometry" />
        </mxCell>
        <mxCell id="iCvSTgKMwHiJvs2i57wi-18" value="" style="html=1;verticalLabelPosition=bottom;align=center;labelBackgroundColor=#ffffff;verticalAlign=top;strokeWidth=2;strokeColor=#0080F0;shadow=0;dashed=0;shape=mxgraph.ios7.icons.pointer;fontSize=6;" parent="1" vertex="1">
          <mxGeometry x="1050" y="610" width="30" height="30" as="geometry" />
        </mxCell>
        <mxCell id="iCvSTgKMwHiJvs2i57wi-19" value="发布" style="html=1;verticalAlign=bottom;endArrow=block;rounded=0;exitX=1;exitY=1;exitDx=0;exitDy=0;entryX=1;entryY=0;entryDx=0;entryDy=0;" parent="1" target="iCvSTgKMwHiJvs2i57wi-20" edge="1">
          <mxGeometry x="-0.0013" width="80" relative="1" as="geometry">
            <mxPoint x="1064.41" y="650" as="sourcePoint" />
            <mxPoint x="1064.41" y="830" as="targetPoint" />
            <Array as="points" />
            <mxPoint as="offset" />
          </mxGeometry>
        </mxCell>
        <mxCell id="iCvSTgKMwHiJvs2i57wi-20" value="发布" style="swimlane;align=left;spacingLeft=20;" parent="1" vertex="1">
          <mxGeometry x="270" y="810" width="500" height="300" as="geometry">
            <mxRectangle x="1310" y="60" width="80" height="23" as="alternateBounds" />
          </mxGeometry>
        </mxCell>
        <mxCell id="iCvSTgKMwHiJvs2i57wi-21" value="发布" style="rounded=1;fillColor=#0057D8;align=center;strokeColor=none;html=1;fontColor=#ffffff;fontSize=12;sketch=0;" parent="iCvSTgKMwHiJvs2i57wi-20" vertex="1">
          <mxGeometry x="395" y="250" width="80" height="33" as="geometry" />
        </mxCell>
        <mxCell id="iCvSTgKMwHiJvs2i57wi-39" value="" style="shape=table;html=1;whiteSpace=wrap;startSize=0;container=1;collapsible=0;childLayout=tableLayout;align=left;" parent="iCvSTgKMwHiJvs2i57wi-20" vertex="1">
          <mxGeometry x="55" y="100" width="330" height="140" as="geometry" />
        </mxCell>
        <mxCell id="iCvSTgKMwHiJvs2i57wi-40" value="" style="shape=partialRectangle;html=1;whiteSpace=wrap;collapsible=0;dropTarget=0;pointerEvents=0;fillColor=none;top=0;left=0;bottom=0;right=0;points=[[0,0.5],[1,0.5]];portConstraint=eastwest;align=left;" parent="iCvSTgKMwHiJvs2i57wi-39" vertex="1">
          <mxGeometry width="330" height="43" as="geometry" />
        </mxCell>
        <mxCell id="iCvSTgKMwHiJvs2i57wi-41" value="选择" style="shape=partialRectangle;html=1;whiteSpace=wrap;connectable=0;fillColor=none;top=0;left=0;bottom=0;right=0;overflow=hidden;pointerEvents=1;align=left;" parent="iCvSTgKMwHiJvs2i57wi-40" vertex="1">
          <mxGeometry width="83" height="43" as="geometry">
            <mxRectangle width="83" height="43" as="alternateBounds" />
          </mxGeometry>
        </mxCell>
        <mxCell id="iCvSTgKMwHiJvs2i57wi-42" value="字段" style="shape=partialRectangle;html=1;whiteSpace=wrap;connectable=0;fillColor=none;top=0;left=0;bottom=0;right=0;overflow=hidden;pointerEvents=1;align=left;" parent="iCvSTgKMwHiJvs2i57wi-40" vertex="1">
          <mxGeometry x="83" width="82" height="43" as="geometry">
            <mxRectangle width="82" height="43" as="alternateBounds" />
          </mxGeometry>
        </mxCell>
        <mxCell id="iCvSTgKMwHiJvs2i57wi-43" value="类型" style="shape=partialRectangle;html=1;whiteSpace=wrap;connectable=0;fillColor=none;top=0;left=0;bottom=0;right=0;overflow=hidden;pointerEvents=1;align=left;" parent="iCvSTgKMwHiJvs2i57wi-40" vertex="1">
          <mxGeometry x="165" width="83" height="43" as="geometry">
            <mxRectangle width="83" height="43" as="alternateBounds" />
          </mxGeometry>
        </mxCell>
        <mxCell id="iCvSTgKMwHiJvs2i57wi-44" value="标签" style="shape=partialRectangle;html=1;whiteSpace=wrap;connectable=0;fillColor=none;top=0;left=0;bottom=0;right=0;overflow=hidden;pointerEvents=1;align=left;" parent="iCvSTgKMwHiJvs2i57wi-40" vertex="1">
          <mxGeometry x="248" width="82" height="43" as="geometry">
            <mxRectangle width="82" height="43" as="alternateBounds" />
          </mxGeometry>
        </mxCell>
        <mxCell id="iCvSTgKMwHiJvs2i57wi-45" value="" style="shape=partialRectangle;html=1;whiteSpace=wrap;collapsible=0;dropTarget=0;pointerEvents=0;fillColor=none;top=0;left=0;bottom=0;right=0;points=[[0,0.5],[1,0.5]];portConstraint=eastwest;align=left;" parent="iCvSTgKMwHiJvs2i57wi-39" vertex="1">
          <mxGeometry y="43" width="330" height="44" as="geometry" />
        </mxCell>
        <mxCell id="iCvSTgKMwHiJvs2i57wi-46" value="" style="shape=partialRectangle;html=1;whiteSpace=wrap;connectable=0;fillColor=none;top=0;left=0;bottom=0;right=0;overflow=hidden;pointerEvents=1;align=left;" parent="iCvSTgKMwHiJvs2i57wi-45" vertex="1">
          <mxGeometry width="83" height="44" as="geometry">
            <mxRectangle width="83" height="44" as="alternateBounds" />
          </mxGeometry>
        </mxCell>
        <mxCell id="iCvSTgKMwHiJvs2i57wi-47" value="name" style="shape=partialRectangle;html=1;whiteSpace=wrap;connectable=0;fillColor=none;top=0;left=0;bottom=0;right=0;overflow=hidden;pointerEvents=1;align=left;" parent="iCvSTgKMwHiJvs2i57wi-45" vertex="1">
          <mxGeometry x="83" width="82" height="44" as="geometry">
            <mxRectangle width="82" height="44" as="alternateBounds" />
          </mxGeometry>
        </mxCell>
        <mxCell id="iCvSTgKMwHiJvs2i57wi-48" value="String" style="shape=partialRectangle;html=1;whiteSpace=wrap;connectable=0;fillColor=none;top=0;left=0;bottom=0;right=0;overflow=hidden;pointerEvents=1;align=left;" parent="iCvSTgKMwHiJvs2i57wi-45" vertex="1">
          <mxGeometry x="165" width="83" height="44" as="geometry">
            <mxRectangle width="83" height="44" as="alternateBounds" />
          </mxGeometry>
        </mxCell>
        <mxCell id="iCvSTgKMwHiJvs2i57wi-49" value="" style="shape=partialRectangle;html=1;whiteSpace=wrap;connectable=0;fillColor=none;top=0;left=0;bottom=0;right=0;overflow=hidden;pointerEvents=1;align=left;" parent="iCvSTgKMwHiJvs2i57wi-45" vertex="1">
          <mxGeometry x="248" width="82" height="44" as="geometry">
            <mxRectangle width="82" height="44" as="alternateBounds" />
          </mxGeometry>
        </mxCell>
        <mxCell id="iCvSTgKMwHiJvs2i57wi-50" value="" style="shape=partialRectangle;html=1;whiteSpace=wrap;collapsible=0;dropTarget=0;pointerEvents=0;fillColor=none;top=0;left=0;bottom=0;right=0;points=[[0,0.5],[1,0.5]];portConstraint=eastwest;align=left;" parent="iCvSTgKMwHiJvs2i57wi-39" vertex="1">
          <mxGeometry y="87" width="330" height="53" as="geometry" />
        </mxCell>
        <mxCell id="iCvSTgKMwHiJvs2i57wi-51" value="" style="shape=partialRectangle;html=1;whiteSpace=wrap;connectable=0;fillColor=none;top=0;left=0;bottom=0;right=0;overflow=hidden;pointerEvents=1;align=left;" parent="iCvSTgKMwHiJvs2i57wi-50" vertex="1">
          <mxGeometry width="83" height="53" as="geometry">
            <mxRectangle width="83" height="53" as="alternateBounds" />
          </mxGeometry>
        </mxCell>
        <mxCell id="iCvSTgKMwHiJvs2i57wi-52" style="shape=partialRectangle;html=1;whiteSpace=wrap;connectable=0;fillColor=none;top=0;left=0;bottom=0;right=0;overflow=hidden;pointerEvents=1;align=left;" parent="iCvSTgKMwHiJvs2i57wi-50" vertex="1">
          <mxGeometry x="83" width="82" height="53" as="geometry">
            <mxRectangle width="82" height="53" as="alternateBounds" />
          </mxGeometry>
        </mxCell>
        <mxCell id="iCvSTgKMwHiJvs2i57wi-53" value="" style="shape=partialRectangle;html=1;whiteSpace=wrap;connectable=0;fillColor=none;top=0;left=0;bottom=0;right=0;overflow=hidden;pointerEvents=1;align=left;" parent="iCvSTgKMwHiJvs2i57wi-50" vertex="1">
          <mxGeometry x="165" width="83" height="53" as="geometry">
            <mxRectangle width="83" height="53" as="alternateBounds" />
          </mxGeometry>
        </mxCell>
        <mxCell id="iCvSTgKMwHiJvs2i57wi-54" value="" style="shape=partialRectangle;html=1;whiteSpace=wrap;connectable=0;fillColor=none;top=0;left=0;bottom=0;right=0;overflow=hidden;pointerEvents=1;align=left;" parent="iCvSTgKMwHiJvs2i57wi-50" vertex="1">
          <mxGeometry x="248" width="82" height="53" as="geometry">
            <mxRectangle width="82" height="53" as="alternateBounds" />
          </mxGeometry>
        </mxCell>
        <mxCell id="iCvSTgKMwHiJvs2i57wi-55" value="" style="html=1;shadow=0;dashed=0;shape=mxgraph.bootstrap.checkbox2;labelPosition=right;verticalLabelPosition=middle;align=left;verticalAlign=middle;gradientColor=#DEDEDE;fillColor=#EDEDED;checked=0;spacing=5;checkedFill=#0085FC;checkedStroke=#ffffff;sketch=0;fontSize=6;" parent="iCvSTgKMwHiJvs2i57wi-20" vertex="1">
          <mxGeometry x="101" y="170" width="10" height="10" as="geometry" />
        </mxCell>
        <mxCell id="iCvSTgKMwHiJvs2i57wi-72" value="" style="html=1;shadow=0;dashed=0;shape=mxgraph.bootstrap.checkbox2;labelPosition=right;verticalLabelPosition=middle;align=left;verticalAlign=middle;gradientColor=#DEDEDE;fillColor=#EDEDED;checked=0;spacing=5;checkedFill=#0085FC;checkedStroke=#ffffff;sketch=0;fontSize=6;" parent="iCvSTgKMwHiJvs2i57wi-20" vertex="1">
          <mxGeometry x="101" y="220" width="10" height="10" as="geometry" />
        </mxCell>
        <mxCell id="iCvSTgKMwHiJvs2i57wi-75" value="区间：" style="text;html=1;strokeColor=none;fillColor=none;align=center;verticalAlign=middle;whiteSpace=wrap;rounded=0;fontSize=6;" parent="iCvSTgKMwHiJvs2i57wi-20" vertex="1">
          <mxGeometry x="80" y="253" width="60" height="30" as="geometry" />
        </mxCell>
        <mxCell id="iCvSTgKMwHiJvs2i57wi-77" value="1" style="rounded=1;arcSize=9;align=left;spacingLeft=5;strokeColor=#4C9AFF;html=1;strokeWidth=2;fontSize=12" parent="iCvSTgKMwHiJvs2i57wi-20" vertex="1">
          <mxGeometry x="130" y="255.5" width="60" height="22" as="geometry" />
        </mxCell>
        <mxCell id="iCvSTgKMwHiJvs2i57wi-78" value="32767" style="rounded=1;arcSize=9;align=left;spacingLeft=5;strokeColor=#4C9AFF;html=1;strokeWidth=2;fontSize=12" parent="iCvSTgKMwHiJvs2i57wi-20" vertex="1">
          <mxGeometry x="235" y="257" width="60" height="22" as="geometry" />
        </mxCell>
        <mxCell id="iCvSTgKMwHiJvs2i57wi-79" value="to" style="text;html=1;strokeColor=none;fillColor=none;align=center;verticalAlign=middle;whiteSpace=wrap;rounded=0;fontSize=6;" parent="iCvSTgKMwHiJvs2i57wi-20" vertex="1">
          <mxGeometry x="185" y="253" width="60" height="30" as="geometry" />
        </mxCell>
        <mxCell id="0rr_-BuDZdRbgkuV8nIT-6" value="" style="html=1;shadow=0;dashed=0;shape=mxgraph.bootstrap.checkbox2;labelPosition=right;verticalLabelPosition=middle;align=left;verticalAlign=middle;gradientColor=#DEDEDE;fillColor=#EDEDED;checked=0;spacing=5;checkedFill=#0085FC;checkedStroke=#ffffff;sketch=0;fontSize=6;" parent="iCvSTgKMwHiJvs2i57wi-20" vertex="1">
          <mxGeometry x="331" y="160" width="10" height="10" as="geometry" />
        </mxCell>
        <mxCell id="0rr_-BuDZdRbgkuV8nIT-11" value="" style="html=1;shadow=0;dashed=0;shape=mxgraph.bootstrap.checkbox2;labelPosition=right;verticalLabelPosition=middle;align=left;verticalAlign=middle;gradientColor=#DEDEDE;fillColor=#EDEDED;checked=0;spacing=5;checkedFill=#0085FC;checkedStroke=#ffffff;sketch=0;fontSize=6;" parent="iCvSTgKMwHiJvs2i57wi-20" vertex="1">
          <mxGeometry x="101" y="120" width="10" height="10" as="geometry" />
        </mxCell>
        <mxCell id="3YnIMTN7fweCklffJ4Rw-1" value="&lt;sup&gt;&lt;span style=&quot;font-size: 11px&quot;&gt;数据集名&lt;/span&gt;&lt;font color=&quot;#ff0000&quot;&gt;*&lt;/font&gt;&lt;/sup&gt;" style="fillColor=none;strokeColor=none;html=1;fontSize=11;fontStyle=0;align=left;fontColor=#596780;fontStyle=1;fontSize=11" parent="iCvSTgKMwHiJvs2i57wi-20" vertex="1">
          <mxGeometry x="72.5" y="53" width="240" height="20" as="geometry" />
        </mxCell>
        <mxCell id="3YnIMTN7fweCklffJ4Rw-2" value="Messina Cake" style="rounded=1;arcSize=9;align=left;spacingLeft=5;strokeColor=#4C9AFF;html=1;strokeWidth=2;fontSize=12" parent="iCvSTgKMwHiJvs2i57wi-20" vertex="1">
          <mxGeometry x="150" y="46.5" width="290" height="33" as="geometry" />
        </mxCell>
        <mxCell id="iCvSTgKMwHiJvs2i57wi-86" value="预览" style="html=1;verticalAlign=bottom;endArrow=block;rounded=0;exitX=1;exitY=1;exitDx=0;exitDy=0;" parent="1" edge="1">
          <mxGeometry x="-0.0013" width="80" relative="1" as="geometry">
            <mxPoint x="1094.4099999999999" y="630" as="sourcePoint" />
            <mxPoint x="1110" y="860" as="targetPoint" />
            <Array as="points" />
            <mxPoint as="offset" />
          </mxGeometry>
        </mxCell>
        <mxCell id="0rr_-BuDZdRbgkuV8nIT-16" value="" style="shape=image;verticalLabelPosition=bottom;labelBackgroundColor=#ffffff;verticalAlign=top;aspect=fixed;imageAspect=0;image=data:image/png,iVBORw0KGgoAAAANSUhEUgAAA3MAAAF8CAYAAABlgOKGAAAAAXNSR0IArs4c6QAAAARnQU1BAACxjwv8YQUAAAAJcEhZcwAADsMAAA7DAcdvqGQAAC1SSURBVHhe7d1trGR3fdjxvGxtJzgF0pAHAcH2rnfXBnuxgaoloaShBDVJm9Am0CTFQBLUSpGqSlVeVaqQZQmI1aZUaSNF6sMLGsnrdO0XqKFErZKUNYtKaZoSid0NMQlK1RfdNSYPpD09//Mwcx5+Z2buvefMnLP385c+9r0zZ+bcPefO7P87/7l3v+7Ou+7Oai99+Suy7/qed2bf90M/AQAAwAGlNnvpy79l1Wu1uyqrmLvrG16avfXtPxLeCQAAAPv3XX/lnUWrNWOu6LfcKube+JfeEd4YAACAw0mt1gy5WhFzr3zN+fBGAAAAHF5qtjDm3vq2vxXeAAAAgMN7y9v+Zj/mvvlbXhVuDAAAwHykdmvF3Ote/5ZwQwAAAOYjtVsr5t781r8RbggAAMB8pHa7866XrGPuu7/33eGGAAAAzEdqt1bMveOvvzfcEAAAgPl4+/f/nXbMRRsBAAAwL3/tB99f/GPhddCJOQAAgIW4884UcmIOAABgUcQcAADAAt0h5gAAAJZHzAEAACzQHXd+g5gDAABYGjEHAACwQGXMJWIOAABgMcQcAADAAq1j7iViDgAAYClmF3O/8JsvZi/85sfC61Z+8fPZC1/5fPYLrct/PXs+ezH73C82LyvvL/vSr7cu23R58okvZdu/BgAAgANaaMx9LPtcHlxZN+hS5GVfzj5RfZ6irLdNpRlzxcfbxsD9AAAAp8PlZz+RfeUrL2Y//Q/+cXh9ujxdn7aLrh/bwWKuCK2jjs5KWr2Ctut9Pf/J9W2LgMsP9PNBOFqZAwAAIv/9f/x2EWw/8mM/3br8fR/4meLyTz33X1uXT2mZK3PbdFbo2j6WfS5F3JfKmHshvTXzk2n7zUPcAQAAKeKu33g+u3bjd1dBl/6fPk+XdyNvSoeLuSK4jjLqOEs/G1ePgWDbGHPp9l/OPle/zfKTX+6FmpU5AABgSPF2yhe/mn3ik+U7B9NqXPo8rc51t53SclfmWsHWDLyBUf/MW7pd/vEn6pgrVuqqbTaO/i9XAQAATqcUdGn8wR/87+L/Qz9HN6XDxNyRV+Xq0QiqTatvm6775JeLiGv+AhQAAICj+o+/+htFpaT/R9dPbUYrc+UK2fO/Wa6cbf3NkceNuUor5rbG5eb7AgAATpfVytz/Om0rcz1VyFW/bTIOrU5QrYJt17dJ5qOxEtfbx1BA7hCGAADA6VH8zNxXXlytyBU/M5d/vu+fmfszf/au3NcXDhRz9c+7tYNp9c8NrCLrY9kvNH9mbVNk7RBgVuYAAICjin5zZfp/9zdc7sNBV+bKYMtDaSi+0s+35SP8hSir25S/nbJ12+PEnJU5AABgi+LfmXvxq71oK/6dufzy/3Lldv935opAavwj3q0wK0cz4IrwKkb3F6BUo/H2yfV1R4y56q7iIeYAAOC0u/zsJ4pgG/r5uOLtl/n1abvo+rHN42fmqhW4o0RTEWMnWE2zMgcAACzZjH6b5X5tjrnOv1vXXfkDAAA4sFMbcwAAAEsm5gAAABZIzAEAACzQHXeIOQAAgMURcwAAAAsk5gAAABZIzAEAACyQmAMAAFggMQcAALBARcwV/zyBmAMAAFgMMQcAALBAYg4AAGCB7rjjruyOO7++IOYAAAAWQswBAAAskJgDAABYIDEHAACwQGIOAABggcQcAADAAok5AACABRJzAAAAC3THHWXIiTkAAIAFacXcfWdfn9179mJ275mHs3sKD2X33Fd6zcrrAAAAmFTZX3WPFW2WN1pqtdRsqd3aMXf/64sLi6A7W25YRl0VdgAAAOxR2WNlxK1DLrVbJ+YeKS5MyqCrVTes7wQAAIBp1R3WaLO611K7tWLuzLlHsjONoFtZrdYBAACwL/UqXFNqttRunZh7NL8wqaMuCDsAAAD2rGy0otWqbmvF3NlVzDWiDgAAgBlYt1pqt3bMnX9DdvZ8eUU/7AAAADiUutOKZsvbLYi5rnpjAAAADqPfajvEHAAAAHMj5gAAABYoxdydd31D4evuv/DGrCm6AQAAAPvX7bU77yxDLow5AAAA5knMAQAALJCYAwAAWCAxBwAAsEBiDgAAYIHEHAAAwAKJOQAAgAUScwAAAAsk5gAAABZIzAEAACyQmAMAAFggMQcAALBAYg4AAGCBxBwAAMACiTkAAIAFesndL1sRcwAAAAtxamPu7Pk3BB7NzpyrPVK47/5HsrNveCy78Lafz177zl/LHn7sZnbxJzP2KB3zdOwvfM8/z848+p7s3rOvz89LLZ2j/sf1Nulc1uc3+j5gOvVxT+egeU5KzttcNc9b/RxYPx+Wl6Vzsz4/TdH9AQDTEXMr+eSkmqisJi6ve0f22h/6z2FgcBgP/8T/yx78wf+U3ffa760C4GL5/yICqo8bMRCde/YvnYt0Turz47wtR3nu2kGXniujoItuDwBMR8yt1CGXTzjPvzE7/z0/lz38vj8Mg4LDSTH38E/83+yhx17Izr/1Z7N78/OVVnPKFZ0UBY+0zmt07tm/5jkpV+IuOm8LUz4/ljFXBJ2YA4CDO5Ux152AFKoJSpqsnH3oB/KQ+2oYExxOGXJlzD38/j/Ng+5Wdua135cHQQqDPAhy0bmNvgfYn+iclDHnvC1Nf3XOeQOAQxJzhTrkSq/74f8WxgSH1Y25h9/3J9mD73yuWN0poqBY3bFaMDfd85HOUTpXq5hz3hYjnRercwAwH2KusA65+9/4k2FIcHirkCti7mtFzD30vj/Kzjz63iLoTC7nqXs+6sdb/TZL521Z6udK5w0ADk/MJavJySPZhbf9yzAkOLzWqlwecw+974+zh977h9m5v/yzxdv2isllMcFsn9/oe4D96Z6P+vGW3l7pvC1Pef6G32oZ3QYAmIaYS4rJSTlBefCdvxGGBIc3FHMXvv/jeRRUKzwml7PTPR/14631Gyydt8VI50bMAcA8iLn0NqF8QlLG3KPZw4/9nzAkOLzuz8vVMffgj34pj4Lm5LI9wYy+B9if5rloPt76Mee8LUE6N+2Yc94A4FDEXD4RSZOS0iNhRDAP/Zj7ozzmvpq97rGvrCaXxQTT5HJWmuei+3hz3pbJeQOAeTh1MdecdJTak8soIji8MuSOF3NJ9L3A9Lrn4Sgxl0T3yeE5bwAwD2JOzC2CmFum7nkQc7cH5w0A5kHMiblFEHPL1D0PYu724LwBwDyIOTG30eUvZ9mt346v2ycxN6Ynsys3s+za09F14+qeBzF3e3DeAGAexNzMYu7DeThtHHlc9bbvXFb4jfzyF/Prt13WlbbZcewz8uYXc89m17Jb2ZUn0sdlHN187snONk1p+6ON6P4uXe9fHl3W9fhzt6p73T7GjLzuedh/zOXH/eZnssfTx098JruZ3cgu1R/Xlz99Iz+A1ceR5vXFfWwZ158tbpfOS3/cyK5sOxfVvopzVt1X62vvXncAYg4A5kHMzSzmmoZWxdLlN/LoSh8PxdzQba/mMbcxwnYJvty+V+zmFnPFRL05mS4m23XcRZrxd1wD97F137tO/sdfseueh/3HXHmuij/TKojaf87V9Z3brfRibh1VXZuOc+97JtkQksMxt+GFgU1ROiIxBwDzIOZmHHP5NC+7HFy+S8yl217Nt8mngzuNq/+uuq2Vua2KSXYwaS4uH5zor0MsbTe4kpYm90PRVU38LxX72WE0vsbya9tt3G4xVxz7dEzrIMqP4/r4D4RRcQ761928nt928Bx3AixXh2IRcsH3TLp86HuhdV+NmOvu4xDEHADMg5iba8xFUVWtmG2LucG3Xu4i7dfK3KAyirZM5sPr1zFXr4D1JvfFhD2f/OeT+/7qyslWzXYLgNtvZa48HwMjHf9OPIfHqbl6Vp2jjaN1+yoIW+d6ICCLsV5hbX0tdcwV/0/b1PexeUV2KmIOAOZBzM005tLbIVerZblmoG2LubQqt7psh5W25n6szA0ZCLBImvynTVsrLs2YKxWrNavwKyfnG1fs8lGHVnnbDaPzdW6Mms64/VbmqhWwYlWteQ76oZWOU+8c9GJuS8x3Y3AVYPVlab/bgj+OufTzdu2vr/q+TKO73wmJOQCYBzE3x5hLQdUJtGbAbYq54vM0OrffWdq3lbmeIp6ONFnuxl8/5pJmlA2GXGPCbmXuaOrjW/yZiiDqjDzw1mE18OevYu7Sc3lMPd2PuSIUe+euEVmtkb4HmjHX/bj/PTJHYg4A5kHMzTDmuqtyF/OP07pK/fNzgzFXbXcj//woK3P1fe26fT1O39sshybo3bF91aV9eRrDk/gixG7m0dEIjWYExqP9NRT3seO4nWJupVjZjM5LM+Cic1SfnyrYoiAMRusYrlb20n2lr6H+f33/zY/b+9/5vO1xVS4RcwAwD2JuZjG3irM6qlLY5Z83w2kw5vLL0nbd1bojSfu1Mrfd0NvtBqOhP1FfhUI+ES/jLA66S9fT5SdbNTvtK3PRqP+c9bEpo7nx9tT6HG95m2W8MtdQ374Xdfl1rfsbiLkt5223czsuMQcA8yDmZhZzaVWu+RssUzSl0b1s6G2Wvcuq1bpNo7UKGEh5Ev1WzX2aXcw1J/jdyzuT/VJnol6v8DQm4ZuCrhtaxQR+04i+tqa0/23bjKB7HvYdc0kvdnpBVkV1PsKQbZ7r6uMrGyKxF3a975VOzK2u2yXmyq+1+XWKOQA4vcTczGKuq0iDKtxqR465DStt6f5XMVeFXwq3FJWr/UardVvud2xzi7mh1ZhiYh1G0nqiXofY8M9ZRUHXj7nB1aBuPKw+b8dCGAFp2xHDoHse9h9zZfykUR678jh2j10Z0lGE5xrHs9guPz5D5z+8fEPM1fe3vnxLzBUhOrTN+n5X209EzAHAPIi5Gcfc1n/gOzdmzDXfOtmKuVy6z/rz+rpiP3sKujnFXBlj8aS5uG5TzBW/QGNgBagQx8bxY655u34slG/hbF/XDoyT6Z6H/cfcWvHnSqPzZysvv5FdS/+Pzl0rhstjGUZbLry8F3Ol8vsoP4/pG6K63+b1feX+yxF8//VWHKcj5gBgHsTcTGMuRVYzpoaMFnNp9S0fzV+yEoZkur/6NtV2u3ydJzWXmCsn/u0gWivDKQ6hfkgdzfFirh2X7fvo3WYVAmm7k3yta93zcJCYK/5saZR/vjKi0sfV+Wr9ufNPu+FVH8/GcV2FYTC2x1wdZY3wKkIsH9H3Tn1dGun6oWjr7Wc6Yg4A5kHMzS3mqqja9HNsRaw1RjemejFXbjY4wn1VX0c4OvG4DwePuSoIuhP1/qQ+mGQXmqsqO47WxLwfcxvHwKR+0+0G4/AEuudh3zE3HN/V+QjiqbhNcfn6nN187tnW8U/bRMereXnzWHcvG1qFW+27GXC9c1lHaHeME+C7EHMAMA9ibm4xN4JjrcwF183JXFbmDqcfc4PxtccVmm2652HfMcc0nDcAmAcxdxvG3O1IzC1T9zyIuduD8wYA8yDmxNwiiLll6p4HMXd7cN4AYB7EnJhbBDG3TN3zIOZuD84bAMyDmBNziyDmlql7HsTc7cF5A4B5OHUxl7QnHvlEpJqUiLl568fcH+cx94etmEvnsju5jL4H2J/mueg+3py3ZXLeAGAexFxSTCzF3Ny1Yu79X1vF3EOPvdiZXLbPb/Q9wP50z8dwzLW3i+6LeXDeAGAexFxSTCxLUUQwD4Mx996vrs6fyeX8dM9H8/HmvC2T8wYA8yDmCutJZRQRzEM35po/N7eaXHbe8pVE3wPsT/d8NB9vztsyOW8AMA9irpBPSKrJSRQRzEMZc/HPzRUTS5PLWeqej+bjzXlbJucNAOZBzK2IubnrxVxjda6YXAYTyyT6HmB/onNSP96ct2Vy3gBgHk5lzCX9SUg+MRFzs7eKuc7qnFWCeeuel/rx5rwtk/MGAPNwkJi79+zDB3fPmYdCD/7o7zFjD/ztL1Wezx549++W3vXF8Fwm0bln/6Jzs0l0H8xHdM6SaFsAOG2i/pnKqY05AACAsUX9MxUxBwAAMJKof6Yi5gAAAEYS9c9U7rzr7uyuipgDAAA4gah/piLmAAAARhL1z1TEHAAAwEii/pmKmAMAABhJ1D9TEXMAAAAjifpnKmIOAABgJFH/TEXMAQAAjCTqn6ksLOYuZ1/I0riVferx6PrSU9eKjTaPm5/OPhjc9tR4/NPZzepQdMfNKx9ab3fpenHZFy41blv4UPap6g761wGHVDwHXrtcfV49b64+T4/d5nPo+rHcG/nz5FNXbuUfXM+e6t0PsD/l46/593PxOK/mMh8sHqeduVHx93x67DYuW11e3le6nb/DYXxR/0xlYTG3W0CUMTcUfNWE5LTHXC2KtcYTfRxzGyZ/q7E5uIGppAla+bgtn+eaEdZ47HairDkx7E8SxRwc1jrmysfkplEGXDkXykd3vrP6O/7T5WPa39cwuqh/pjLrmNv+hNUc61efxNzuwmO1Meaq4xe92pdb/eVhwgcHtX6lvhFhgyvt7YBrfizm4MCqx2096tW5/uO0P+9Jl9+89unsqaG/4xuR2LwdcDJR/0xlETG3aRUusgqKTUPM5eowa478L4NLQzHXnswV56dxHIUcHFr0mN4w0mO1mtjF41b2hWtiDg7vZNFVz6cGhzkRjCrqn6ksJOa2T1COGnzUx7e7opl/vvVtlkl8TpwHmI/oha3wMdp6pT56xV/MwWE1Ym7jCzD5SI/R5mpeK9TWb7U+bhgC20X9M5VFrcwVnzcmEvX1qyeqzlsRdhmnNz66r/JVT/DpWO4Uc43bpOFVPZiR+sWWboTVlzcf+3X0rd+i1Yy53n2KOTiAxmP32vXGiy/l5c2P14/Rxt/r1f2s5k35KO7H390wiah/prKAmKsnGJ1JSP3KVPREVAVIc7JCRzpG6Qm/DrfmXw5bY259LjaN0xvKcDj1atz68ded4OWqx3i5TfULUxrXt2Ou+Xjv/0wOMK1WgHX/jq4en82Ph2Kuvp8vXKnmT6uxfocOMI6of6ayoJgr1ROVYgy8olQ/YZVPbv3raXj8Q9WvHk+jekIfirnq8tVoTg4bVn9hiDk4vPpxO/B4jdWr7iZ5MA+NaOv+XdwdQcx9qp47peuCv+M91mFcUf9MZdYxV7/1p/wB/G1j/UTUfBVrcBxpYnOb665kDsVcvf2WyaGYgwPZNsnrjvoFsSPczuMaDqEfc+Xf2buszOXzo/SLzTqP99Xf+env+Wv5dVbdYTRR/0xlxjE3/MpwHXmtt1/uGmdbQuTUqY/HwCqnmIMFqx+rq7Hrq+9W5mBeThJznb/fW7dvXA6MJuqfqcw35uql/yAYmjFXhsMRfo6juwp1mm0LuVwYZr0JYjzEHBzO+i3pdZBVE718bH9sijmYlWaAbfs7uJo3tX4sxQvYsFdR/0xl9m+zXE861hORYmwIkKbWk9lqmKCsjmd4HOuJXDUGXtWzMgcz05zkDT1HdrfZNjEMhsc27FH94nb9wnX1mO2/KN1cmUsf1y90d/5OD8cRXhQHtor6ZyqzjjkAAIAlifpnKmIOAABgJFH/TEXMAQAAjCTqn6mIOQAAgJFE/TMVMQcAADCSqH+mIuYAAABGEvXPVMQcAADASKL+mYqYAwAAGEnUP1MRcwAAACOJ+mcqYg4AAGAkUf9MRcwBAACMJOqfqYg5AACAkUT9M5WDxNzFR78bAADgthP1z1TEHAAAwEii/pmKmAMAABhJ1D9TEXMAAAAjifpnKmIOAABgJFH/TEXMAQAAjCTqn6mIOQAAgJFE/TMVMQcAADCSqH+mIuYAAABGEvXPVMQcAADASKL+mYqYAwAAGEnUP1MRcwAAACOJ+mcqYg4AAGAkUf9M5SV3v2xFzAEAAJxA1D9TEXMAAAAjifpnKmIOAABgJFH/TGUhMffR7OqtF7KrH4mu47gu38iy7MbHw+sKH/lsdiv7YnY5ug6YpQ9ffSF/YHfGrc9mHw62TYrngdboPubT829+F1c/2rislG67vvzjWe+uOvstvrbwayn30R03nuluBwDzF/XPVOYfc0VQpCHmxibm4PYTBVMdeO04qgIq3Lb5fHu0mFvvo7r/xnPMtpiL9gEASxP1z1TmHXPPfDGfCaSYSJMEMbd3Yg4WZzCYVs+nW7brXXfcmKvuR8wBcMpE/TOVecfcipibQn9lrv02qRtXxRwszW7BVH48+DbG4oWc+jn3uDE3EHdiDoDbXNQ/UxFzp1g75sqJ13oyVU6u+j8/A8zZcDA142vbc2ozxI4Wc63ReRv3tphrD889ACxT1D9TEXOnWCvm0luwupMsb7OExRkv5k66Mlc9xzS+FitzAJwGUf9MRcydYs2YKyZZnVfRxRwsz7Zgaq62NcOrZZS3WdaXrZ+7xRwAp0HUP1MRc6dYL+a6k6zOL0wA5m8wmI76C1AaL+40nyvWukEYxFwrCsUcAKdD1D9TEXOnWGuCVky6+hMzMQfLEgVTcVnvObQMqJ22LUKwHWrlds3nh37MFc8xjfsXcwCcBlH/TEXMnWK9V9urCVs58uP9jLdZwtKUkdUZYUCViueB5hjatvX8kEb3uaF+AagxwlDsjGKbKiw7Q9wBsERR/0xlITEHAAAwf1H/TEXMAQAAjCTqn6mIOQAAgJFE/TMVMQcAADCSqH+mIuYAAABGEvXPVMQcAADASKL+mYqYAwAAGEnUP1MRcwAAACOJ+mcqYg4AAGAkUf9MRcwBAACMJOqfqYg5AACAkUT9MxUxBwAAMJKof6Yi5gAAAEYS9c9UxBwAAMBIov6ZipgDAAAYSdQ/UxFzAAAAI4n6ZypiDgAAYCRR/0xFzAEAAIwk6p+pHCTmAAAAOBkxBwAAsEBiDgAAYIHEHAAAwAKJOQAAgAUScwAAAAsk5gAAABZIzAEAACyQmAMAAFggMQcAALBAYg4AAGCBxBwAAMACiTkAAIAFuvOuu7O7KmIOAABgIcQcAADAAok5AACABZp5zD2ZXbmZNcaN7FK4HQC1x5+7VT1nplE/b3afT5vjVnblie7tynHzuScb913ex/qyZ7NrxVbl7dfb5Z74THZz8PLm8LwOAMc165hLE4trT68/v3Q9/3v/5meyxxvbALBWBFnreTIPruvPtrYpI6wfWr3bVuG1fh4eirl8dJ+bg5grY7G733Qfgg4AjmNZb7MsJgf+0geIlbHVfBEstmPM5dKLaOt4i2Pu2vUbZc81V/G6MRfEHQBwMsuKuafThEHMjaWYuF1/tnq1vBytyViuWA2tR3OSl85F/vml7m2rV/LL0T1Xnbd59VYLgJOpHmNbH1sjx1wej+VzReMx34m34nqPeQAY1YJirpw0dGOD46sjbnVMi1huTPDyz9ev8HeOf7Ft//P1RLA7qYw/dz5hZPULKp0oa9sx5rrPCRtirv549RhvxVx5u+0rhgDAUSwj5urJiVd1R9V/FX7zhKv1Cn0xyWuuvDUndaXi/utz1tu+cz0woiqs0ggfYxtirjl6Qbgp5nLVizrF59tirn4BqBj9rwUA2G72MVdPLoYCg+Prx1RnwtWabFWjGWetid5AzNXbRPeVRm+yCIynirre42xDzK22LW/bXj3fEnO51dstg7dZtu+rFn8tAMB28465IgC6P3fFWDbH3MAk7UQx51zC3hVR1X3sxQHVjrlc8bhtbrc95urLspu3WjE3/BwQfy0AwHYzjrnupIGxHSnmum91PWrMVdc3z2e6vj0JBE4mPYbbwdQLtEIcUNG27V9cskvM5YpwS6O9j9WqXXPbga8FANhu9jEXDQEwjs0xl1tNyPKRT/CunGRlrrFNPYQ6TKH9ODvKalgYftULOeXjdceYy5XhNrCP7mg9DwEAu1rGL0ABAACgRcwBAAAskJgDAABYIDEHAACwQGIOAABggcQcAADAAok5AACABRJzAAAACyTmAAAAFkjMAQAALJCYAwAAWCAxBwAAsEBiDgAAYIHEHAAAwAKJOQAAgAUScwAAAAsk5gAAABZIzAEAACzQQWLu4qPfDQAAcNuJ+mcqYg4AAGAkUf9MRcwBAACMJOqfqYg5AACAkUT9MxUxBwAAMJKof6Yi5gAAAEYS9c9UxBwAAMBIov6ZipgDAAAYSdQ/UxFzAAAAI4n6ZypiDgAAYCRR/0xFzAEAAIwk6p+piDkAAICRRP0zFTEHAAAwkqh/pvKSu1+2IuYAAABOIOqfqYg5AACAkUT9MxUxBwAAMJKof6Yy+5i7fCNbj1ufzT4cbMN+fPjqC1l24+PhdaWPZzeyF7KrH4muA/aleKyuxhezy8XlH82u3qou6o3ycdu+XTluXf1o477L+1hflh7zaQSP+498Nrs1eHlz1F8fANweov6Zyrxj7pkvZjeeqT/vTiLYNzEH81c8TlsvfOWPy97jNn6s9m5bhdfw83Adc/novtgWxFwZi939pvsQdADcPqL+mcq8Y66jWKXbGBNMSczB3JWxtY6vITvGXC49767jLY65Gze+mHKu/WJbN+aGVuoA4DYT9c9UFhRzQmEKG9/G+kw5QSvHF7OrvZgrJ3b1uHX1s61zVMdfvY/VBLN1v51z2ryuua+hy4GG6jG59TEycszlj+3ycd5YYevEW3G9xy4Ap0DUP1OZfcytY8PbcEbXehtrOSlbTdKKeGpM9qq3W60nY/1JY3muOjGXNmmuEnTvt/i8OrfdV+6f+Wz58dDl6WOgrX6sdl+cadkx5rqP1w0xV3+8ek5oPW7L27WeCwDgNhX1z1RmH3NrndhgdM1X4Jsf1+qVtuLzYqLWDez2BLH/Kn93Iti5TTUJ7U34hi4HBlRhlUa4GtZ+rNbqF2BWoxeEm2IuV8Rf9fm2mKu2LUf/awGApYr6ZyoLirlccxWHk2tNpqpRTPziV9FbMZdu25voBTHXmkiW9xuN7mQwjVb0DV0ObFBF3ZbHaq39Akx52/bjbUvM5coV+vx5uhVz8QtEpfhrAYClivpnKsuLud6khOMZmIQ1Yq478Vpfn39exFUnrDuTt6GY2ynGrNLBOIrHzOZV9Fo75nLF47y53faYqy/Lbr3Qej4InzNW24s5AG4fUf9MZdYxd/lG8y/+coKwUwiwg84krIqkOr6KSV1z4lWvjK3irHs+6lW3TTEX3G+6n3rymO9jPSks76/4fOjy1X0ApfT4aAdTL9AKcUBF27ZexNkp5nL180VnH6tVu+a2A18LACxV1D9TmXXM1ROFegi5ka0mXPnIJ3BXW5O2euJVjfz6y904qwOwGjeeaU/KophbXb4azYldHYTV6EwgVyO4T6DWft48ympYGH7V47x8/t0x5nLl88fAPrrDYxqA20jUP1OZecwBAAAsR9Q/UxFzAAAAI4n6ZypiDgAAYCRR/0xFzAEAAIwk6p+piDkAAICRRP0zFTEHAAAwkqh/piLmAAAARhL1z1TEHAAAwEii/pmKmAMAABhJ1D9TEXMAAAAjifpnKmIOAABgJFH/TEXMAQAAjCTqn6mIOQAAgJFE/TMVMQcAADCSqH+mIuYAAABGEvXPVMQcAADASKL+mYqYAwAAGEnUP1MRcwAAACOJ+mcqB4k5AAAATkbMAQAALJCYAwAAWCAxBwAAsEBiDgAAYIHEHAAAwAKJOQAAgAUScwAAAAsk5gAAABZIzAEAACyQmAMAAFggMQcAALBAYg4AAGCB7rzr7uyuipgDAABYCDEHAACwQGIOAABggcQcAADAAok5AACABRJzAACM5uz5N2T33f9I7vXZvWcfPpZ02zPnHinuK9rHzh58S3buHb+UXXjX72QX3v189sB7syO78K7nczeyc2//t/n9fWe8nx2McVySdPt0Pzsdm3ybM6t9XuzdF5tcLI5bOn7pOIbHdwbEHAAAozhz7tFgUnwy6T6jfW1z7i/8vezCe/4kDLTjuvCer2X3v+mnwv1tMsVxSVLwRvtLyn0KuHFczM4e8/twamIOAIATmypYkqMGXQq58z/+QhhkJ5Xu99ybPhDuNzLlcUmiY5MiL9qWk9kUz4ci5gAAOJH0lr9o8juei7u/5fLBt4y+Itd14bGvZfc/8OZ4/w3TH5ekfWyKfZ6JtuPE8uO68/fhnog5AABOJP0MVzj5HdGuqyLpZ+SiABvbubf/m3D/Tfs4Lknz2Jz0Z/LYLJ3T5jk+NDEHAMCJ7CMg0j6ifXelX3YSxdfY0i9FifbftK+wah4bPyc3tYutc3xoYg4AgBOJJ73ji/bdddzfWnlU59/1fLj/pujPMJV6n/cc6i2Wl65nWXYr+9TjwXU7+OCVW/ntdx83r3wovJ+ppeM7p7daijkAgH164jPZzZufyR5vXf5kduXmrezKE83L2tJc+drT3cs232ajp2/kU+IT3L4hmvTu6vt+4IezDz7+4fC6rmjfXVF4bfVr+aF4McueiK7bINp/U/RniKQ/fzoO0XW7Ouo+C8U31eX48tXYIdAe/3R2s9o6HDc/nX0wul2uiLih69PXseG2h9I8x4cm5gAA9q0VdCnk+qHWNWrMpf1X8+xw9GJzs2jCu4t/+DP/KD8Otw4bcynk0jhwzKXjkI5HdP0ujrrPp65Vf+5uzBVhtg64csXsevZUc5umavub+TfUFy51r7+cfSG/df/y2oeyT+W3G1plS1/j8G0Pp3mOD03MAQDsSWvBY2g0Q6pYPdt1rMPu8eeab1m7kV2q7y8pQq6cfPcD8tkszfG3hWVXNOHdJgVMGkcJmGjfXVF0Dfnl3y++hOx6+v8BYy5JxyGNf/JzPx9ev83u+1wHVBFqnZgrIq912YYgK0JuHXrFbauVtDIWN0Rg0rn91hW+YhztrZxXnrua/Ydf+WR4Xe1XPvGrxXbRdZHmOT40MQcAsCfR6lpL+BbM0u4rc0/mE9NnV58XAXm9+rwIuXXcFddV+ytDsxN+O4omvJs89fTl7NatF7IP/N2/H14/JNp3VxRdQ37518r/P/H5/I9+4JhL3v1j7y+Oy1OX/n14/SbH2Wc/5srQa4fb5tWztnLbcmwJuVxv/ynmNr6tMt3/0WLuu976jo3fa+nydH3aLro+0jzHhybmAAD2ZD8x15FW9+qY6ynf4lmO44VcEk14Iw8/8ubst37r89mXfu/3j/UzYtG+u6Lo2mYuMZek45KOTzpO6XhF20SOs89+zMWrcGmVLYq5cvWtOZqhVd5Xa2zbVy/m0jbNKDx6zCX121i7xzN9fpS3+daa5/jQxBwAwJ6Uq19bxsgx17xdf//N25dvsWyNwQhsiya8XWnl4/kv/V72W//zt48UKU3Rvrui6NpmTjGXFNGbH6d0vHZdMTrOPk8ac7EUXNtX5cJfbjJRzCXR2y2P+vbKWvMcH5qYAwDYkyjIWsZamWv8rN3G/RXS6tzxV+WSaMLblaIkBcpRV5yaon13RdG1zSxjrlrB3G/MlW+TPMrbLIv72GF0bx8GYhRzrc+PH3PpODbfbnmct1fWmuf40MQcAMBBpJWwTStrwUrZthGspBWrcY1AbP9ylOFx87kne/c1JJrwRporTt5mGUvH5TgrmMfZZz/mqrdO9lbrjhJQO6zMFb/oJLjPbsz1Vu+OH3NJ/XbLFHDHeXtlrXmOD03MAQDsw2rVLUVavRLW+WcJnr5xpIjaTXN/kf2szDWlX4CSJtOH/gUotTn9ApR0XNLxia7f5Dj7jGKu/Dfm1sFUbNMKqthT1+rbrGNu6Lbhfrvq4LuU/p/G8SOuKb2tMo3jvL2y1jzHhybmAAD2oFhkKEItjqtixez6s43tguubb8Ec+ke/82i80nhrZe92lfVbNNcxN7TtNtGEd5s5/NMEtTnEXP1PE/zTf/Yvwuu3Oc4+h6KquLwe20KuiK7mWzM7P+dWxGE+Vvsp37bZ/bm8tfLn9vq/DbO+/GRRl1bljvL21UjzHB+amAMAmFoKr1UkxTGX5rzlCl2Kq0ak1T//lt5C+cSTndCq34rZvL/6smp046z45wnqfdXbN27f3F992RbRhHcX9c8t7fp2t2jfXVF0TSXaf1P0Z4ikP386Dvv8R8NHUYRaFV1V1BUjCMDVz8g1b9O5vhz969rKqBuOwek1z/GhiTkAgD2rFytao7ciVr4Fc6eVsqFVuq5iuyrcqqgrRrCP9DXu+pbPaMK7q/QzYmLuw8f6GcKmo+7zUPo/k7c8zXN8aGIOAIATiSa8U4j23XX+Xc+H4TW2tJ9o/03Rn2Eqh9jnadU8x4e2irmvF3MAABzDffe/Ppz0jintI9p314V3/U4YX2O78K4b4f6b9nFckuaxuffsxd71jOli6xwfmpgDAOBEzpx7JJj0jivtI9p317nv/aUwvsZ27q/+q3D/Tfs4Lknz2OwrIE+rXV9U2Jf6LZZiDgCAYzl7/g3hxHc8F4t9RPvuefA7swvv+VoYYGO58NifZvc/8Bfj/TdMf1yS9rFJH99zJtqOk0rHdefvwz0RcwAAnNiZc4+GE+AxpPuO9jnoTT+Vnf/xF8IQO6nzP/6V/P5/Mt5vYMrjkkTHZl8rgqfNrqvD+yTmAAAYxfjhcjGMlV2ce9MHsguPjbtCV6zIHSHkalMF3aa4OFvs08/PjeP434dTE3MAAIwmvQ0tRcZJfnYr3Tbdx4nf0vbAm7Nzb/83xS8rufDu4/2Wy/P57dLtz739X+/01sohYxyXJN3+vvvziNvl2KR95tuW+xR2R3Ox/D7c9VgfiJgDAABYIDEHAACwQGIOAABggeqQE3MAAAALIuYAAAAWSMwBAAAskJgDAABYIDEHAACwQGIOAABggeqQE3MAAAALIuYAAAAWSMwBAAAskJgDAABYoJfc/bLcywtiDgAAYCHEHAAAwAKJOQAAgAUScwAAAAtUh5yYAwAAWBAxBwAAsEBiDgAAYIHEHAAAwAKJOQAAgAWqQ+5uMQcAALAcYg4AAGCBxBwAAMAC1SEn5gAAABZEzAEAACxQHXJiDgAAYEFWMfeNYg4AAGAxxBwAAMAC1SEn5gAAABakDrki5s6ceyTcCAAAgPlI7daKuXvOPhxuCAAAwHykdmvF3Ktecz7cEAAAgPlI7daKuVd863eEGwIAADAfqd1aMffSl70i3BAAAID5SO3Wirn0n1ff82C4MQAAAIeXmq0ZcquYe+nLvzU7e/4N4Y0AAAA4nDPn3lA0WzvmvqmMueTbvv3e8IYAAAAcTmq1bsi1Yi559WsuhDcGAABg/159zwOrXlsLYu4b/9yfz+49+/rwTgAAANif+85eLBqt2Wx1yFUxlz5oBt03Za/6jgfCOwMAAGB6r3z1+aLNmq3WDLlGzHU3enn2za94VXZvXoLRHQMAADC+1GDf/IpX9/qsGXG1Rswl3RvkUfctr8y+7ZVnslff+2B+xw9nZ849Eu4UAACA3aW2uufMw0VrffsrzxbtFTVZu9nWOjGXRDfuuLvtJVu9DAAA4DYXtdBat6PC1urp9tpaEHNJdCcdnS8k+mL7oj8wAADAkkXt09btp7CxeqJWWxuIuSS6s0Dni4q+8Fh0EAAAAJYgapy+bi+FTRWKGq3pm7L/D06jPwtp4gX5AAAAAElFTkSuQmCC;" parent="1" vertex="1">
          <mxGeometry x="980" y="860" width="883" height="380" as="geometry" />
        </mxCell>
        <mxCell id="0rr_-BuDZdRbgkuV8nIT-17" value="文件详情" style="html=1;shadow=0;dashed=0;shape=mxgraph.bootstrap.rrect;rSize=5;strokeColor=none;strokeWidth=1;fillColor=#343A40;fontColor=#ffffff;whiteSpace=wrap;align=center;verticalAlign=middle;spacingLeft=0;fontStyle=0;fontSize=16;spacing=5;" parent="1" vertex="1">
          <mxGeometry x="990" y="870" width="90" height="32" as="geometry" />
        </mxCell>
        <mxCell id="0rr_-BuDZdRbgkuV8nIT-18" value="" style="shape=image;verticalLabelPosition=bottom;labelBackgroundColor=#ffffff;verticalAlign=top;aspect=fixed;imageAspect=0;image=data:image/png,iVBORw0KGgoAAAANSUhEUgAAA3YAAAKvCAYAAAAm613eAAAAAXNSR0IArs4c6QAAAARnQU1BAACxjwv8YQUAAAAJcEhZcwAADsMAAA7DAcdvqGQAAHBwSURBVHhe7f1trGVZeh/28aOt6eG0HCpy4iiiw+H0TE+TIqc5w2GQyBFERSKJKHasJA6FWBEtWxYSwEAQIPCnAAHRGIBNNhx7AhICDCTOB8XAVDs9/YGQGNoIbIVdU40MFUWRAFYVh0OZcBAgqWpSAaIAO/tZ++Wsvfba+5xb9+x7zz73t4Bf3zr79bzUs9b6733q9vd86rXXm9xX/+s/0/z5v/CvAQAAcEEiq5X5LbzWmgS7P/4DX6weAAAAgPsXmS3PcINJsPvTf/a/X90ZAACA+/en/ux/bxLoBmOw+6f/i99f3REAAIDLEdktD3VhDHY/8mN/qroTAAAAlyOyWx7qQh/sPtP8yT/936nuBAAAwOWI7BYZrhrsfvKn/2J1JwAAAC5HZLfFYPcz/8K/Ut0JAACAy/FT/+3/US3Yfab5zGe+r7oDAAAAl+W/9S/+q+n/XZeHuxTsPvWpz1R3AAAA4PJEhhPsAAAAdqwa7P6QYAcAALAbkeEEOwAAgB1bCHbfW90YAACAyxMZTrADAADYsUqw+17BDgAAYEe6YBcEOwAAgF0S7AAAAHbuEOy6r2MKdgAAADtz0cHur//dP2g++bt/o7pu9O/+/eaT3//7zV+fLP9Pmu82f9D8nX83X9Ydr/nd/2SybG15+LXfbY4/BwAAgHs0DXaf2WOw+xvN32nDV1OGuwh8ze81v9Y/joA226aXB7v052Nt4TgAAMDD8MGHv9b8/u//QfNv/M/+l9X1sTzWx3a19ed2EcEuha6btuIO23Bn7dRjfffXD/umMNe+6d+thEh37AAAgJr/6//tH6Tw9j/4l/+NyfK/8tf+zbT8Nx7/XybLt7T/O3bHFHfupv5G83ci0P1uF+w+ia9v/npsv94EPQAAIALds+ffbZ4+/50x3MXPeBzLy8C3pcsIdil83aQNQS3+Ld3QFsLbarCL/X+v+TvDVzF//fdmoc0dOwAAYEn6yuUf/KPm1369+0Zh3KWLx3HXrtx2S9dxx24S3vKwt9CGfyMX+7V//rUh2KU7eP02q23+i1kAAICHKcJdtP/sP/t/pp9L/+5uS/cf7G58t25oWbhauyu3tu7Xfy8FuvyXpwAAANzU//E//NsppcTP2vqtXegdu+7O2Xf/bndH7ehvoHzVYNebBLujQXP9WAAAwMMy3rH7f1zQHbt/4p/8dPNP/JOvVTe+G32o639rZT10FeFqDG+nfpWybdkdutk5lsLkCSERAAB4ONK/sfv9Pxjv1KV/Y9c+vut/YxcZrstynXu+Yzf8+7hpeBr/FwZj4PobzV/P/43bWuA6IYy5YwcAANxU7Tdgxs/yN2XehYv5KmYX3trQtBTE4t/Dta36y1TGfbrfcjnZ91WCnTt2AADAEen/Y/cH/2gW4NL/x65d/n/+6CH9f+xSWMr+h+GTkNa1PMylEJZa+ctT+pZ9xfKw7obBrj9UvQl2AADw0H3w4a+l8Lb07+nSVzTb9bFdbf25Xcwdu1F/Z+4mASoFs1vcZXPHDgAA2LPLC3b3YD3YFf9fvPKOIAAAwD0T7AAAAHZOsAMAANi5erD7Q4IdAADAXkSGE+wAAAB2TLADAADYOcEOAABg5wQ7AACAnRPsAAAAdm4e7D4l2AEAAOxJCnbpf3kg2AEAAOySYAcAALBzs2D3hz716Xbha9WNAQAAuDyR4VKW6wl2AAAAOyPYAQAA7JxgBwAAsHOCHQAAwM4JdgAAADsn2AEAAOycYAcAALBzC8Hu09WNAQAAuDyR4QQ7AACAHVsMdp/7/I81P/j5t5sffONLzWeTH20++7nOD4x+BAAAgE11+WvIYymbtRktslpktshuy8HuCz92CHef73bqAl4f8gAAALhDXR7rAt0h1EV2Wwl2X+7CXasLd4P+IMMBAQAA2NaQw7JsNuS1yG6Lwe6NN7/cvJGFu9F4Fw8AAIC7Mtydy0Vmi+y2Euy+0hsCXiXkAQAAcMe6jJayWp/bFoPd58dglwU8AAAALsAhq0V2Ww52X/zxVrfRPOQBAABwX4acljJbm92OBLvSsCMAAAD3Y57VbhjsAAAAuDR5sPvUa9/bfE/8R7ADAADYj8hwkeUGKdh96lPf23zhra9O1HYGAADg7pV5LTLcScEOAACAyyTYAQAA7JxgBwAAsHOCHQAAwM4JdgAAADsn2AEAAOycYAcAALBzgh0AAMDOCXYAAAA7J9gBAADsnGAHAACwc4IdAADAzgl2AAAAOyfYAQAA7Nws2H3m9e9rQm1jAAAALs+Q4waCHQAAwM7koS48yGD3+S/+eMVXmjfeHHw5+dwXup+xbNiudjy2M7zv8Rl87gs/1vzg538s/ezEZzT/87CNz+3+vOrn9vmv/OXmrT/7y82f+O/+x82Xfu5F8/ZfbbhD8Z7He//Wf/N/3Xz+x38ufT5Df9j1jVFTh7rK1f4eAADbyUNdEOySdqLST1oOk5gvp3W1/bkf8XkMQaHzdvczhYb+z61u8umzuxQnfW5/4qebH/4L/6dq2OD+/In2M3njR35m7BNTbaX6moe72mcPAGwnD3VBsEuGUDcEu69U9+N+5Z9Zd6fn7XSXp7sbFAGhC+OD2jG4e/lnUn5uP9jW2hf/zL/dfOmv/H+qwYL796W/8o+at/7Mv9V87otfHftJwQ4A7l8e6sKDC3blZCTpJyvDVenaftyv2ufWBYTO51q1bWrH4u7UPpP8c3vjR/58Cg61QMHliM/o8z/6z/d95HDXbv7Z1v4OAADbyENdEOyKu3UmJ5ep9rnF3Z8x2KW7de4iXJry85h+bj/W/Il/6dvVIMHl+ZH2szr0le7aAcB9y0NdEOwmwc5XMC/V0uc2fKXPRPMylZ9H/rm98dV/rRoguFxf+OpfHftK9QYA9ysPdUGw6ycp6W5d+7O2D/dv6XOLr2DGV/vSRDMU29WOxd0pP4/8c/vin/2Vanjgcr31Z/6d1FeqNwC4f3moC4JdP9H0NczLtvS5Db9p0UTzMpWfR/65/fBf+NvV8MDl+uF/8T9KfaV6A4D7l4e68MCDXTc5Eewu39LnNg9208lm7VjcnfyzmH5uX26+9HP/72p44HL96M/9v/r+Ur0BwH3LQ1148MFumKREsKttz2VY+9yGOwjBRPOy5J9F+bnVggOXT70BwGXIQ114UMEun4B0phPN2j7cv2Of29pEM9SOyfbKz0Gwuw7qDQAuQx7qgmCXTTRr+3D/jn1uJpqXqfwcBLvroN4A4DLkoS4IdtlEs7YP9+/Y52aieZnKz0Gwuw7qDQAuQx7qgmCXTTRr+zxkj541zYvH71XX3aVjn5uJ5k2813z0ommevl9bd17l5yDYXQf1BgCXIQ91QbDLJpq1fe7SO49fNqvt2Yfz7YtlyfvP20T2cfPOsWWl2ObEdpeB79jndvcTzQ+bp83L5qOvxZ+7oLT+fsT2N2u149WC9inh++jfq6ydM/CVn8N9BLvnf9A078af//dN+4k1zQfDn4flf7tdOPy5Jl/fH2O1/V633wftz1p78g/6Pyy1/lzvxnb9sSbPvVx3DwQ7ALgMeagLgl020aztc1+WJuyxfJh8LwW7+r4nBJBTwl/rlDBxTsc+t7ueaMbrn7zvX/u4eTEGvZo8CL6qhWMcPffKBYCJ89/JKz+H+wh2EbCet+EsD0dP2vCUluXrs30mKsFuCFiltcCVgl65Lj92YS3YLV5+WTjWuQl2AHAZ8lAXBLtsolnb537EJP5586iy7niw6wPA+zHhP6VlocAdu6PSe14Jv91dsfpnloey2G7xvYv3fymA9aH7UTrPCS17jt1zO61dW7ALzyMgDeGoDVMv29A0rute9rT1gapc97Jdno7R71sqg90QGlOoq4SuWJ4/l9xSsLvvu3VBsAOAy5CHuiDYZRPN2j73ohaw+on6sWBXW3Yyd+xWrYe3tfX53bbuztjsfU533trPtn1f5+//7e6mnfZ34vru2KUQtNQiaMUdsywkVUNT5Y7daiv2T5VchLpqmOzbk/YcsU012PU/Y5vhGMP2d0mwA4DLkIe6INhlE83aPncvJtjTr9blE/P1YBcBom3DsqN34KbnOb79oT2sYLcQxmr693D6/uTBrpO+zjmGwO5zW72T17bhc+/2XWnF8+wC52ntmoLdIN0ZC+3ry4NQelez0BVhanYHrRLsbvRVzCyMDcvivLVjxPK1YBf/Pq98fvG10tTK825IsAOAy5CHuiDYZRPN2j53Libxxd2VPMytBbtxAl/sf7I4tzt2MylI3eg9LYPgPNiFPKAtv5/9sdr2qqFrfgGg5vru2KWvQLYt/zd2k9auz0NW/m/vRn2w+6ANVE/aP8cx8lC29HXKMXAVbbjbNhyj/PN93IG7KcEOAC5DHuqCYJdNNGv73K353bruK3qHr/ctBrv+l2g8fZYtO+EO3GQif8L2Q3tYd+zCIWCtt2NfxSyXR6ut66TP+MXz5mkWuvJAWG/T5zAG/hPaNQW7UYSzttXukuVhrhashopI4a0WDittEg77YBh3/OJY8RyGn8Pxl4Jdumt3SrvDu3VBsAOAy5CHuiDYZRPN2j53aQxqQ8B68XHzUXF3bDHYtfvEdpNlN+WO3WmKsD1Kn9upwa4Pde1n1QW1erh71Ab1j752u7tpp/2duN47drU2hK/hK4/pZx/A0v59iItftrL2Vcy1X4CSDPtXAl55vGqwOxLaTtnm3AQ7ALgMeagLgl020aztc3diYj0NBd2Ef76sGux6k2X9L+RYbst3ijoRPmpB5W4d+9zufKK5FIBPDXbD55J9dmvhrgxd6TNea8fCeZz/hAB/W+XncNfBLsyCTyWcxacWbfY1zJAHu/7PT9rjLbXVf6PXmwS7bN0pwS79Dcuep2AHAA9XHuqCYJdNNGv73J/ujk55B+XGwW5xAl8LGxFKijs3tRBzR8FgcOxzu+uJZnwGtTuW6b2vvi+H93oIZfP9u/e9Hu7mwW7xjmn5eY2Pp5937e9O2rZcdgvl53AfwS6CULQhDMVXL8vwNdzZy8PeKAtmabvW0l266vKVYDccL1++Guz6ULq0zXDccfuNCHYAcBnyUBcEu2yiWdvnfnQT+WNfd6xNzifLbhDsDmGlCHatOGb3+LAuneeOwt2xz+0uJ5rpdacAvLBuLdj1/2/B/L2dWvrcXzXY5fsVQb7Vfc1zui7dOTxTuCs/h/sIdoMhvJV3t4bl8f+6KwNYkgWzCE4REG8b7EIKZG2LO3bRqncLC3H+oc0CXB/6BDsAeDjyUBcEu2yiWdvn7sUke23yf5CCxDmCXYSBLKws3ZHq7uodwkF+93BLxz63u5poptBThKODLkTVQ9E8VN3MqwW7adCcHmO2z/j5x3a3ea4H5edwL8EuglXfIvQMgSr+PPzmyiEMpcdlCBuCWRbQxpBYaafesYs2hrA+lJWhc7IuWqxfCnCV82xFsAOAy5CHuiDYZRPN2j53Kk2w1yfVabKetXKiPgt2/Xb1tnCu9DwW2pnu5tzEsc9t84lm/36UYaoLenmr38kbwvqN2iSQz4PdalsI82v7LQbFWyg/h7sOdkMAy7+6OEifaCVIpX365UMVRFjLf3vmKXfshgAZrVy2dHduPHce5iphbQikZau9zi0IdgBwGfJQFwS7bKJZ22dvZsHulDt21fWX49jndv0TzVe7Y1ddf4fKz+Gugx3bEOwA4DLkoS4IdtlEs7YP9+/Y52aieZnKz0Gwuw7qDQAuQx7qgmCXTTRr+3D/jn1uJpqXqfwcBLvroN4A4DLkoS4IdtlEs7YP9+/Y52aieZnKz0Gwuw7qDQAuQx7qgmCXTTRr+3D/jn1uJpqXqfwcBLvroN4A4DLkoS48qGAXppOQdlKSTTRr23MZ1j63YaIZy8qJZu1Y3J38syg/t1po4PKpNwC4DHmoCw882LWyiWZtey7D2uc2nWhOt6sdi7tTfh6C3f6pNwC4DHmoC4LdONH8SnV7LsPa5zYw0bw85eeRf2610MDlU28AcBnyUBcEuy8eJpq17bkMa5/boPxaWKgdi7tTfh7551YLDVw+9QYAlyEPdUGwi8lJP1Gpbc9lWPvc0iQzmGhenPLzyD+3Wmjg8qk3ALgMeagLgl0i2F26tc8tTTQrk8xQOxZ3p/aZDJ9bLTRw+dQbAFyGPNSFBxfswnxC0k5SBLuLt/S5uXtw2crPZfjcaqGBy6feAOAy5KEu3Hmw+8HPf+neffaNH62qbcvlqH1ma2rH4O7VPpvww//Df8gO1T7LUPvsAeChqeWfreShLjzIYAcAAHButfyzlTzUBcEOAADgDGr5Zyt5qAvf89prrzefatU23kLtDQAAANi7Wv7ZSmS4yHLJp18X7AAAAM6hln+2ItgBAABsoJZ/tiLYAQAAbKCWf7Yi2AEAAGygln+2ItgBAABsoJZ/tiLYAQAAbKCWf7Yi2AEAAGygln+2ItjNfND8VhPtZfMb79TWd77xNG203l58q/n5yr4AAMD1q+WfrQh2M7/Q/MaLLpf91qPa+k4X7JbCXx8OdxPsTnjNj551Gzz9oL4eALg4P//RyzR8v/joF6rrD3OA9QvawKup5Z+tPPhgN3R4p7VnzTf6/QQ7AODSCXZwv2r5ZyuCXd/hrd2dq3lwX8UU7ABgdwQ7uF+1/LMVwW4MdsO/rVtuNw1/ezIE1cNrzN+PZ803BDvYnUNdH+7KTydv834vn/xV9+8vWOXfdignjPm6aNfcd8JdK+sr/zZR8s63mrHc23r9RiXYTev3g1mwO9R++Q2kvC+JNj13+dwO5yz7muI5wxWr5Z+tCHZ9JzRMPNLjLLyMndTQqQ0B5wZtD5OaabBbCbmCHezGUNcvXkwnW4dJWr3Whz5raf8XT58dJo6pzSeE0+ZOAJxLGZ5SG2o6D3VFG0JWdf/U5nU81n46/sLcYGV+1J2zDIPRBDsejlr+2Ypglzq4oTM7dFqpMxo6yHESlOk7sPwK2J5Ngt3YOR863nEgEOxgN8aQNdRtpbZzQ50P/Vq5/2FCOOx/6DOnF4UOE8TymMA5DTXX1eRYo9m8ZQxpRcg61OS8bmd9Rxj6j/HYw7H6/Yb1s3lCsd1kHVy/Wv7ZimCXOsFpZzN2aNFqoa51bZOV4TXH5Kz62hY7bOBS5XWdlo1X84dgVruSfqj9xf1nE7t+mxPuFgC3NF6gyVtX07OabU3H9GkQ7LaZB6+148zbsN/hQk/XDuco99Uf8JDU8s9WHnyw6zqvl81vPV3qsPK23ElV245CUN6Jj6+tcsVPsIP9mE3OimA39H/DZG46AVzZfynYVa78A2c01OA4Fk+D2nysPtToNNjV+oX1YDe/Y7cgD56TbacXkibHhitWyz9beeDBbuhk8itXnemEp+8ITw01s4738k068bGTP7Txe/aCHezGYjArJ4FFe/Vgt3DMYxNB4DSV8blr/TymcjdvGL/Luj60l+023c/VYDe7I9e14bjVC96p9uv7TY8N16uWf7bysIPdytcLu06t6+S6zuoGV6D74w6d3R7MOvHyitvKewVcplldF8FuOkl81vzGre/YdYb9xibYwdnk9fXio29N7tjF+knAasfs8k78/M7Z8PhYsAvzkLYc7IbntLwPPAS1/LOVB37Hruu8Dh1X0fmcOBmZTWJSO3SyAADAw1PLP1t58MEOAABgC7X8sxXBDgAAYAO1/LMVwQ4AAGADtfyzFcEOAABgA7X8sxXBDgAAYAO1/LMVwQ4AAGADtfyzFcEOAABgA7X8sxXBDgAAYAO1/LMVwQ4AAGADtfyzFcEOAABgA7X8sxXBDgAAYAO1/LMVwQ4AAGADtfyzlXsPdm9/5ScBAACuTi3/bEWwAwAA2EAt/2xFsAMAANhALf9sRbADAADYQC3/bEWwAwAA2EAt/2xFsAMAANhALf9sRbADAADYQC3/bEWwAwAA2EAt/2xFsAMAANhALf9sRbADAADYQC3/bEWwAwAA2EAt/2xFsAMAANhALf9sZRbsPvP69zWhtvEWam8AAADA3tXyz1aGHDcQ7AAAAM6gln+2koe6INgBAACcQS3/bCUPdUGwAwC4SF9vnrxsmuffHB7/avP85bebd2fb/WTzwfOmafp17z75pHn55Ov9unafdtViWzhemB5nwS9+u3k5O0ac8zvNB5NlhW9+p31hv3r641KsP3YOuAe1/LOVPNQFwe6I6CgPHeo1ikHjk+bJL5bLpwNB3rGnwaPWso49BoNDm3e8S+uny/Om84bLVU4+gfPJ6ysLdhGo+hEy2rT+un3mwWhpzM+kwNRtcwh2/fFqY3E12K0sH9w22LXSfOTINnDXavlnK3moC4LdokOwudrJyjgozDv5D55nnXfabm0gKCZ17fbPyyBYdtZlmFvp/GP/o1cMgXtU9AHAmQ3B6tCePzkSnFrzi9NLwS47fjZeD8FuvOjazg1mc6M8wKXxfakV571JsFs9bq25GMz9qeWfreShLgh2NWOQueLJSuoko+OLALsW2kIXcpfeh9Th551xoQxus6CX3u+FTjie55GBC7hvgh1sogw75R272vi4tDxZCnaZNCYP7ZPm+fOlr2NmYbBvp/UBMadox/z02r59eD7Vx8tzizAPrnD/avlnK3moC4LdqocwWTkh2K2Gq2P7V97DOF4W5FLQqx7fZBFO1V1RLy6Q1GptaHnNDTWetu9bMaEar9hHa7f9YHJBp6jVYWKYHeM25y4nmk++GY8XLgbBVelq6xCsTgh2rfKC6kEcrzJmT2rsSCuPO9RwvmzN8Lxjv7bW47mm17fwuHqMnmDHJarln63koS4IdqseQrBYCmaxvG8rHWsaPCrrD5PAhdCXT+KWBoSbDhbwoHU1m/dXMekZJ4RtPR3Wddvm61Ibarmf5I3bp/VZLQ+TwLH2s76y3Lff/5XPXW7fn8tXrXg4ogaGv+/tn9txMS6spK9iRilM2qFO66FnIdgNhtBVW5d058/XjxdthuVDTY9ter5ZcBvOufS432/oG4621ecP26vln63koS4IdqsecrDLpE66tk034Vp/f/pJWNY5p9CXdbzl43y/w2QOOCZNsMZaW6/tMvSVQSlfP9k2W38419BXdn3Csbq9ybnT+rJ/qOwDD0Gqu7al+shDWNREHoIWnRDsulMst7we03Nog1q7LMJmel6T5zI/X7yGNG9ot+vqvN/mybBf+bjfN85VvMbxWOOyefCEu1bLP1vJQ10Q7FYNk5XaumtxQrBrpcGkHDROnVylgWI4Ry0MVt7nyT7ASVLddDU5u5ue6rVow/pYV0yGDuGq3g9Oj99tk1ptUvXK5668jpC9zslyuEpfb95tx8IuxGTBJQ86UUeVOsl/kVmnD01LY2scczUYTYPTB8/bY8VXo9Oy9tjP25/tcxnqd+18UduH7Vrlaygf56+3J9hxiWr5Zyt5qAuC3ar6hOa6nB7sJh3wwrKqySTstGBXncwBRwy1VNbUvO6ifscaWw1X3bFq9X+o0el5p7V7m3P3fUE5UYt9BDsejKihbAwd6qGtg7EuyxDUSqFrNrZHjR4Jdm11rbaxHttjPWnPWYTBaWDLzjfZrvI8ytdQPhbs2Ila/tlKHuqCYLeqm6RMO41rEwNG2cm3y8rOtbZNu7T23rz75DvZtt17mHfOaVJXDALTSVq3TzmRBE4Q9dpOmKZX3Yt6HSZvQ12mfaaToVm4yms09QnZ/pO+sjvXYd3tzj1sf+hr+uMLdjwUUSN5PfX1Mgk1k22m2x2WhUqgyk3CV03luJN9yuNnj/PnWDtP+RrKx7HP5DUKdlymWv7ZSh7qgmC3Kp+sXKuYJFU6+ehQx1ZZnyZbS4ND976NreiIQwp3YyuPE8/p2t932EpXP7MLI3lNtxOfJ6nI+tqMdcVkaBKu+sdja/eb3lUv+8ruOYzHvOW5p/1RG+hS/yPY8TBMw8sQXKLGiost2Vgb9VkfQ8vgVUi1daQV9ZqHtGm/EKbBrqvrrr+o9lH5vuXjlWDXXXzqW7EN3LVa/tlKHuqCYAdwTVYvupzPLHzdpZjwlZNLuEbjRYz+Ykm0NrhEkJld/BgDTQSnPvSdEtTaNobALKSNx54YgmW2bNhnYd/DRaFDwKuGr2PBrmIaeuEy1PLPVvJQFwQ7gCuSJlFHJkM31k6w5nfQtg+PnXIi2U1w7y1UAsCKWv7ZSh7qgmAHcA1S2IrEs3a1/dUdrrpHu6tQ1xteW9+EOgAuVS3/bCUPdUGwAwAAOINa/tlKHuqCYAcAAHAGtfyzlTzUBcEOAADgDGr5Zyt5qAuCHQAAwBnU8s9W8lAXBDsAAIAzqOWfreShLgh2AAAAZ1DLP1vJQ10Q7AAAAM6gln+2koe6INgBAACcQS3/bCUPdUGwAwAAOINa/tlKHuqCYAcAAHAGtfyzlTzUBcEOAADgDGr5Zyt5qAuCHQAAwBnU8s9W8lAXBDsAAIAzqOWfreShLgh2AAAAZ1DLP1vJQ10Q7AAAAM6gln+2koe6cOfBDgAAgNvJQ10Q7AAAAHYmD3VBsAMAANiZPNQFwQ4AAGBn8lAXBDsAAICdyUNdEOwAAAB2Jg91QbADAADYmTzUBcEOAABgZ/JQFwQ7AACAnclDXRDsAAAAdiYPdUGwAwAA2Jk81AXBDgAAYGfyUBe+57XXXm8+1aptDAAAwOWJDBdZLvn064IdAADA3gh2AAAAOyfYAQDswnvNRy+a5un7w+MPm6cvPm7emW331ebRs6Zp+nXvPH7ZvHj8Xr+u3addtdgWjhemx1nwtY+bF7NjxDmfN48mywrvP2+aZx+e/rgU64+dA66cYHei1EGO7WXz0dfq2+1fDBq11zcdCPKOffreZC3r2GMwOLR5x7u+vhvIxrbWsQMXoJx8AueT11cW7CJQ9cNktGn99ePobPxcGvMzKTB12xyC3TAuV4JUNditLB/cNti10nzEHIEHTLA7RduZ5EGmCyFXeFVoHBTmnfyjZ9nrTdutDQTFpK7d/mkZBMvOOns/0/ubdf7T7btjH71iCNyjog8AzmwIVof29PGR4NSK8XQe+GrjeXb8bLwegt14MbadGwwXffMxf3weaXxfasV5jwW5/PHqcWvtCudsUCHYvZK4e7UWbHYodZLR8Z3y2rq7d0uTttTh551xYT24tVJwHDrh+bmOHR+4b4IdbKIMO+Udu1qwW1qeLAW7TBqTh/ayefps6euYlbB5Uh8Q43w75qfX9vHh+VQfr4/98+AKD4tg9ypSJ3dlwW50QrCLznVxkDi2f2XCF8fLrqaloLcY/Lqg544drOuuqBdXqWu1NrS8pocaT9v3rZhQjVfso7XbPppccCnqfJgYZse4zbnLieZH78fj4rXCVepq6zAGnhDsWuUF1YOFYDepsSOtPO5Qw/myNcPzjv3aWo/nml7fwuPqMXqCHQ+dYHdj/RWpI53Lfi0Fsy5Qpbby2tPgUVl/mAQuhL58ElcZEPJJoFAHp+hqNp/kRB2N9dPW3GFdccFkqMehlvtJ3rh9Wp/V8jAJHGs/C3blvv3+r3zucvuhTxbseDCiBoa/7+2f2zEzLqykr2JGKUzaoU7roWch2A2G0FVbl3Tnz9eP4/WwfKjpsU3PNwtuwzmXHvf7DX3D0bb6/OG6CHY30k0orruTiNe40smH1EnXtunen/nAkZsH4xT6svd0+rjbvpzEHR4DS9IEa6y19douQ18ZlPL1k22z9YdzdXX69P2uTzhWrzc5d1pf9sGVfeAhSHXXtlQfeQiLmshD0KITgl13iuWW12N6Dm1Qa5dF2EzPa/Jc5ueL15DmDe12XZ332zwe9isf9/vGuYrXOB5rXNb2QWV/AVdMsDtVmjhkk4urdUKwa6XBpBw0Tp1cpYFiOEctDA6TwvbPtWOm/U3i4KisVmZ30/s+bdKG9bGumAwdwlVWn9n66fG7bVKrTape+dyV1xH0CTwo7zXvtONnF2Ky4JIHnaijSp3kv8is04emtWC3GoymwenRs/ZY8dXotKw99rP2Z/tcDnOn5fNFbU/mWOVrKB/nr7cn2PHQCXanSJOG42HnOpwe7MqQW1tWld7PYRIm2MF2hlrKaiotn9dd1O9p4ao7Vq3+D5Ou6XmnE8zbnLu8o9+r9RNwtaKGsjF0qIe2Dsa6jJqYhZ7a2B41ujLmp/H2SBvrsT3W4/acsU9Wo9PAlp1vsl3leZSvoXwc+89e47Rvmbw/8AAIdieYTliuXQwYZSffLis719o27dJph9p55/HzbNv5RC+9v8UgcJikdcedDgrT/YEVUa/thGl61b2o12HyNtRV2mc6GZqFqzxIpT4h27+v0+743bkO62537mH7Q1/TH1+w46GIGsnrqa+XSaiZbDPd7rAsVAJVbhK+airHnexTHj97nD/H2nnK11A+jn0mr7F4D5Kl1w3XSbA7QQoelXYIG9ckJkmVTj461LFV1qfJ1tLg0IexoRUdcZi+x+Vx4jllTScNN9DVz6y/ymu6ramPogaH2ox1RZ1NwlX/eGztfinsjbWdB7vQ1/BwzFuee9oftYEu9T+CHQ9D1MOktlK9RI0VF1uysTbqcxp4BicEu77SFltRr3lIm/YLYRrsurru+otqH5XvWz5eCXbdxae+FdvANRPsAK7Z6kWX85mFr7sUE75ycgnXaLyIkV3wbINLBJnZxY8x0ERw6kPfKUGtbWMIzELaeOyJIVhmy4Z9FvY9XBQ6BLxq+DoW7CqmoRceHsEO4IqlSdSRydCNtROs+R207cNjp5xIdhPcewuVAHAhBDuAa5TCViSetavtr+5w1T3aXYW63vDa+ibUAYBgBwAAsHuCHQAAwM4JdgAAADsn2AEAAOycYAcAALBzgh0AAMDOCXYAAAA7J9gBAADsnGAHAACwc4IdAADAzgl2AAAAOyfYAQAA7JxgBwAAsHOCHQAAwM4JdgAAADt378HuSz/+0wAAAFenln+2ItgBAABsoJZ/tiLYAQAAbKCWf7Yi2AEAAGygln+2ItgBAABsoJZ/tiLYAQAAbKCWf7Yi2AEAAGygln+2ItgBAABsoJZ/tiLYAQAAbKCWf7Yi2AEAAGygln+2ItgBAABsoJZ/tiLYAQAAbKCWf7YyC3afef37mlDbeAu1NwAAAGDvavlnK0OOGwh2AAAAZ1DLP1vJQ10Q7AAAAM6gln+2koe6INgBAFykX2m+9bJpnn04PP5bzbOXv9n8wmy7n24+eN40Tb/uFz7+pHn58a/069p92lWLbeF4YXqcBb/0m83L2THinL/TfDBZVvjwd5rm+d86/XEp1h87B9yDWv7ZSh7qgmC3IDqzQ7vmjiMGjU+ab/1SuXw6EOQdexo8ai3r2I+9f+vrl88NXKJy8gmcT15fWbCLQNWPk9Gm9dftMw9GS2N+JgWmbptDsOuPV5sPVYPdyvLBbYNdK81HjmwDd62Wf7aSh7og2NW0ndGzMshcY8cxDgrzTv6D51nnnbZbGwiKSd2x96+4ypZC3tj5d6GuvNJowgiXrOgDgDMbgtWhPfv4SHBqxfg7D3y18Tw7fjZeD8FuvBjbzg2GC6/5mD8+jzS+L7XivDcJdqvHrbVKAIU7Uss/W8lDXRDsTjANHlcidZLR8UVwWgttYT1cpfcn74wL5fs3C3opOPad8Pi8+nWtY8cH7ptgB5sow055x642N1laniwFu0wak4f2SfPs+dLXMSth86Q+IOYU7TifXttvHp5P9fH62D8PrnD/avlnK3moC4LdUdc+YTkh2EXnujhIHNu/8v7F8bLwloLecPxi3bj94vmB0F1Rr9ROWWtDy2tqqLG0fd+KCVV3/L61234wueBS1PkwMcyOcZtzlxPNb30Yj4vXClepq63Jt1iG+lkJcOUF1YM4XmXMntTYkVYed6jhfNma4XnHfm2tx3NNr2/hcfUYPcGOS1TLP1vJQ10Q7BYcJjFHQs/uLQWzWN63lY41vU+V9Uffv3wSNxkQuvMeBrFuULvRoAEPUlc7+SQnJj1jLbU1d1hX1NlQj0Mt95O8cfu0PqvlYRI41n4W7Mp9+/1f+dxLfYJgx4MRNTD8fW//3I6HcWElfRUzSmHSDnVaDz0LwW4whK7auqQ7f75+vGgzLB9qemzT882C23DOpcf9fkPfcLStPn/YXi3/bCUPdUGwO6qfROSdy1WJAWOlkw+pk65t00245gNHbv7+pdCXdbzl42nn3Z734/b8Omo4Kk2wxlpbr+0y9JVBKV8/2TZbfzjXEOy6PqHctnSTc6f1Zf1X9oGHINVd21J95CEsauKkecoJwa47xXIrx+v2ePE8Imym5zV5LvPzxWtI84Z2u67O+21irE/7lY/7feNcxWscjzUumwdPuGu1/LOVPNQFwe4UqaNb6Qh37YRg10qDSTlonDq5mrx/tTA4TArzZQdLdwWBQqq1riZndZPqtWjD+lhXTIYO4apen9Pjd9ukVptUvfK5F+o/e52T5XCVfqX5hXb87EJMFlzyoBN1VKmT/BeZdfrQtDTmxzFXg9E0OH3wvD1WfDU6LWuP/bz92T6XoX7Xzhe1fdiuVb6G8nH+enuCHZeoln+2koe6INid4qonEacHu0kHvLCsavL+3TTYra0DpoZ6KetmXndRv6eFq+5Ytfo/TLqm551OMG9z7j7YlRO12Eew48GIGsrG0KEe2joY67IMQa0UumZje9TokWDXVtdqG+uxPdbH7TmLMDgNbNn5JttVnkf5GsrHsf/sNU77lsn7A/ekln+2koe6INhV/MLHv5N1NrWJyjWJAaPs5NtlZeda26ZdWgtcx96/NKkrBoGlSVp1Ugcsi3ptJ0zTq+5FvQ6Tt6Eu0z7TOpuFq7xGU5+Q7d/XeXf87lyHdbc797D9oa/pjy/Y8VBEjeT11NfLJNRMtplud1gWKoEqNwlfNZXjTvYpj589zp9j7Tzlaygfxz6T1yjYcZlq+WcreagLgl1VH0aGVnQk1yUmSZVOPjrUsVXWp8nW0uBw/P1L4W5s5SDQL46mg4YbiprOgtEgr+m2rr4VNTjUZqwram0SrvrHY2v3S2FvrO2ubmfhazjmLc897Y/aQJf6H8GOh2EaXobgEjVWXGzJxtqoz2ngGWRBa7aulWrrSCvqNQ9p034hZOdrn2NX111/Ue2j8n3LxyvBrrv41LdiG7hrtfyzlTzUBcEO4JqsXnQ5n1n4uksx4Ssnl3CNxosY/cWSaG1wiSAzu/gxBpoITn3oOyWotW0MgVlIG489MQTLbNmwz8K+h4tCh4BXDV/Hgl3FNPTCZajln63koS4IdgBXJE2ijkyGbqydYM3voG0fHjvlRLKb4N5bqASAFbX8s5U81AXBDuAapLAViWftavurO1x1j3ZXoa43vLa+CXUAXKpa/tlKHuqCYAcAAHAGtfyzlTzUBcEOAADgDGr5Zyt5qAuCHQAAwBnU8s9W8lAXBDsAAIAzqOWfreShLgh2AAAAZ1DLP1vJQ10Q7AAAAM6gln+2koe6INgBAACcQS3/bCUPdUGwAwAAOINa/tlKHuqCYAcAAHAGtfyzlTzUBcEOAADgDGr5Zyt5qAuCHQAAwBnU8s9W8lAXBDsAAIAzqOWfreShLgh2AAAAZ1DLP1vJQ10Q7AAAAM6gln+2koe6INgBAACcQS3/bCUPdeHOgx0AAAC3k4e6INgBAADsTB7qgmAHAACwM3moC4IdAADAzuShLgh2AAAAO5OHuiDYAQAA7Ewe6oJgBwAAsDN5qAuCHQAAwM7koS4IdgAAADuTh7og2AEAAOxMHuqCYAcAALAzeagLgh0AAMDO5KEufM9rr73efKpV2xgAAIDLExkuslzy6dcFOwAAgL0R7AAAAHZOsAMA2IX3mo9eNM3T94fHHzZPX3zcvDPb7qvNo2dN0/Tr3nn8snnx+L1+XbtPu2qxLRwvTI+z4GsfNy9mx4hzPm8eTZYV3n/eNM8+PP1xKdYfOwdcOcHupqLDin7vWMe2WzFovGw++lq5fDoQ5K8/DR61lnXsMRgc2rzjnRxjNiB0A9nY1jp24AKUk0/gfPL6yoJdPz8Z2rT++nF0Nn4ujfmZFJi6bQ7BbhiXK0GqGuxWlg9uG+xaaS5hjsADJtjd0BBArjLYjYPCvJN/9CzrvNN2awNBMalrt39aBsGs402Ps86+un583AXM6w3WcA2KPgA4syFYHdrTx0eCUyvG03ngq43n2fGz8XgIduPF2nZuMFz0zcf88XmkULjUivPeJNitHrfW3MnjYRDsbiJ1Vm0n1nZ2VxcsUicZHV8Ep7XQFrpwtTRpSx1+3hkX0vpx8KkcKwXHvhOuhMjp/sDlEexgE2XYKe/Y1cbGpeXJUrDLpHF4aC+bp8+Wvo5ZCZsn9QExD2jH/PTaPj48n+rj5blFmAdXeFgEu5MNE5Xu5/XeMToh2EXnujhIHNu/nPBVgl1+jNq5Ypmrb7Cqu6Je1ElRO+lu+NDyOhvqLm3ft2JCNV6xj9Zu+2hyQaeo82FimB3jNucuJ5ofvR+P9Qk8BOUcpB0vh/pZCXDLF0TjeJUxe1JjR1p53KGG82Vrhucd+7W1Hs81vb6Fx9Vj9AQ7HjrB7kSpU0wdykMNdl0AS22lYz28T5Xlqc2PnSZ42SDQbdttl/5cDhBpwDGJg3XziyZRa2Pf1U6Sygss+brUhlruJ3nj9ml9VsvDJHCs/SzYlfv2+7/yucvt+3O52MPDETUw/H1v/9yOkXFhJX0VM0ph0g51Wg89C8FuEPW3GtK68+frx4s2w/Khpsc2PV+M86meY7uo++GcS4/7/Ya+4Whbff5wXQS7U6TOY+hEH2qwy6ROurZNN+GaDxy5fhKWd87jxKxrL9rBaXgOgh28ujTBGmttvbbL0FcGpXz9ZNts/eFcXU0/fb/rE471lzc5d1pf9gmVfeAhSHXXtlQfQwCKdVETk3F2yQnBrjvFcsvrMT2HNqi1yyJspuc1eS7z88VrSPOGdruuzvttHg/7lY/7feNcxWscjzUumwdPuGaC3VFlWOkmLOMk4+qsT/4GaTApB41TJ1dpoDg2kPTHiWOaxMGryWopXSTJazbVUdGG9ZW6O4Srrg8sL+BMj99tk1ptUvXK5668jpD3GXD13mveacfPLsRkwSUPOlFHlTrJf5FZpw9Na+NxrYZH0+D06Fl7rPhqdFrWHvtZ+7N9Loc50/L5xjt3w7LyNZSP89fbE+x46AS7Y6IjWWzXOJE4PdiV4ba2rOrIJGwycUvbTp9PdWIHVAwhbPg5LI86n06Aon7Huop+r5gMHeq7O1at/g91OT3vtF5vc+6+/suJWuqnBTseiqih4e97FlzaOhjrMmqiGCdT6JqN7VGjK2N+GoOPtLEe22M9bs9ZhMFpYMvON9mu8jzK11A+jv1nr3Hat0zeH3gABLsb6yYq5aTmesSAUXby7bKyc61t0y6ddqiddx4/z7bt3r9ywBnNgly5/fJ5gIqo13bCNL3qXtTRMHkb6iztM50MzcJVHqRSn5Dt39dtd/zuXIs1fMNzD9sf+oD++IIdD0XUSF5Pfb1MQs1km+l2h2WhEqhyUW/V/QaV4072KY+fPc6fY+085WsoH8c+k9co2IFgd2PdhOVhBbtWdKhjq6xPk62lwaF7z8ZWdMTdJHFotWPEczq0aacNrOvqZ9Zn5TXdTnw+aidEY23GumIyNAlX/eOxtftN76R3NT8LX8Mxb3nuaX/UBrrU/wh2PAzT8DIEl6ix4mJLNtZGfdbHzjJ4FVJtHWlFveYhbdovhGmw6+p6YV5VvIbZ45VgN5lXFNvANRPsAK7Z6kWX85mFr7sUE75ycgnXaLyIkV3wbINLBJnZxY8x0ERw6kPfKUGtbWMIzELaeOyJIVhmy4Z9FvY9XBQ6BLxq+DoW7CqmoRceHsEO4IqlSdSRydCNtROs+R207cNjp5xIdhPcewuVAHAhBDuAa5TCViSetavtr+5w1T3aXYW63vDa+ibUAYBgBwAAsHuCHQAAwM4JdgAAADsn2AEAAOycYAcAALBzgh0AAMDOCXYAAAA7J9gBAADsnGAHAACwc4IdAADAzgl2AAAAOyfYAQAA7JxgBwAAsHOCHQAAwM4JdgAAADt378Hu7R//cwAAAFenln+2ItgBAABsoJZ/tiLYAQAAbKCWf7Yi2AEAAGygln+2ItgBAABsoJZ/tiLYAQAAbKCWf7Yi2AEAAGygln+2ItgBAABsoJZ/tiLYAQAAbKCWf7Yi2AEAAGygln+2ItgBAABsoJZ/tiLYAQAAbKCWf7YyC3afef37mlDbeAu1NwAAAGDvavlnK0OOGwh2AAAAZ1DLP1vJQ10Q7AAAAM6gln+2koe6INgBAFykX26evGya5x8Oj/9m8/zlbzbvzrb7c80Hz5um6de9+/EnzcuPf7lf1+7TrlpsC8cL0+Ms+KXfbF7OjhHn/J3mg8mywoe/076wv3n641KsP3YOuAe1/LOVPNQFwa6q0gmudS67FoPGJ82TXyqXT9+DvGNPg0etZR17DAaHNu94J8dYGlSqgwVwecrJJ3A+eX1lwS7GyH4YjTatv26f+dxlaczPpMDUbXMIdv3xakFqaaw+NobfNti10lziaudn7FUt/2wlD3VBsKuKUHOk47sG46Awf60fPM8677Td2vtRTOra7Z+XQTDrePOrirX1YQyGgh3sQNEHAGc2BKtDe/7xkeDUivF1Hvhq43l2/Gw8HoLdOCa3c4MYstMfszF/fB4pFC614rw3CXarx601d/K4P7X8s5U81AXBruoBBLvUSUbHd8pr7e7eLU3aUodfBLNcWj8OPpVjpeB46ITHoBfPUbCDHRDsYBNl2IkxdBgX80CVW1qeLAW7TBqTh/ZJ8/z50tcxK2HzpD4g5gHtmJ9e228enk/18fLcIsyDK9y/Wv7ZSh7qgmBXUwSN63ZCsFsNWMf2Lyd8lWC3dIzV8wK57op60W9FDZUXTYaW19ZQa2n7vhUTqvGKfbR22w8mF3SKOh8mhtkxbnPucqL55MOH1EfzsHW1dQhW7Xg51M9KgJteUM0tBLtJjR1p5XGHGs6XrRmed+zX1no81/T6Fh5Xj9ET7LhEtfyzlTzUBcGuZtbBXfMEYimYdQEstZWONQ0elfWHSeD82GmClw0C3baCHdzO/KJJ1No4IWzrqbzAkq9Lbajlvg8ct0/rsxod+six9rNgV+7b7//K5y6378/lq1Y8HFEDw9/39s/tuBgXVtJXMaMUJu1Qp/XQsxDsBlF/q+Nud/58/XjRZlg+1PTYpuebBbfhnEuP+/2GvuFoW33+sL1a/tlKHuqCYHeCMohclxgwVjr5kDrp2jbdhGs+cOT6SVjeOY8Ts669bAcnd+zg9lJfNdbaem2Xoa8MSvn6ybbZ+sO5hmDX9QnltqWbnLvaD1T2gYcg1V3bUn3kISxqYjLOLjkh2HWnWG55Pabn0Aa1dlmEzfS8Js9lfr54DWne0G7X1Xm/zcfDfuXjft84V/Eax2ONy+bBE+5aLf9sJQ91QbA7ReroVjrCXTsh2LXSYFIOGqdOro69f2l95ThxfB00nC6rpdnd9FSvRRvWV2rtEK6G0HZYF6bH77ZJrVazr3zuyusIS30GXKVfbt5tx88uxGTBJeogr6NKneS/yKwzD1oTcczVcXcanD543h4rvhqdlrXHft7+bJ/LUL9r5xvv3A3LytdQPs5fb0+w4xLV8s9W8lAXBLtTpEnE8fCzT6cHu0kHvLCsKr1/y5Ow6sQtVCZ8wJohhA0/h+VR59MJUNTvWHeVWjvUd3esWv0f6nZ63mk93+bcff9Q9gOxj2DHgxE1NPx9z4JLWwdjXUZNFONoCl2zsT1qdGXMT+P1kTbWY3usj9tzFmFwGtiy8022qzyP8jWUj2P/2Wuc9i2T9wfuSS3/bCUPdUGwq/mlX846hX6icrUdRQwYZSffLis719o27dJph9p59+Pfybbt37+iMx6lQWRhkInz6qDhZlLddF+NOtROUa/D5G2oy0qtzcJVHqRSn5Dt39d5d/zuXId1tzv3sP2hr+mPL9jxUESN5PXU18sk1Ey2mW53WBYqgSoX9Vbdb1A57mSf8vjZ4/w51s5TvobycewzeY2CHZepln+2koe6INjV9BOJsRUdyXWJSVKlk48OdWyV9ek9Whoc+jA3tOL96yaJQ1s6Riuegw4abihqOgtGg7ym27p6EhsNtVmptUm46h+Prd1veqc9D3ahew7jMW957sn+EehS/yPY8TBMw8sQXKLGiost2Vgb9TkNPIMTgl1faYutqNc8pE37hTANdl1dd/1FtY/K9y0fx3kmxz68N5N5RbEN3LVa/tlKHuqCYAdwTVYvupzPLHzdpZjwlZNLuEbjRYz+Ykm0NrhEkJld/BgDTQSnPvSdEtTaNobALKSNx54YgmW2bNhnYd/DRaFDwKuGr2PBrmIaeuEy1PLPVvJQFwQ7gCuSJlFHJkM31k6w5nfQtg+PnXIi2U1w7y1UAsCKWv7ZSh7qgmAHcA1S2IrEs3a1/dUdrrpHu6tQ1xteW9+EOgAuVS3/bCUPdUGwAwAAOINa/tlKHuqCYAcAAHAGtfyzlTzUBcEOAADgDGr5Zyt5qAuCHQAAwBnU8s9W8lAXBDsAAIAzqOWfreShLgh2AAAAZ1DLP1vJQ10Q7AAAAM6gln+2koe6INgBAACcQS3/bCUPdUGwAwAAOINa/tlKHuqCYAcAAHAGtfyzlTzUBcEOAADgDGr5Zyt5qAuCHQAAwBnU8s9W8lAXBDsAAIAzqOWfreShLgh2AAAAZ1DLP1vJQ10Q7AAAAM6gln+2koe6cOfB7gtv/QQAAMAVquWfbeShLgh2AAAAZ1HLP9vIQ10Q7AAAAM6iln+2kYe6INgBAACcRS3/bCMPdUGwAwAAOIta/tlGHuqCYAcAAHAWtfyzjTzUBcEOAADgLGr5Zxt5qAuCHQAAwFnU8s828lAXBDsAAICzqOWfbeShLgh2AAAAZ1HLP9vIQ10Q7AAAAM6iln+2kYe6INgBAACcRS3/bCMPdeF7Xnvt9eZTrdrG26i9AQAAAHtXyz/biAwXWS759OuCHQAAwHnU8s82BDsAAIBN1PLPNgQ7AIBdeK/56EXTPH1/ePxh8/TFx807s+1+onn0rGmaft07j182Lx6/169r92lXLbaF44XpcRZ87ePmxewYcc7fbh5NlhXe/+2mefbh6Y9Lsf7YOeBe1PLPNgS7G4gO7dCutfOIQeNl89HXyuXTgSDv2NPgUWtZx37svZscoxwQYpDoV6W21rEDF6CcfALnk9dXFuyKsXJaf90+8/FzaczPpMDUbXMIdv3xanOharBbWT64bbBrpbmEOQIXp5Z/tiHYnSi/8lVbfxXGQWHeyT96lnXeabu1gaCY1LXbPy2DYNbxlu/tdH0cKx84uoB59IohcI+KPgA4syFYHdrTx0eCUyvG13ngq43n2fGz8XoIduPF2nZuMFz0zcf88XmkULjUivPeJNitHrfWrvViPPtQyz/bEOxOkYLMlXcKqZOM1xjBaS20hS5cLU3aUoefd8aFtH4cfCrHOvJ+Hzs+cN8EO9hEGXbKO3a1YLe0PFkKdpk0Jg/tZfP02dLXMSth86Q+IOYB7ZifXtvHh+dTfbw+9s+DK1yCWv7ZhmB3gocVJE4IdtG5Lg4Sx/YvJ3yVYHfkGOUdP2Cuu6JeXCCJ2s2WpVoaWl7TQ42n7ftW1Fx3/L612z6a9JNFnQ8Tw+wYtzl3OdH86P14vHwxCK5HV1uHYNWOl0P9rAS46QXV3EKwm9TYkVYed6jhfNma4XnHfm2tx3NNr2/hcfUYPcGOy1TLP9sQ7E4QHcWLxx+mznRo9atV12ApVHUBLLWVjjUNHpX1h0ng/NhpgpcNAt22C8EuTfYW1gGZ+UWTri/r+662lsoLLPm61IZa7id54/ZlHQ6TwLH2s2BX7tvv/8rnLrfvz+WrVjwcUQPD3/f2z+34GRdW0lcxoxQm7VCn9dCzEOwGQ+iqrUu68+fr05gebVg+1PTYpuebBbfhnEuP+/2GvuFoW33+cBdq+Wcbgt0Juk5qPomZd5DXIAaMlU4+pE66tk034Vp/X/pJWN45jxOzrr1oB6facxjC4XW+73B+qe8aa229tsvQVwalfP1k22z94VxDsOv6hHLb0k3OndaXE7XKPvAQpLprW6qPPIRFTUzG2SUnBLvuFMstr8f0HNqg1i6LsJme1+S5zM8XryGN6+12XZ332zwe9isf9/vGuYrXOB5rXDYPnnD3avlnG4LdCSaTipVl1+GEYNdKg0k5aJw6uUoDxbGBJD9ON0k0cYMbymppdjc91WvRhvWxrpgMHfq8rh7LCyzT4w8127bapOqVz115HWHWZ8A1e695px0/oy7SxZOhXvKgE3VUqZP8F5l1+tC0Nh6vBqNpcHr0rD1WfDU6LWuP/az92T6Xw3xp+XzjnbthWfkaysf56+1178nhsWDHZajln20IdieoTSTyicZ1OT3Yla//5PfkyCSsfL/juLMBCjjBEMKGn8PyqPPpBGhSZ6vhqjtWrf4PdTo977R+b3Puvn8oJ2qxj2DHgxE1NPx9z4JLWwdjXZYhqJVC12xsjxo9Euza6lptYz22x3rcnrMIg9PAlp1vsl3leZSvoXws2LEbtfyzDcHuFKljyzqcNIlY6Qh3LQaM8rW1y8rOtbZNu3TaoXbeefzb2ba1iV6mfK/Lx8DNRL22E6bpVfeiXlOdZXWZ9plOhmbhKg9SqU/I9u/rvDt+d67Dutude9j+0Nf0xxfseCiiRvJ66utlEmom20y3OywLlUCVi3qr7jeoHHeyT3n87HH+HGvnKV9D+Tj2mbxGwY5LVcs/2xDsTtVPJrp2zUEjJkmV1xcd6tgq69P7s/S+9GFuaEVH3E0Sh1YcY/K+580kDk4TNZ0Fo0Fe0+3E56N2QjTWZqwrJkOTcNU/Hlu73/ROex7sQvccxmPe8tzT/qjtC1I/oU/gYZiGlyG4RI0VF1uysTbqcxp4BicEu77SFltRr2mfftm0XwjTYNfVdddfVPuofN/ycZxncuzDezOZVxTbwN2r5Z9tCHYA1yxNzFYmbmcyC193KSZ85eQSrtF4EaO/WBKtDS4RZGYXP8ZAE8GpD32nBLW2jSEwC2njsSeGYJktG/ZZ2PdwUegQ8Krh61iwq5iGXrgUtfyzDcEO4IqlSdSRydCNtROs+R207cNjp5xIdhPcewuVALCqln+2IdgBXKMUtiLxrF1tf3WHq+7R7irU9YbX1jehDoDLVcs/2xDsAAAANlHLP9sQ7AAAADZRyz/bEOwAAAA2Ucs/2xDsAAAANlHLP9sQ7AAAADZRyz/bEOwAAAA2Ucs/2xDsAAAANlHLP9sQ7AAAADZRyz/bEOwAAAA2Ucs/2xDsAAAANlHLP9sQ7AAAADZRyz/bEOwAAAA2Ucs/2xDsAAAANlHLP9sQ7AAAADZRyz/bEOwAAAA2Ucs/27j3YPf2V34SAADg6tTyz1YEOwAAgA3U8s9WBDsAAIAN1PLPVgQ7AACADdTyz1YEOwAAgA3U8s9WBDsAAIAN1PLPVgQ7AACADdTyz1YEOwAAgA3U8s9WBDsAAIAN1PLPVgQ7AACADdTyz1YEOwAAgA3U8s9WBDsAAIAN1PLPVmbB7jOvf18TahtvofYGAAAA7F0t/2xlyHEDwQ4AAOAMavlnK3moC4IdAADAGdTyz1byUBcEOwCAi/T15snLpnn+zeHxrzbPX367eXe23U82HzxvmqZf9+6TT5qXT77er2v3aVcttoXjhelxFvzit5uXs2PEOb/TfDBZVvjmd9oX9qunPy7F+mPngHtQyz9byUNdEOxmljvAo53bLsWg8Unz5BfL5dP3IX/tafCotaxjj8Hg0OYd7+QY1QHh0K7zfYdrUk4+gfPJ66sdH4cxMwJVP05Gm9Zft888GC2N+ZkUmLptDsGuP14tSFWD3crywW2DXSvNJY5sA3etln+2koe6INidInWeV3hVaBwU5p38B8+z15u2WxsIikldu/3zMghmHW9+VbG+/ibnBu5f0QcAZzYEq0N7/uRIcGrF+DoPfLUxNTt+Nh4PwW68WNuOzzFkpz9mY/74PFIoXGrFeW8S7FaPW2tXOGdjN2r5Zyt5qAuC3VFXOmFJnWR0fHF37Fhw6u6gLb0HqcPPO+NCWj8OPpVjpfC21Amvnxu4BIIdbKIMO+Udu1qwW1qeLAW7TBqTh/ZJ8/z50tcxszDYt9P6gBjX2zE/vbZvH55P9fHy3CLMgyvcv1r+2Uoe6oJgd0x0LIsd5DWIDvZIJ7/6Hhzbv5zw1YLayjGu/v2H8+iuqBcXSKJ+smXp7vjQ8roa6ixt37diQjVesY/WbvvB5IJOUefDxDA7xm3OXU40n3wzHi9dDIJr0tXWIVi14+VQPysBbnpBNbcQ7CY1dqSVxx1qOF+2ZnjesV9b6/Fc0+tbeFw9Rk+w4xLV8s9W8lAXBLtVZSi5Rkuhqgtgqa10rGnwqKw/TALnx04TvGwQ6LbNtzvt3ECuq5u8v4paGyeE7STpsK7bNl+X2lBv/SRv3D6tz2p0mASO9Zn1leW+/f6vfO5y+/5cvmrFwxE1MPx9b//cjp9xYSV9FTNKYdIOdVoPPQvBbjCErtq6pDt/vn68aDMsH2p6bNPzzYLbcM6lx/1+Q99wtK0+f9heLf9sJQ91QbBbkzqna588xICx0smH9D7UtukmXPOBI9dPwvLOeZyYde1lOzit3rE79vyAJE2wxlpbr+0y9JV9Xb5+sm22/nCuIdh1fUK5bekm507ry4laZR94CFLdtS3VRx7CoiYm4+ySE4Jdd4rlltdjeg5tUGuXRdhMz2vyXObni9eQ5g3tdl2d99s8GfYrH/f7xrmK1zgea1w2D55w12r5Zyt5qAuC3YrUgZ7UUe7ZCcGuVX0vTp1cpYHi2ECyfJyH8TnAGWS1NLubnuq1aMP6WFdMhqLuDpOudtPiAs70+N02qdUmVa987srrCEf6DLguX2/ebcfPqIt08WSolzzoRB1V6iT/RWadedCaiGOuBqNpcPrgeXus+Gp0WtYe+3n7s30uQ/2unW+8czcsK19D+Th/vb3uPTk8Fuy4BLX8s5U81AXBbtFpgWf/Tg92kw54YVnVkUlYdeKWOfk88OANIWz4OSyPOp9OgKKuxrpbDVfdsWr1f6jb6Xmn9Xybc/f9QzlRi30EOx6MqKHh73v756Ee2joY67IMQa0UumZje9ToypifxusjbazH9lhP2nMWYXAa2LLzTbarPI/yNZSPBTt2opZ/tpKHuiDYLXkwE4cYMMpOvl1Wdq61bdql0w618+6T72Tb1iZ6mTSI5Mc+5dzAoqiZdsI0vepe1OsweRtqLe0znQzNwlXeH6a6zPbv67w7fneuw7rbnXvY/tDX9McX7HgookbyeurrZRJqJttMtzssC5VAlYt6q+43qBx3sk95/Oxx/hxr5ylfQ/k49pm8RsGOy1TLP1vJQ10Q7BZUrxJfpZgkVTr56FDHVlmfJltLg0Mf5oZWdMTdJHFor3BuYEXUdBaMBnldtX3bk9hoqM1YV/R3k3DVPx5bu1+q47G282AXuucwHvOW5572CW2gS/2PYMfDMA0vQ3CJGisutmRjbdTnNPAMTgh2faUttqJe85A27RfCNNh1dd31F9U+Kt+3fLwS7CbzimIbuGu1/LOVPNQFwQ7gmqxedDmfWfi6SzHhKyeXcI3Gixj9xZJobXCJIDO7+DEGmghOfeg7Jai1bQyBWUgbjz0xBMts2bDPwr6Hi0KHgFcNX8eCXcU09MJlqOWfreShLgh2AFckTaKOTIZurJ1gze+g3dXd9HIi2U1w7y1UAsCKWv7ZSh7qgmAHcA1S2IrEs3a1/dUdrrpHu6tQ1xteW9+EOgAuVS3/bCUPdUGwAwAAOINa/tlKHuqCYAcAAHAGtfyzlTzUBcEOAADgDGr5Zyt5qAuCHQAAwBnU8s9W8lAXBDsAAIAzqOWfreShLgh2AAAAZ1DLP1vJQ10Q7AAAAM6gln+2koe6INgBAACcQS3/bCUPdUGwAwAAOINa/tlKHuqCYAcAAHAGtfyzlTzUBcEOAADgDGr5Zyt5qAuCHQAAwBnU8s9W8lAXBDsAAIAzqOWfreShLgh2AAAAZ1DLP1vJQ10Q7AAAAM6gln+2koe6cOfBDgAAgNvJQ10Q7AAAAHYmD3VBsAMAANiZPNQFwQ4AAGBn8lAXBDsAAICdyUNdEOwAAAB2Jg91QbADAADYmTzUBcEOAABgZ/JQFwQ7AACAnclDXRDsAAAAdiYPdUGwAwAA2Jk81AXBDgAAYGfyUBe+57XXXm8+1aptDAAAwOWJDBdZLvn064IdAADA3gh2AAAAOyfYAQDswnvNRy+a5un7w+MPm6cvPm7emW331ebRs6Zp+nXvPH7ZvHj8Xr+u3addtdgWjhemx1nwtY+bF7NjxDmfN48mywrvP2+aZx+e/rgU64+dA66cYHeq1GEM7WXz0dcq21yFGDRqr286EOQdexo8ai3r2GMwOLR5xzs5xsqg0m2n44bLVk4+gfPJ6ysLdhGo0iDatWn9dfvMg9HSmJ9J859um0Ow649XG4+rwW5l+eBYkCsfV6Q5wpFt4JoJdqdInWXW8aVO7grDxTgozDv5R8+y11u+HzPFpK7d/mkZBLOONz3OOvvFjnl8foIdXLaiDwDObAhWh/b08ZHg1IrxdR74auN5dvxsPB6C3Xixtp0bDBd98zF/fB5pvrTUivPeJNitHrfWzBt4GAS7E6QObNJZxt2rtWCzQ6mTjI7vlNfW3b1bmrSl96sWzHrT97NyrBTg5p1wGpDaQUQHDZdOsINNlGGnvGNXC3ZLy5OlYJcZL6pGe9mOw0tfx6yEzZP6gJgHtON6em0fH55P9fHy3CLMgys8LILdKVKnduj4uitV1xouTgh20bkuDhLH9i8nfJVgVzvGcM74KdjBUdV+qqifdHd8aHlNT+qtb8WEqjt+39ptH00u6BR1PkwMs2Pc5tzlRPOj9+OxfoGHoKutQ7Bqx8uhflYC3PSCam4h2E1q7EgrjzvUcL5szfC8Y7+21uO5pte38Lh6jJ5gx0Mn2J1q0sld8wRiKZh1ASy1lY41DR6V9YdJ4PzYaYKXDQLdtvl22XNKkz0TODiuq9l8khO1Nk4I21oqL7Dk61Ibarnv/8bt0/qsRof+caz9LNiV+/b7v/K5y+37c+kXeDiiBoa/7+2f2/EzLqykr2JGKUzaoU7roWch2A2i/lZDWnf+fP140WZYPtT02KbnmwW34ZxLj/v9hr7haFt9/nBdBLtTpE4pmzSUj69KDBgrnXxIr7+2TTfhmg8cuX4SlnfO48Ssay/awSl/DuVk1AQOTpMmWGOtrdf2sTrL10+2zdYfzjUEu65PKLct3eTcaX05UdMv8EClumtbqo88hEVNTMbZJScEu+4Uyy2vx/Qc2qDWLouwmZ7X5LnMzxevIc0b2u26Ou+3eTzsVz7u941zFa9xPNa4bB484ZoJdkd1E5RxUtGbTDSuygnBrpUGk3LQOHVylQaKYwNJd5x09y7vlE3g4HRlLeU1m2qpaMP6WFdMhg59XtcnlhdwpsfvtkmtNql65XNXXkfIXudkOVyl95p32vGzCzFZcMmDTtRRpU7yX2TW6UPT2nhcq+HRNDg9etYeK74anZa1x37W/myfy2G+tHy+8c7dsKx8DeXj/PX2uvfk8Fiw46ER7I7qJihliMsnGtfl9GD3yu/JkUnYYeKWTQ4r7Trffzinroaevj/8HJZHnU8nQFG/46RpNVwt94mHSdf0vJPJ2K3O3fcP5UQt9hHseDCihoa/71lwaetgrMsyBLVS6JqN7VGjR4JdW12rbazH9liP23MWYXAa2LLzTbarPI/yNZSPBTuYEexOkCYS+aQhTSKOh599igGjfG3tsrJzrW3TLp12qJ13Hj/Ptq1N9DJpEFl5b9O5TeDgZFEz7YRpetW9qNdh8jbUZdpnOhmahatZn5jt39d5d/zuXId1tzv3sP2hr+mPr1/goYgayeupr5dJqJlsM93usCxUAlUu6q2636By3Mk+5fGzx/lzrJ2nfA3l49hn8hoFOxDsTtRNZA5t2nFck5gkVTr56FDHVlmfJltLg0Mf5oZWdMTT93bpGL30PEzg4HRR01kwGuQ13U58PmonRGNtxrpiMjQJV/3jsbX7pToeazsPdqF7DuMxb3nuyf7RH6T+R7/AwzANL0NwiRorLrZkY23UZ33eckKw6yttsRX1moe0ab8QpsGuq+uuv6j2Ufm+5eOVYDeZVxTbwDUT7ACu2epFl/OZha+7FBO+cnIJ12i8iNFfLInWBpcIMrOLH2OgieDUh75TglrbxhCYhbTx2BNDsMyWDfss7Hu4KHQIeNXwdSzYVUxDLzw8gh3AFUuTqCOToRtrJ1jzO2jbh8dOOZHsJrj3FioB4EIIdgDXKIWtSDxrV9tf3eGqe7S7CnW94bX1TagDAMEOAABg9wQ7AACAnRPsAAAAdk6wAwAA2DnBDgAAYOcEOwAAgJ0T7AAAAHZOsAMAANg5wQ4AAGDnBDsAAICdE+wAAAB2TrADAADYOcEOAABg5wQ7AACAnRPsAAAAdu7eg93bX/lJAACAq1PLP1sR7AAAADZQyz9bEewAAAA2UMs/WxHsAAAANlDLP1sR7AAAADZQyz9bEewAAAA2UMs/WxHsAAAANlDLP1sR7AAAADZQyz9bEewAAAA2UMs/WxHsAAAANlDLP1sR7AAAADZQyz9bEewAAAA2UMs/W5kFu8+8/n1NqG28hdobAAAAsHe1/LOVIccNBDsAAIAzqOWfreShLgh2AAAAZ1DLP1vJQ10Q7AAALtLXmycvm+b5N4fHv9o8f/nt5t3Zdj/ZfPC8aZp+3btPPmlePvl6v67dp1212BaOF6bHWfCL325ezo4R5/xO88FkWeGb32lf2K+e/rgU64+dA+5BLf9sJQ91QbBbEJ3ZoV1zxxGDxifNk18sl08HgrxjT4NHrWUd+7H3b3KMYkCY7hut9vyAy1FOPoHzyesrC3YRqPpRMtq0/rp95sFoaczPpMDUbXMIdv3xavOharBbWT64bbBrpbnEkW3grtXyz1byUBcEu4ouWBw6r/R4rXPaq3FQmHfyHzzPOu+03dpAUEzq2u2fl0Ew63jzq4q19en91lHDjhR9AHBmQ7A6tOdPjgSnVoyv88BXG8+z4xfjcQS7bl4U674zXvTNx/zxeaRQuNSK894k2K0et9au+YI8l66Wf7aSh7og2M10ndv0qwdx92ot2OxQ6iSj4zvltXV375YmbceC2DQYV46VgmMRpFeOB1wawQ42UYad8o5dLdgtLU+Wgl0mjclD+6R5/nzp65hZGOzbaX1AzAPaMT+9tm8fnk/18fpcYB5c4f7V8s9W8lAXBLuZWrC75knLCcEuOtfFQeLY/uV7Vwl2xTGio64PIsCS7op6cZU6ajdblu6ODy2v6aHG0/Z9KyZU4xX7aO22H0wuwBR1PkwMs2Pc5tzlRPPJN+Nx8VrhKpVzkna8HOpnJcBNL6jm4niVMXtSY0daedyhhvNla4bnHfu1tR7PNb2+hcfVY/QEOy5RLf9sJQ91QbCrmE2Q+gnHwwp2XQBLbaVjTe9VZX33HkabHztN8LJBoNt2GuzyJuTBKeYXTaKWxvpp+7HDum7bfF1qQy33k7xx+7Q+q+VhEjjWfhbsyn37/V/53OX2/bl81YqHI2pg+Pve/rkdP+PCSvoqZpTCpE3H0kkdJgvBbjCErtq6pDt/vn4cs4flQ02PbXq+WXAbzrn0uN9v6BuOttXnD9ur5Z+t5KEuCHYLJuEifTWg1kFegxgwVjr5kDrp2jbdhGv9feknYXnnPE7MuvayHZwWn8NskgcsSf3WWGvrtV2GvjIo5esn22brD+cagl3XJ5Tblm5y7rS+nKhV9oGHINVd21J95CEsamIyzi45Idh1p1hueT2m59AGtXZZhM30vCbPZX6+eA1pTG+36+q83+bJsF/5uN83zlW8xvFY47J58IS7Vss/W8lDXRDsTnJC+Nmt015bGkzKQePUyVUaKFbOkdYvH6d6bmAuq6XZ3fRUr0Ub1se6YjIUdXeYdJWTp/L43Tap1SZVr3zuyusIR/oMuC5fb95tx88uxGTBJQ86UUeVOsl/kVlnHrQm4pirwWganD543h4rvhqdlrXHft7+bJ/LUL9r5xvv3A3LytdQPs5fb697Tw6PBTsuQS3/bCUPdUGwO0Vl4nE9Tg92kw54YVnVkUlYdeKWifOsrQcGQwgbfg7Lo86nE6BJXVX6uEN9d8eq1f+hLqfnndbrbc7d9w9l/xv7CHY8GFFDw9/3LLi0dTDWZdREMU6m0DUb26NGjwS7trpW21iP7bGetOcswuA0sGXnm2xXeR7laygfC3bsRC3/bCUPdUGwO2o+Kbku8frKTr5dVnautW0W3pd3n3wn27Y20cukQSQ/dndlclyfzn3N7z+cWdRMO2GaXnUv6nWYvA11mfaZToZm4SoPUn1dHuq6q/Pu+N25Dutud+5h+0Mf0B9fsOOhiBrJ66mvl0momWwz3e6wLFQCVS7qrbrfoHLcyT7l8bPH+XOsnad8DeXj2GfyGgU7LlMt/2wlD3VBsKuJziRr007j2sQkqdLJT96Dyvo02VoaHPowN7SiI+4miUObHyM66kNbOgdQFzWdBaNBXtPtxOdJbDTUZqwrJkOTcNU/Hlu73/ROex7sQvccxmPe8tzT/qgNdKn/Eex4GKbhZQguUWPFxZZsrI36rM9dTgh2faUttqJe85A27RfCNNh1dd31F9U+Kt+3fLwS7CbzimIbuGu1/LOVPNQFwQ7gmqxedDmfWfi6SzHhKyeXcI3Gixj9xZJobXCJIDO7+DEGmghOfeg7Jai1bQyBWUgbjz0xBMts2bDPwr6Hi0KHgFcNX8eCXcU09MJlqOWfreShLgh2AFckTaKOTIZurJ1gze+g3dXd9HIi2U1w7y1UAsCKWv7ZSh7qgmAHcA1S2IrEs3a1/dUdrrpHu6tQ1xteW9+EOgAuVS3/bCUPdUGwAwAAOINa/tlKHuqCYAcAAHAGtfyzlTzUBcEOAADgDGr5Zyt5qAuCHQAAwBnU8s9W8lAXBDsAAIAzqOWfreShLgh2AAAAZ1DLP1vJQ10Q7AAAAM6gln+2koe6INgBAACcQS3/bCUPdUGwAwAAOINa/tlKHuqCYAcAAHAGtfyzlTzUBcEOAADgDGr5Zyt5qAuCHQAAwBnU8s9W8lAXBDsAAIAzqOWfreShLgh2AAAAZ1DLP1vJQ10Q7AAAAM6gln+2koe6cOfBDgAAgNvJQ10Q7AAAAHYmD3VBsAMAANiZPNQFwQ4AAGBn8lAXBDsAAICdyUNdEOwAAAB2Jg91QbADAADYmTzUBcEOAABgZ/JQFwQ7AACAnclDXRDsAAAAdiYPdUGwAwAA2Jk81AXBDgAAYGfyUBe+57XXXm8+1aptDAAAwOWJDBdZLvn064IdAADA3gh2AAAAOyfYAQDswnvNRy+a5un7w+MPm6cvPm7emW331ebRs6Zp+nXvPH7ZvHj8Xr+u3addtdgWjhemx1nwtY+bF7NjxDmfN48mywrvP2+aZx+e/rgU64+dA66cYHfMUkeSOpChvWw++lqxfrdi0Ki9nulAkHfsafCotaxjj8Hg0OYd7+QY1UFl+fzApSknn8D55PWVBbsIVP0YGW1af90+8/nM0pifSfOdbptDsOuPVwtS1WC3snxQzreOPa5Ic4kj28A1E+xWjGGj7CRS53noCLvQcgVXicZBYd7JP3qWvb7i9c8Vk7p2+6dlEMze0/Q46+xnHXP/vEwSYS+KPgA4syFYHdrTx0eCUyvG13ngq43n2fGz8XgIduPF2nZuMFx0zcf88XlMLoKXrTjvTYLd6nFrzZ08HgbBrqrr0MbOK+9YWrPg0d9N2vUkJnWS0fHFa1kLbWH99dbes1xaPw4+lWOlIHfohOP9docO9kSwg02UYae8Y1cLdkvLk6Vgl+kvrnbtZfP02dLXMbMw2LfT+oCYB7RjfnptHx+eT/Xx8twizIMrPCyC3RHzkFKbsByC4GHZXp0Q7KJzXRwkju1fvn+VYDc5xgnPB5jprqgXV6mjdouLJmPLa3qo8bR934oJVXf8vrXbPpr0lUWdDxPD7Bi3OXc50fzo/XhcvFa4SuV8ox0jh/pZCXDTC6q5OF5ljJ3U2JFWHneo4XzZmuF5x35trcdzTa9v4XH1GD3BjodOsDsidYaTjqQWRK7prtJSkOped2orHev8/cqWpzY/dprgZYNAt22/XRpc+it5YzOBg+PmfdWkn2pr6rCu2zZfl9pQy/0kb9w+rc9qeZgEjrWfBbty337/Vz53uX1/Lv0CD0fUwPD3vf1zO37GhZX0VcwohUk71Gk99CwEu0HU32pI686fr09jerRh+VDTY5uebxbchnMuPe73G/qGo231+cN1EeyOEOwqUidd26b+3kz1k7DJezpMzLr2oh2cxucwdNzZ9mUQBOpSrYy1s17bkz4s1fg0KOXra/3d9FxDsOv6hGN9403OndaX9V/ZBx6CVHdtS/WRh7Coick4u+SEYNedYrnl9ZieQxvU2mURNtPzmjyX+fniNaR5Q7tdV+f9No+H/crH/b5xruI1jscal7V9kPkCD4hgd8Q82A0Tlny7btk48di1E4JdKw0mRYd68uQqDRTHBpL+OPmfa+uBZVmtzPqyVK9FG9bHumIydAhXtT6wPH63TWq1SdUrn7vWJ7f0CTwo7zXvtONnF2Ky4BJ1kNdRpU7yX2TW6UPT2ni8GoymwenRs/ZY8dXotKw99rP2Z/tcDvOj5fNFbU/mUeVrKB/nr7cn2PHQCXZH1CYR81BzWhjah9ODXRlka8uqjkzCpu955fkc2R8YDCFs+Dksj7qaToAm/dpquOqOVav/Q91OzzvvL1/13H3/UE7UYh99Ag9G1NDw973981APbR2MdVmGoFYKXbOxPWp0ZcxP4+2RNtZje6zH7TmLMDgNbNn5JttVnkf5GsrHsf/sNU77lsn7Aw+AYHdELdh1k4hDB1SdaOxWDBhlJ98uKzvX2jbt0mmH2nnn8fNs29pEL5MGkemxaxPGxf2BqajXdsI0vepe1OsweRvqKu0z7dNm4SoPUqlPyPbv67Q7fneuw7rbnXvY/tDX9McX7HgookbyeurrZRJqJttMtzssC5VAlYt6q+43qBx3sk95/Oxx/hxr5ylfQ/k49pm8RsEOBLsjqsFuWD60q+o0YpJU6eSjQx1bZX2abC0NDn0YG1rxfk7ey4VjpHA3tMrnASyJms6C0SCv6bYP+yhqbKitWFf0a5Nw1T8eW7vftK/Mg13onsN4zFuee9oftYEu9T+CHQ/DNLwMwSVqrLjYko2VUZ/TwDM4Idj1lbbYinrNQ9p8DjUNdl1dd/1FtY/K9y0frwS7ybyi2AaumWAHcM1WL7qczyx83aWY8JWTS7hG40WM/mJJtDa4RJCZXfwYA00Epz70nRLU2jaGwCykjceeGIJltmzYZ2Hfw0WhQ8Crhq9jwa5iGnrh4RHsAK5YmkQdmQzdWDvBmt9B2z48dsqJZDfBvbdQCQAXQrADuEYpbEXiWbva/uoOV92j3VWo6w2vrW9CHQAIdgAAALsn2AEAAOycYAcAALBzgh0AAMDOCXYAAAA7J9gBAADsnGAHAACwc4IdAADAzgl2AAAAOyfYAQAA7JxgBwAAsHOCHQAAwM4JdgAAADsn2AEAAOycYAcAALBzgh0AAMDOCXYAAAA7J9gBAADsnGAHAACwc4IdAADAzgl2AAAAOyfYAQAA7JxgBwAAsHOCHQAAwM4JdgAAADsn2AEAAOycYAcAALBzs2D3mde/rwm1jQEAALg8Q44bCHYAAAA7k4e6INgBAADsTB7qgmAHAACwM3moC4IdAADAzuShLgh2AAAAO5OHuiDYAQDs2Oe/+OPN577w5daPNT/4+S+9ktj3jTe/nI5VO8fJfvhPNW/+zL/fvPWzv9289Re/2/zQv9LcyFs/+93W8+bNn/rftcf65+rnONE53pdwjvfmnM8ljnPSc2m3eWM859uzY7Hm7fS+xfsX72P1/b0AeagLgh0AwE698eZXKpPS24lj1s51zJv/1f9J89Zf/v9WA9ureOsv/+PmCz/xr1fPdcwW70t4lfdmu+fSho7K+UJ3TmHuPN5uPv+KNbG1PNQFwQ4AYIe2CgzhpgEmQt0X/9In1YB2G3HMN3/ir1XPuWTL9yXc5L25j+cSga+2LbezFqTvSx7qgmAHALAz8VW82uTzfN4+/auHP/ynznqnrvTWz/3j5gs/9Cfr5y5s/76E096b+3gu6Zxv1Lbj1tr39ZTP/S7loS4IdgAAOxP/zqo6+TyjU+9QxL+pqwWyc3rzp/696rlLd/G+hFPem/t4Lrf9N3ysi880/4zvWx7qgmAHALAzdzGBj3PUzl2KX5RSC2PnFL9QpXbu0l0Fm1Pem/t4Lv5d3dbennzG9y0PdUGwAwDYmfqk8/xq5y69ym+/vKkv/ux3q+cu1V7DVmrnz9X22cpwzs/e19cwHz1rmuZl8xvvVNad4Oc/etnuf3p78dEvVI+ztXh/L+nrmHmoC4IdALB/7z9vmmcfFss/bJ42z5tHk2W52vp22YuPm3cmy87jnccxeV17PqerTTpP9fPvvNv8xX/5X62uK9XOXaoFsWP+g/+0nZz//fq6JbVzl2qvYck3nnYhoWs3DyW18+dq+9TE5/Hn//l/qbruVDc9ZxJh7OkH9eVjO+F9eedbzYt+62p78a3m52v7tVKgW1ofz2Nl3/uSf8b3LQ91QbADAK7DJNxFaHvZfPS1YpuJOwx28dzW2iyUrqtNOI/50pf/ZPONR/+H5uXLT04OErVzl2ohbE2Eumj3GezKQNHdMXrWfCPb5pja+XO1fWoi2L148bL5n/+b/4vq+lPc9JxjqC2DXQpphzB39H3pt3/RJrvfelSu/6D5rXbv+fLBLzS/0e63dPctnuPyvvcn/4zvWx7qgmAHAOzYe81Hq7cL+pYFp8kNiWNtDHkRAg/txeP3xuMlX/s4u2tRhMUU6mLyWwmaab9jAXSuNuFc89/40z/T/L2/9/eb3/2H/+mN7g7Vzl2qhbAl6a3/g/Zn677v2E0UgeYUtfPnavssiVAX7d/6t3+5uv6Y0895CFMptBXBLgW+ybKVcJbes0PoS/v2YbkLjkeCcrF/9/hYu9ln9NHjJ83f/Fu/Xl03+Fu/9h+m7WrravLP+L7loS4IdgDAjkWwOxKMql/TDKffsXvn8fPsHF3Ie/p+/vjwHNJXLodjxLnH4/UhND2X/s+veHewNuFc8tf+x//TLlS2k9e4a1fbZknt3KVaCFvyH/zH3c/Hgt1MfD027qbGXdXa+jWvcs55sOtC3zTErd9Vm+q27drxu5+z88dnsPrVyzj+zT6juKAR72nUQG19LI/1sV1tfU3+Gd+3PNQFwQ4A2LG7CXal9M9/hrt2s+NPg95UFwpTe8VQF2oTzpr/1b/zK+lU8bO2/pjauUu1EHbMpQW7/G5TbX1N7fy52j7HxN3UuKsad1dvEsJf5ZzzYFe/OxfvTS3YdXfl8paHru5Yk3bsXLNgF9vkAfHmwS4MX3Ut3894HMtjfb78mPwzvm95qAuCHQCwYzf/KubBqwa7aZiMO3TTr2Z2z+np+7Xnlp1v8vXNrs2+4rmgNuEsxR26tbsVp6idu1QLYcdcUrDr/h3ZzQND7fy52j6niMDx9/7v/6D57u/+w5PvJL3KOW8b7OoifB2/W1f9xSgbBbtQ+0rmTb+COcg/4/uWh7og2AEAO3b3d+zSv9HLjje5e5ctO3xVs3RKeFxXm3CWYtIadyQEu2WvGupC7fy52j6nSMGu//eQdxvsuq9S3uSrmN37d7yV+1fDYi3YTR6/erArv5L5Kl/BHOSf8X3LQ10Q7ACA65HugpVhLRMh74Zt+m/p5oFt+Y5d9zgFwRPachCcq004a4avYt72l3KsqYWwYy4h2HWh5IS7Swtq58/V9jkmvooZd+rijt3dfxWz/3rl7C7eTcLUCXfslv49YxnsZnf1Xj3YheErmRHmXuUrmIP8M75veagLgh0AsF/D3bgIdONdsAhg069K3iQ01dXu7nXSL0s5+d/Yhbu5YzcY7k78xkffulFYCLVzl2oh7Jh7D3Ypbb96SAi18+dq+6yJX54SgeMb70/D1ile5Zy1YFe+L2mbSbiq+8bTYZ9DsFvat3re0hD+HsXPaLf7rAZxFzvaq3wFc5B/xvctD3VBsAMAdiq7MzYJdgfpov/jDyd30A66/fO7bWleu3Cc5XA4D5Lzr37GuYZgeAh26XzVr4muq00418RdiuHfbd3n/+5gcN/Bbv6LP7pW/vuyNbXz52r7LBn+dwe3/SU3tXVLlgJWWj60Y6EuBbD8fSv+XVz6C9628TzdVzuX3+fu3/nN76QOy28X8KIObvIV15r8M75veagLgh0AsEuTAFUNdvm/v5vecRvnm21Ye+drxS8sGb6uOQauLgDOWn6+/Cue5fNI67I7eMVzTa8jdjvxF6eE2oTzmLhbF3eD4q7Qff4Pyl9V7dyl2mvYSu38udo+NfGVwLijepf/g/Kz6K5KdAGsD3ipVcLg+G/q8n2K9V2br5vqAt5NAvi55Z/xfctDXRDsAIArsBC+yrth6d/gnRai0hx0FhZvJoW24Rh5+Kve0Vu7KzhVm3CeKgJEfO2vtq5UO3epFsK2UDt3qfYatlI7f662T00Eu5vcRa256Tnvy/zf8O1P/hnftzzUBcEOAGBnahPOLdTOXfriz363GsTOKc5RO3ep9hq2Ujt/rrbPVu7jnA9V/hnftzzUBcEOAGBnPveFH6tOOs8pzlE7d+mtn/3tahg7p7d+9nn13KW7eF/CKe/NfTyXH/z827P1nNPbk8/4vuWhLgh2AAA788abX65MOs8rzlE7d+nNn/73q2HsnN78c/+b6rlLd/G+hFPem/t4LncVJh+qUwL9XcpDXRDsAAB25vNf/PHqxPN83k7nqJ175of/ueatv/yPq4HsHN76uf9f84Uf+q/Vz13Y/n0Jp7039/Fc4s+ffaO2HbcV7+spn/tdykNdEOwAAHbojTe/Up2AnkMcu3bORT/xrzdf/EufVIPZbXzxL/1+e+y/Wj/ngi3fl3CT9+Y+nstd3Sl8aE65S3vX8lAXBDsAgJ06f3B4uxoWTvHmT/y15q2fO9+du3Sn7oahbrBNoHq192ab57IeND6fzunf253Hq9fE1vJQFwQ7AIAdi6+HxST/Nv++KvaNY9z6q2Y/9CebN3/q30u/7OStv3jz35b5xXaf2PfNn/rfnvz1yyXneF/COd6bcz6Xz32hDXSnPJc4Z7ttd04h72be7j73U9/re5KHuiDYAQAA7Ewe6oJgBwAAsDN5qAuCHQAAwM7koS4IdgAAADuTh7rPvP5HBDsAAIC9EewAAAB2TrADAADYOcEOAABg5wQ7AACAnctDnWAHAACwQ4IdAADAzgl2AAAAOzcLdq99+vUm1DYGAADg8gw5biDYAQAA7Ewe6oJgBwAAsDN5qAuCHQAAwM7koS4IdgAAADuTh7og2AEAAOxMHuqCYAcAALAzeagLgh0AAMDO5KEuCHYAAAA7k4e6INgBAADsTB7qgmAHAACwM3moC4IdAADAzuShLgh2AAAAO5OHuiDYAQAA7Ewe6l779B8W7AAAAPZGsAMAANi5PNQJdgAAADtUCXbxB8EOAABgL/JQlwW7P1zdGAAAgMuTh7owBrs33vxydQcAAAAuR2S3PNSFMdh99o0vVXcCAADgckR2y0NdGIPdH/9n36zuBAAAwOWI7JaHujAGuz/6T39/dScAAAAuR2S3PNSFMdi9/vp/vroTAAAAlyOyWx7qwhjswvf/wA9VdwQAAOD+RWbLM9xgEuxe/6f+aPP5L/549QAAAADcnzfe/ErKbHmGG0yCXfgv/DM/UD0IAAAA9yeyWpnfBrNgF77/v/LF6oEAAAC4e9//A2/NcluuGuw+/b3/ueYHP/929YAAAADcnchmkdFq2W1QDXbh09/7TzV//J915w4AAOC+/LHv/0LKZrXMllsMdoM/8kf/WJsQv1Q9CQAAAOcXGeyP/NH/cjWjlT7dOhrsBhHw/pk/9oPN93/2h5rPvvGl5o03v1x9AgAAAJwustVn3/jRlLX+S3/scyl71TJZTYS6FOziP7UNTvP6eby27FMAAAD3pJZRRrVs80pqWeu4IdR9+nv7YHcR4W5Qe8MKtTccAADgNmrZY6aWYW6llrGOy0PdJNjdLtyF2pO8pdobuaL24QAAAORqWWJVLavcWi1TnSbPcIdgF3/IVtR2PF3tCW+g9mafUe3DBwAA7ldt7n5WteyxiVqWOk2e3YZQ9+nv/cPN/x+ewuQNbdXrbQAAAABJRU5ErkJggg==;" parent="1" vertex="1">
          <mxGeometry x="980" y="1300" width="886" height="687" as="geometry" />
        </mxCell>
        <mxCell id="0rr_-BuDZdRbgkuV8nIT-19" value="文件详情" style="html=1;shadow=0;dashed=0;shape=mxgraph.bootstrap.rrect;rSize=5;strokeColor=none;strokeWidth=1;fillColor=#343A40;fontColor=#ffffff;whiteSpace=wrap;align=center;verticalAlign=middle;spacingLeft=0;fontStyle=0;fontSize=16;spacing=5;" parent="1" vertex="1">
          <mxGeometry x="990" y="1310" width="90" height="32" as="geometry" />
        </mxCell>
      </root>
    </mxGraphModel>
  </diagram>
</mxfile>
